<?xml version="1.0" standalone="no"?>
<!DOCTYPE svg PUBLIC "-//W3C//DTD SVG 20010904//EN"
 "http://www.w3.org/TR/2001/REC-SVG-20010904/DTD/svg10.dtd">
<svg version="1.0" xmlns="http://www.w3.org/2000/svg"
 width="1200.000000pt" height="1200.000000pt" viewBox="0 0 1200.000000 1200.000000"
 preserveAspectRatio="xMidYMid meet">
<metadata>
Created by potrace 1.11, written by Peter Selinger 2001-2013
</metadata>
<g transform="translate(0.000000,1200.000000) scale(0.100000,-0.100000)"
fill="#000000" stroke="none">
<path d="M0 6000 l0 -6000 6000 0 6000 0 0 6000 0 6000 -6000 0 -6000 0 0
-6000z m4461 5048 c33 -43 37 -53 37 -108 0 -68 10 -63 -118 -60 -47 1 -68 6
-77 17 -19 25 -17 33 28 102 22 34 45 76 51 92 12 35 20 31 79 -43z m67 -263
c-3 -3 -30 -2 -59 2 l-54 8 50 5 c47 5 76 -2 63 -15z m1433 -152 c13 -17 13
-17 -6 -3 -11 8 -22 16 -24 17 -2 2 0 3 6 3 6 0 17 -8 24 -17z m214 -152 c-6
-5 -25 10 -25 20 0 5 6 4 14 -3 8 -7 12 -15 11 -17z m-961 10 c3 -4 -6 -6 -19
-3 -14 2 -25 6 -25 8 0 8 39 4 44 -5z m-229 -27 c22 -9 0 -24 -34 -24 -24 0
-24 0 -5 15 23 17 19 16 39 9z m1265 -46 c0 -13 -5 -9 -31 19 l-24 26 27 -19
c15 -10 28 -22 28 -26z m-519 -105 c13 -16 12 -17 -3 -4 -17 13 -22 21 -14 21
2 0 10 -8 17 -17z m576 -35 c-3 -8 -6 -5 -6 6 -1 11 2 17 5 13 3 -3 4 -12 1
-19z m4 -51 c-8 -8 -11 -7 -11 4 0 20 13 34 18 19 3 -7 -1 -17 -7 -23z m-591
-121 c0 -6 -7 -1 -15 10 -8 10 -15 23 -15 28 0 6 7 1 15 -10 8 -10 15 -23 15
-28z m-1260 20 c0 -2 -8 -10 -17 -17 -16 -13 -17 -12 -4 4 13 16 21 21 21 13z
m1676 -54 c-4 -3 -14 2 -24 12 -16 18 -16 18 6 6 13 -6 21 -14 18 -18z m24
-12 c0 -5 -5 -10 -11 -10 -5 0 -7 5 -4 10 3 6 8 10 11 10 2 0 4 -4 4 -10z
m335 -131 c9 -17 15 -33 13 -35 -3 -2 -12 12 -21 31 -21 43 -13 47 8 4z
m-1140 -19 c3 -5 2 -10 -4 -10 -5 0 -13 5 -16 10 -3 6 -2 10 4 10 5 0 13 -4
16 -10z m-18 -20 c14 -11 29 -17 34 -14 5 3 6 -1 4 -9 -7 -16 25 -53 43 -51
25 3 27 4 16 12 -9 5 -8 11 2 20 12 11 14 5 14 -36 0 -27 6 -57 15 -68 8 -10
15 -14 15 -8 0 6 -3 14 -7 17 -3 4 -8 18 -9 32 -2 17 2 25 14 26 16 1 16 2 0
6 -14 4 -15 8 -6 29 12 26 23 27 88 9 24 -7 24 -7 5 8 -20 16 -20 16 1 17 24
0 34 -17 35 -58 l0 -27 10 25 10 25 19 -23 c10 -13 21 -23 24 -22 21 1 26 -2
26 -15 0 -8 2 -15 4 -15 2 0 13 -3 23 -7 14 -5 16 -4 7 8 -16 21 -34 79 -25
79 5 0 12 -11 15 -25 4 -14 11 -25 16 -25 6 0 10 -6 10 -14 0 -8 5 -18 11 -22
7 -4 9 0 5 12 -3 11 -1 26 4 34 8 12 10 11 17 -5 18 -42 49 -85 61 -85 6 0 12
-6 12 -13 0 -7 6 -22 14 -32 13 -18 14 -17 9 10 -3 25 -2 27 7 13 6 -10 18
-18 26 -18 9 0 12 -5 8 -12 -4 -7 -3 -8 5 -4 6 4 9 12 6 17 -11 17 11 9 33
-11 12 -12 22 -28 22 -37 0 -12 3 -13 14 -4 11 9 17 8 29 -9 9 -13 20 -18 31
-14 9 3 16 1 16 -5 0 -6 -9 -11 -20 -11 -11 0 -20 -4 -20 -8 0 -13 33 -10 47
4 10 9 10 20 3 38 -15 39 -3 31 20 -14 11 -22 23 -40 26 -40 2 0 -1 10 -7 23
-11 20 -11 21 4 8 10 -7 18 -23 18 -35 1 -17 2 -18 6 -3 3 10 10 14 16 10 7
-3 4 3 -5 14 -22 24 -23 39 -3 47 8 3 15 1 15 -4 0 -4 14 -11 30 -15 22 -5 30
-13 31 -28 1 -20 2 -20 8 3 7 25 7 25 14 -7 6 -29 9 -31 42 -28 30 3 37 0 45
-21 5 -13 14 -24 20 -24 6 0 8 5 4 11 -4 7 -1 10 7 7 8 -3 13 -12 11 -21 -3
-21 25 -77 39 -77 5 0 3 10 -5 22 -20 28 -20 58 -1 58 8 0 16 8 16 18 1 16 2
16 6 0 2 -10 9 -18 14 -18 5 0 9 -4 9 -9 0 -5 -9 -7 -20 -4 -11 3 -20 0 -20
-6 0 -5 6 -8 14 -5 16 6 40 -31 31 -46 -3 -6 1 -10 9 -10 9 0 13 6 10 14 -5
13 -2 13 20 3 14 -7 28 -22 31 -34 3 -13 10 -23 16 -23 6 0 8 9 4 21 -5 14 -3
20 5 17 6 -2 11 -7 10 -12 -1 -5 5 -13 14 -18 9 -5 16 -16 16 -23 0 -8 4 -15
9 -15 5 0 12 -8 14 -17 2 -10 3 -8 2 5 -3 33 13 37 21 5 4 -15 10 -30 13 -33
12 -10 31 -50 31 -65 0 -9 20 -38 45 -64 42 -45 60 -81 33 -65 -10 6 -10 4 0
-7 6 -7 12 -21 12 -31 0 -32 20 -22 55 27 11 15 18 18 31 10 20 -13 19 -31 -2
-27 -16 3 -19 -24 -3 -34 6 -3 15 -1 19 6 5 8 9 5 13 -9 4 -17 11 -19 40 -14
33 5 58 -9 37 -22 -18 -11 -11 -21 25 -35 22 -9 34 -19 31 -27 -4 -9 7 -13 37
-14 l42 -2 -35 -6 c-23 -4 -31 -9 -22 -14 7 -5 21 -5 32 -2 11 4 20 2 20 -4 0
-6 -8 -11 -17 -12 -12 0 -9 -5 10 -13 15 -7 25 -15 22 -18 -3 -3 4 -5 15 -4
11 0 25 7 29 15 6 9 11 10 15 2 4 -6 3 -11 -2 -11 -5 0 -7 -11 -4 -25 2 -14
10 -25 18 -25 16 0 37 -37 29 -50 -3 -6 -16 -10 -28 -10 -19 -1 -18 -3 8 -14
17 -7 36 -20 44 -29 16 -20 8 -22 -21 -6 -15 8 -19 8 -14 0 4 -7 -1 -11 -13
-11 -12 0 -21 -4 -21 -10 0 -5 7 -10 15 -10 9 0 19 -8 22 -17 4 -10 11 -22 17
-26 7 -6 4 -7 -6 -4 -21 7 -29 -14 -11 -31 7 -7 13 -33 13 -58 0 -34 -4 -44
-16 -44 -13 0 -15 7 -10 30 3 19 2 29 -4 25 -6 -3 -10 -17 -10 -29 0 -28 -24
-51 -42 -40 -26 16 -58 13 -58 -6 0 -17 7 -18 69 -15 39 2 76 7 83 11 7 5 24
9 38 9 14 0 30 4 37 8 6 4 14 3 17 -2 3 -5 -4 -11 -15 -14 -13 -3 -18 -10 -14
-17 4 -7 -2 -18 -14 -26 -24 -17 -29 -39 -7 -31 8 3 17 1 20 -6 2 -7 5 -2 5
11 1 30 17 28 23 -2 4 -19 0 -26 -19 -30 -28 -8 -30 -36 -6 -77 15 -25 33 -39
33 -24 0 12 -24 55 -32 55 -4 0 -8 7 -8 15 0 24 13 17 37 -21 18 -28 20 -38
11 -53 -7 -11 -18 -17 -27 -13 -11 4 -13 1 -7 -13 3 -10 2 -33 -4 -51 l-12
-34 -69 1 c-38 1 -69 5 -69 10 0 5 -5 9 -10 9 -6 0 -9 -6 -8 -12 2 -9 -11 -13
-40 -12 -27 0 -38 -2 -30 -8 7 -4 56 -8 109 -7 54 1 102 -2 108 -5 6 -4 20 -2
32 4 43 23 134 22 98 -1 -10 -6 -6 -9 14 -9 30 0 37 -16 10 -23 -10 -3 -1 -3
20 -2 20 2 37 -1 37 -7 0 -5 -3 -7 -8 -4 -4 2 -16 -3 -27 -11 -20 -15 -20 -15
3 -8 13 4 22 2 22 -4 0 -6 -7 -11 -15 -11 -18 0 -19 -12 -3 -28 6 -6 8 -15 4
-19 -4 -4 -11 -1 -16 6 -5 9 -7 -9 -5 -45 2 -32 4 -65 4 -72 1 -7 6 -10 11 -7
6 3 10 0 10 -9 0 -8 4 -16 10 -18 5 -1 12 -18 14 -35 2 -18 -1 -30 -5 -27 -5
3 -9 15 -10 27 -1 18 -2 16 -10 -8 -6 -20 -5 -32 4 -37 9 -6 8 -12 -5 -22 -23
-17 -23 -38 -1 -34 10 2 19 -4 21 -14 3 -14 -1 -16 -14 -11 -13 5 -16 3 -11
-10 3 -9 0 -38 -8 -64 -16 -54 -19 -75 -7 -55 6 8 9 1 9 -20 0 -29 -1 -30 -10
-10 -14 30 -29 28 -21 -3 4 -16 2 -25 -6 -25 -6 0 -9 3 -6 8 2 4 -2 16 -10 27
-13 17 -14 14 -8 -28 8 -54 -12 -68 -23 -17 -8 43 -18 27 -18 -28 0 -37 -3
-46 -15 -44 -8 2 -12 1 -8 -3 4 -4 3 -18 -2 -31 -6 -14 -6 -26 0 -29 14 -9 9
-65 -7 -65 -7 0 -13 -4 -13 -9 0 -5 -3 -23 -6 -40 -6 -27 -4 -31 15 -31 11 0
21 -4 21 -10 0 -5 -7 -10 -15 -10 -8 0 -15 -7 -15 -15 0 -8 5 -15 10 -15 6 0
10 -4 10 -10 0 -5 -17 -12 -37 -16 -38 -7 -63 -24 -63 -43 0 -15 -26 -14 -42
2 -7 7 -28 14 -45 15 -30 3 -33 1 -33 -22 0 -17 -5 -26 -16 -26 -9 0 -21 -14
-27 -30 -10 -25 -16 -30 -34 -25 -24 6 -32 -10 -10 -18 6 -3 -2 -4 -19 -3 -46
4 -51 11 -59 69 -11 79 -24 102 -24 45 -1 -42 -4 -48 -23 -48 -19 0 -20 2 -6
18 13 14 13 21 2 47 l-13 30 -1 -32 c0 -17 -4 -33 -9 -35 -4 -1 -12 -13 -15
-25 -6 -18 -3 -23 11 -23 15 0 15 -2 3 -9 -8 -6 -18 -7 -22 -5 -4 3 -8 0 -8
-6 0 -7 6 -10 14 -7 16 6 28 -47 13 -62 -5 -5 -7 -21 -5 -37 2 -17 -3 -34 -12
-41 -13 -11 -13 -12 0 -13 17 0 44 -28 46 -47 1 -7 2 -20 3 -29 0 -10 7 -14
16 -10 12 4 15 -3 15 -29 0 -21 5 -35 13 -36 10 0 10 -2 0 -6 -7 -2 -13 -9
-13 -14 0 -6 3 -8 8 -6 4 3 7 -31 7 -74 0 -60 -4 -82 -15 -89 -13 -8 -12 -10
4 -10 15 0 17 -6 14 -29 -3 -23 1 -32 16 -40 16 -7 17 -10 5 -10 -11 -1 -19
-13 -23 -33 -8 -49 -10 -143 -3 -155 4 -6 2 -25 -3 -43 -6 -22 -6 -39 1 -52 8
-15 8 -19 0 -14 -7 4 -11 -1 -11 -13 0 -11 5 -23 10 -26 6 -3 10 -14 10 -23 0
-13 -2 -14 -9 -4 -6 10 -10 4 -15 -18 -11 -56 -7 -90 9 -90 10 0 15 -10 15
-30 0 -17 5 -30 13 -30 7 -1 5 -6 -5 -14 -22 -16 -23 -27 -3 -20 12 5 15 -3
16 -37 0 -34 2 -39 9 -24 6 14 9 15 9 5 1 -9 -4 -21 -11 -28 -9 -9 -9 -12 0
-12 7 0 12 -16 12 -40 0 -38 8 -46 42 -42 3 1 9 -5 12 -13 3 -9 0 -12 -10 -8
-18 7 -18 -8 1 -33 8 -10 15 -27 15 -37 0 -14 -5 -17 -22 -11 -21 6 -21 5 -9
-10 10 -12 17 -14 25 -6 5 5 19 10 30 9 17 0 14 -4 -11 -16 -35 -17 -42 -42
-20 -65 16 -16 16 -106 1 -116 -6 -4 -13 -15 -17 -24 -3 -10 -14 -18 -23 -18
-10 0 -14 -5 -11 -14 4 -10 1 -13 -9 -9 -7 3 -14 0 -14 -7 0 -6 -4 -9 -8 -6
-4 3 -16 -11 -27 -30 -12 -23 -25 -34 -41 -34 -13 0 -26 -5 -30 -11 -3 -6 -15
-9 -25 -6 -11 3 -17 1 -14 -4 3 -4 -11 -17 -31 -27 -34 -17 -35 -19 -19 -36
10 -9 15 -20 11 -23 -3 -4 -13 2 -22 13 -8 10 -13 14 -10 8 6 -12 -46 -64 -66
-64 -10 0 -9 -3 2 -11 10 -7 11 -12 4 -15 -8 -3 -10 -20 -7 -47 7 -49 19 -68
39 -60 9 3 14 -1 14 -12 0 -11 -5 -15 -15 -11 -9 3 -15 0 -15 -9 0 -19 17 -28
23 -13 3 7 6 4 6 -7 1 -12 -4 -26 -11 -33 -9 -9 -8 -12 6 -12 9 0 14 5 11 10
-3 6 1 10 9 10 9 0 16 -8 17 -17 0 -13 3 -11 11 7 10 24 10 24 18 5 5 -11 9
-14 9 -7 1 18 28 15 40 -5 9 -15 11 -13 11 12 1 17 4 24 7 18 2 -7 12 -13 21
-12 11 0 12 2 5 6 -28 11 -11 28 27 29 44 2 55 7 46 23 -4 6 -16 5 -33 -4 -36
-19 -49 -8 -24 19 12 12 18 26 14 29 -3 4 -4 7 0 7 3 0 13 -7 21 -16 13 -12
16 -12 16 -2 0 8 -5 19 -10 24 -7 7 -1 9 21 6 20 -3 35 0 41 9 6 10 7 7 3 -10
l-7 -24 22 21 c12 11 19 25 15 31 -3 6 1 11 10 11 12 0 16 -8 13 -32 -2 -18
-7 -36 -13 -40 -6 -5 -3 -8 6 -8 20 0 30 -21 22 -48 -2 -11 0 -23 5 -26 6 -4
8 2 5 14 -3 11 0 20 6 20 16 0 14 19 -4 36 -17 17 -20 34 -6 34 5 0 12 -8 14
-17 3 -10 5 -3 6 15 1 20 5 31 11 27 10 -6 7 -49 -6 -96 -3 -11 3 -19 18 -22
18 -5 20 -9 10 -19 -10 -10 -15 -10 -22 2 -8 13 -10 12 -10 -2 0 -13 -8 -18
-27 -18 -24 -1 -25 -2 -10 -11 9 -5 17 -14 17 -18 0 -13 -49 -19 -54 -7 -2 6
-5 3 -5 -7 -1 -16 4 -18 32 -12 l32 6 -25 -15 c-22 -13 -27 -13 -42 1 -10 9
-18 22 -18 28 0 16 -30 29 -41 18 -5 -5 -4 -15 1 -23 7 -10 10 -11 10 -2 0 22
18 13 24 -13 4 -14 11 -25 16 -25 6 0 10 -6 10 -12 -1 -7 -10 -2 -22 12 -15
18 -22 21 -26 11 -4 -11 -6 -11 -13 0 -6 10 -9 11 -9 2 0 -7 -12 -13 -27 -14
-25 0 -26 -1 -8 -9 19 -8 19 -9 -2 -9 -12 -1 -24 -5 -27 -9 -7 -12 -46 -8 -54
4 -14 20 -41 23 -52 6 -10 -15 -11 -14 -7 6 3 13 -3 31 -14 45 -16 19 -18 19
-19 5 0 -10 5 -18 10 -18 6 0 10 -7 10 -16 0 -8 -4 -12 -10 -9 -5 3 -10 2 -10
-3 0 -5 -11 -7 -25 -4 -19 3 -25 0 -26 -14 0 -16 -2 -16 -7 -3 -6 12 -11 13
-30 3 -17 -8 -20 -13 -10 -17 7 -3 -13 -4 -44 -2 -63 3 -70 0 -35 -16 19 -8
17 -9 -11 -4 -22 3 -31 1 -26 -6 4 -7 -1 -10 -12 -7 -10 2 -21 14 -25 28 -4
14 -7 20 -8 14 -1 -16 -73 -36 -85 -24 -16 16 -39 12 -32 -6 5 -13 2 -14 -11
-9 -28 12 -157 14 -164 3 -4 -6 -12 -7 -20 -2 -19 12 -33 12 -41 -1 -5 -6 -8
-3 -8 6 0 12 -9 16 -35 16 -22 -1 -34 -6 -31 -13 3 -7 -5 -9 -20 -6 -19 3 -23
1 -18 -11 4 -12 1 -14 -15 -10 -12 3 -21 9 -21 13 0 14 -31 20 -51 10 -13 -7
-19 -7 -19 0 0 5 -4 10 -10 10 -19 0 -10 -19 13 -26 12 -3 30 -13 39 -21 9 -8
22 -12 29 -7 8 5 11 2 6 -8 -4 -12 -1 -14 14 -11 10 3 19 1 19 -4 0 -5 14 -8
30 -5 26 4 29 2 24 -14 -5 -18 -5 -18 10 0 17 20 52 15 40 -6 -6 -10 -4 -11 7
0 17 16 59 16 59 -1 0 -14 72 -20 80 -7 6 10 39 14 100 11 33 -1 41 -4 30 -11
-8 -5 -10 -10 -5 -11 36 -4 85 -3 118 2 20 4 37 2 37 -2 0 -5 9 -9 20 -9 11 0
20 5 20 12 0 6 3 8 6 5 4 -4 1 -13 -6 -22 -10 -12 -8 -16 11 -24 13 -4 32 -5
43 -2 31 12 75 1 69 -16 -5 -12 -1 -14 15 -9 14 5 24 1 31 -11 8 -14 11 -15
12 -3 1 8 1 19 0 23 -1 8 27 -5 66 -31 19 -12 20 -16 8 -28 -7 -8 -19 -14 -25
-14 -6 0 -8 -5 -5 -10 4 -6 14 -8 24 -5 12 4 17 -1 17 -18 0 -12 -5 -26 -10
-30 -8 -6 -7 -10 2 -14 6 -2 10 -9 6 -14 -3 -5 -1 -9 4 -9 14 0 24 95 16 148
-7 48 -10 46 41 26 10 -4 15 0 15 14 0 11 -5 22 -11 24 -17 6 2 38 22 38 10 0
19 -4 19 -10 0 -5 -7 -10 -15 -10 -8 0 -15 -4 -15 -9 0 -5 8 -7 19 -4 14 3 22
-4 32 -26 8 -17 17 -31 20 -31 4 0 10 -11 13 -25 4 -16 11 -23 18 -19 9 6 9 9
0 12 -16 5 -15 29 2 35 10 4 13 -3 12 -26 -1 -17 -7 -32 -14 -35 -6 -2 -12 -8
-12 -13 0 -6 5 -7 12 -3 8 5 9 2 3 -12 -4 -10 -8 -27 -9 -36 0 -10 -4 -18 -8
-18 -5 0 -12 8 -15 18 -6 14 -8 13 -14 -8 -7 -25 -7 -25 -14 -3 -4 13 -11 20
-16 18 -4 -3 -5 -13 -2 -22 4 -11 3 -14 -5 -9 -7 4 -12 5 -12 2 0 -2 -3 -12
-6 -20 -5 -12 -2 -15 11 -9 19 7 19 -4 -1 -51 -5 -14 -4 -17 4 -12 7 4 12 2
12 -3 0 -13 -3 -13 -24 -5 -9 3 -13 10 -10 15 3 5 -2 9 -10 9 -9 0 -16 -4 -16
-8 0 -13 -75 -52 -99 -52 -27 0 -27 -15 0 -17 28 -2 27 -2 22 -41 -5 -30 -7
-31 -19 -15 -14 19 -17 11 -8 -24 4 -14 14 -23 26 -23 15 0 18 5 13 19 -3 11
-3 31 1 46 5 20 9 24 18 14 8 -8 8 -13 -2 -16 -10 -4 -10 -8 -1 -19 6 -8 8
-14 3 -14 -5 0 -3 -4 4 -8 22 -15 -3 -62 -33 -62 -16 0 -25 6 -25 15 0 21 -17
19 -30 -4 -14 -28 -13 -30 15 -25 14 2 25 0 25 -6 0 -5 -4 -10 -9 -10 -5 0
-12 -8 -15 -17 -6 -16 -6 -16 12 0 10 9 22 14 26 10 4 -5 6 -1 4 7 -2 9 6 16
22 18 19 2 22 1 10 -7 -8 -5 -12 -12 -9 -15 3 -3 17 6 32 19 14 14 29 25 32
25 26 0 -42 -72 -77 -80 -12 -3 -24 -12 -26 -19 -3 -10 2 -11 19 -5 13 4 34 7
46 6 15 -1 21 3 17 12 -3 8 0 17 6 21 14 8 41 -25 35 -42 -8 -22 20 -14 30 9
12 26 42 40 32 14 -5 -11 -1 -16 13 -16 10 0 22 -4 25 -10 3 -6 -4 -10 -17
-10 -21 0 -24 -5 -23 -39 0 -28 4 -37 14 -33 10 4 13 -2 9 -26 -2 -18 0 -32 5
-32 18 0 46 -32 40 -46 -3 -8 0 -14 6 -14 6 0 11 5 11 10 0 6 5 10 10 10 6 0
5 -8 -2 -20 -11 -17 -10 -22 2 -30 9 -6 10 -10 3 -10 -6 0 -19 7 -27 16 -9 8
-16 13 -16 11 0 -3 -3 -13 -7 -23 -5 -13 -3 -16 10 -11 9 3 17 3 17 -2 0 -4
14 -6 30 -3 30 4 38 -5 21 -23 -14 -16 -24 -68 -10 -60 8 5 7 1 -1 -15 -11
-20 -10 -22 4 -17 12 5 16 1 16 -15 0 -11 8 -27 17 -34 10 -7 15 -16 11 -20
-4 -4 -14 -2 -22 5 -11 9 -15 5 -20 -25 -7 -33 -8 -35 -21 -18 -12 17 -13 17
-12 -9 2 -23 7 -27 32 -28 17 -1 22 -3 12 -6 -12 -3 -15 -11 -11 -29 4 -15 2
-24 -6 -24 -6 0 -8 5 -5 10 3 6 -1 10 -10 10 -9 0 -13 -4 -10 -10 11 -17 -5
-31 -19 -17 -8 6 -12 15 -9 20 2 4 -1 7 -7 7 -6 0 -8 -10 -4 -25 4 -15 2 -25
-5 -25 -15 0 -14 -16 4 -33 7 -8 17 -26 21 -41 5 -21 3 -25 -9 -21 -8 4 -14
13 -13 22 0 9 -5 18 -13 21 -10 3 -11 -2 -6 -19 6 -19 5 -22 -6 -12 -9 10 -10
18 -1 37 8 19 8 25 -3 30 -17 6 -29 -10 -21 -29 3 -8 3 -15 1 -15 -2 0 -15 24
-29 52 l-25 53 -6 -32 c-7 -33 -48 -57 -43 -25 2 9 -5 18 -14 20 -10 2 -18 -1
-18 -7 0 -6 4 -11 9 -11 5 0 9 -13 9 -30 -1 -16 -5 -27 -10 -24 -5 3 -6 15 -2
27 5 18 4 20 -7 9 -16 -15 -49 -16 -49 -2 0 6 7 10 16 8 10 -2 19 3 21 10 7
18 -36 15 -43 -3 -5 -11 -11 -12 -25 -4 -24 13 -38 4 -36 -21 1 -23 17 -27 17
-5 0 16 16 20 24 6 6 -9 -34 -61 -47 -61 -5 0 -5 5 -2 10 3 6 -1 17 -9 26 -16
15 -21 9 -17 -22 1 -6 -6 -17 -14 -24 -12 -10 -15 -10 -15 4 0 9 -5 16 -10 16
-7 0 -8 -13 -4 -35 4 -23 2 -35 -5 -35 -6 0 -11 11 -11 25 0 24 -1 24 -18 8
-10 -10 -16 -25 -14 -34 2 -9 -1 -20 -7 -23 -6 -4 -11 0 -11 11 -1 17 -2 17
-15 -1 -14 -19 -15 -19 -15 5 0 36 -11 42 -28 17 -12 -16 -12 -23 -4 -26 7 -2
12 -8 12 -14 0 -6 -6 -8 -14 -5 -8 3 -17 -1 -20 -9 -3 -9 -10 -12 -16 -9 -5 3
-10 -1 -10 -9 0 -9 -4 -16 -10 -16 -5 0 -10 10 -10 23 -1 21 -1 22 -15 3 -9
-11 -15 -14 -15 -7 0 7 -7 19 -15 28 -8 8 -13 19 -10 24 4 5 -1 6 -9 3 -9 -3
-16 -10 -16 -15 0 -19 -19 -8 -23 14 -4 17 -5 16 -4 -5 1 -15 -2 -27 -6 -27
-5 0 -16 -9 -26 -20 -16 -18 -20 -19 -39 -5 -12 8 -27 12 -32 9 -6 -3 -10 1
-10 10 0 9 -7 23 -15 31 -13 13 -17 13 -33 -3 -42 -40 -72 -48 -72 -18 0 8 11
11 28 8 26 -3 26 -3 5 8 -24 12 -31 29 -13 29 6 0 10 7 10 15 0 22 -21 18 -27
-5 -3 -11 -9 -20 -13 -20 -5 0 -6 -19 -3 -42 3 -24 2 -39 -3 -35 -4 4 -9 15
-10 25 -2 9 -6 33 -10 52 -4 19 -6 41 -5 48 1 6 -3 12 -9 12 -5 0 -10 -5 -10
-11 0 -6 -7 -3 -16 5 -8 9 -22 16 -30 16 -8 0 -14 5 -14 10 0 6 5 10 10 10 6
0 10 8 10 18 0 13 -2 14 -9 4 -4 -8 -12 -14 -17 -15 -5 -1 -8 -14 -6 -28 2
-18 -3 -29 -20 -37 -15 -7 -18 -11 -8 -11 9 -1 21 4 28 11 9 9 12 8 12 -6 0
-12 5 -16 15 -12 10 4 15 -1 15 -14 0 -12 -5 -17 -14 -14 -9 3 -15 -4 -18 -20
-5 -26 5 -35 17 -16 11 18 23 11 18 -11 -4 -12 -11 -18 -20 -15 -51 20 -59 18
-57 -12 2 -36 -9 -56 -27 -50 -8 3 -22 1 -31 -3 -10 -6 -19 -5 -23 1 -3 5 3
10 13 10 15 0 20 6 18 24 0 13 -5 22 -9 19 -5 -3 -6 -12 -3 -20 5 -12 1 -14
-16 -11 -19 4 -23 0 -24 -23 -1 -23 4 -29 25 -31 24 -3 23 -4 -7 -9 -28 -5
-35 -2 -42 15 -8 19 -9 18 -16 -12 -3 -18 -11 -35 -16 -38 -6 -4 -7 2 -3 17 7
21 6 22 -9 10 -9 -7 -16 -9 -16 -4 0 5 -25 13 -55 19 -30 5 -55 6 -55 2 0 -4
12 -8 27 -8 19 0 24 -3 16 -11 -8 -8 -20 -6 -44 6 -18 10 -51 18 -74 20 -46 2
-68 12 -60 26 4 5 1 9 -4 9 -12 0 -14 -11 -5 -34 3 -9 12 -16 19 -16 8 0 21
-7 30 -16 12 -13 13 -19 4 -30 -7 -8 -9 -17 -6 -21 4 -3 9 2 13 11 7 17 64 23
64 6 0 -5 -8 -10 -18 -10 -10 0 -27 -7 -39 -15 -19 -13 -22 -13 -29 3 -4 9 -6
23 -5 31 1 7 -2 10 -9 6 -6 -4 -9 -20 -6 -38 3 -18 3 -25 -1 -17 -3 8 -11 18
-17 22 -8 5 -7 11 2 20 17 17 15 39 -3 32 -9 -4 -15 0 -16 7 0 8 -4 4 -9 -8
-12 -31 -38 -29 -46 2 -7 27 -34 35 -34 10 0 -8 -4 -15 -10 -15 -13 0 -13 13
0 26 7 7 2 18 -15 34 -18 17 -25 19 -25 9 0 -8 5 -20 12 -27 9 -9 9 -12 1 -12
-7 0 -14 9 -18 19 -4 15 -14 18 -43 17 -20 -1 -49 1 -64 5 -16 4 -28 4 -28 -2
0 -5 -8 -9 -17 -10 -14 0 -15 -2 -3 -6 8 -3 18 -11 23 -17 5 -8 11 -6 20 5 10
14 16 15 30 4 24 -17 21 -28 -3 -15 -19 10 -24 6 -21 -13 1 -5 -2 -7 -6 -5
-90 44 -121 63 -110 70 8 5 6 8 -8 9 -43 1 -77 8 -88 17 -7 5 -39 24 -72 42
-118 65 -225 171 -328 324 -78 114 -167 287 -167 323 0 12 -3 23 -8 23 -4 0
-13 14 -21 32 -8 17 -22 39 -32 49 -38 38 -89 120 -83 132 4 7 4 9 -1 5 -11
-10 -35 11 -35 30 0 8 -7 23 -16 33 -20 22 -65 149 -58 161 3 4 0 8 -5 8 -6 0
-11 11 -11 23 0 13 -8 39 -17 58 -21 42 -22 134 -4 296 12 103 12 141 1 238
-13 113 -22 141 -34 109 -5 -12 -14 -14 -38 -8 -28 6 -31 5 -20 -8 14 -18 6
-29 -15 -21 -12 5 -14 1 -8 -15 7 -24 -4 -29 -22 -11 -9 9 -13 5 -18 -17 -11
-51 -15 -56 -31 -50 -8 3 -12 2 -9 -3 7 -12 -66 -111 -82 -111 -7 0 -13 -4
-13 -9 0 -5 -13 -14 -30 -21 -16 -7 -30 -17 -30 -22 0 -5 -4 -7 -9 -3 -5 3
-12 1 -16 -5 -4 -6 -10 -8 -15 -5 -5 3 -40 -11 -77 -31 -52 -27 -75 -47 -97
-82 -49 -79 -47 -139 11 -277 28 -65 90 -174 109 -190 6 -5 33 -35 59 -65 26
-30 98 -107 160 -171 62 -65 119 -125 126 -135 19 -26 118 -116 213 -194 44
-36 92 -77 108 -91 15 -14 75 -66 133 -115 58 -49 105 -92 105 -96 0 -5 5 -8
10 -8 10 0 67 -52 259 -240 54 -52 129 -123 167 -157 116 -103 171 -157 175
-171 2 -7 16 -14 31 -15 26 -2 64 -33 123 -99 16 -18 29 -32 30 -30 0 2 7 0
17 -3 9 -4 22 -20 28 -36 7 -16 16 -29 20 -29 17 0 76 -56 72 -69 -3 -8 0 -11
6 -7 6 4 26 -10 44 -30 51 -57 82 -84 95 -84 7 0 13 -4 13 -10 0 -15 42 -60
57 -60 7 0 20 -11 29 -25 9 -14 33 -42 53 -63 20 -21 56 -61 80 -89 24 -28 55
-56 70 -63 14 -6 26 -11 26 -9 0 1 12 -9 28 -23 15 -14 27 -30 27 -35 0 -6 8
-14 18 -17 34 -13 72 -37 72 -47 0 -5 8 -17 19 -28 11 -11 21 -41 25 -75 6
-46 11 -56 26 -56 10 0 22 5 25 10 12 19 38 11 32 -10 -3 -11 -1 -20 4 -20 5
0 11 11 15 25 8 32 28 32 42 0 6 -14 16 -25 20 -25 5 0 17 -21 27 -47 10 -27
28 -62 40 -79 28 -36 95 -167 95 -183 0 -6 -7 -14 -15 -17 -8 -4 -13 -10 -10
-14 9 -14 -27 -100 -46 -111 -10 -5 -19 -20 -19 -32 0 -12 -8 -35 -18 -52 -10
-16 -22 -43 -26 -59 -12 -48 -35 -58 -74 -35 -18 10 -39 19 -47 19 -19 0 -8
-28 14 -35 25 -8 44 -66 31 -99 -12 -32 -20 -32 -51 -5 -13 12 -39 28 -56 35
-31 13 -39 30 -34 71 1 6 -3 15 -9 18 -6 4 -10 1 -9 -6 4 -22 -20 -71 -31 -64
-5 3 -13 20 -18 38 -8 30 -11 32 -50 29 -39 -3 -42 -1 -55 30 -10 22 -11 39
-5 51 5 10 6 22 2 25 -4 4 -9 1 -11 -5 -7 -20 -61 -15 -82 6 -10 10 -37 22
-60 26 -23 4 -41 11 -41 16 0 5 -6 9 -13 9 -8 0 -19 11 -26 24 -22 40 -90 62
-87 29 1 -13 -8 -19 -29 -21 -16 -2 -35 -8 -41 -13 -7 -6 -22 -4 -40 6 -16 8
-33 15 -39 15 -12 1 -85 67 -85 78 0 4 -14 16 -30 27 -16 11 -30 23 -30 28 0
13 -33 7 -52 -10 -10 -9 -18 -24 -18 -34 0 -10 -5 -21 -11 -24 -6 -4 -8 -13
-5 -21 3 -7 0 -16 -5 -20 -6 -4 0 -18 17 -35 20 -21 31 -26 44 -19 10 5 20 6
24 3 3 -3 6 0 6 8 1 9 8 5 21 -10 16 -19 17 -26 7 -33 -8 -6 -1 -7 19 -3 29 6
31 4 27 -17 -2 -13 -2 -18 1 -11 10 19 60 0 63 -25 3 -20 49 -67 106 -107 30
-21 89 -68 143 -113 48 -40 38 -69 -15 -43 -63 31 -88 46 -95 58 -4 7 -14 13
-22 13 -7 0 -16 6 -18 13 -4 8 -6 8 -6 0 -1 -6 10 -20 24 -31 14 -11 25 -25
25 -31 0 -6 11 -13 25 -17 14 -3 25 -10 25 -15 0 -5 6 -9 14 -9 7 0 21 -11 30
-25 15 -23 15 -25 -1 -25 -23 0 -62 26 -105 72 -20 20 -55 45 -79 56 -55 24
-147 106 -155 138 -3 13 -12 24 -20 24 -8 0 -14 6 -14 13 0 6 -12 20 -28 29
-15 10 -72 51 -127 93 -55 41 -113 82 -128 90 -37 21 -60 40 -125 102 -45 43
-54 57 -49 78 3 21 0 28 -19 35 -13 5 -24 13 -24 17 0 5 -18 28 -40 53 -22 25
-43 53 -46 63 -3 9 -9 17 -14 17 -4 0 -21 14 -37 31 -27 29 -108 89 -120 89
-3 0 -3 -13 1 -30 4 -22 2 -30 -8 -30 -8 0 -16 6 -19 13 -2 6 -7 9 -11 5 -8
-7 16 -49 48 -85 29 -33 11 -41 -22 -10 -37 35 -62 35 -62 0 0 -19 14 -39 48
-70 50 -47 75 -51 80 -15 2 14 10 22 23 22 19 0 19 1 5 22 -42 60 6 81 50 22
23 -29 25 -37 13 -45 -8 -5 -17 -9 -21 -9 -5 0 -8 -7 -8 -15 0 -8 -9 -15 -20
-15 -16 0 -20 -7 -20 -34 0 -28 4 -35 25 -40 16 -4 25 -13 25 -26 0 -30 -30
-22 -42 10 -7 18 -88 27 -88 10 0 -5 -13 -10 -29 -10 -32 0 -44 24 -34 70 4
22 -2 36 -29 66 -25 27 -40 35 -52 31 -13 -5 -16 -12 -10 -25 4 -9 8 -37 8
-62 1 -58 -19 -62 -100 -20 -44 24 -77 33 -129 37 -38 3 -86 13 -105 23 -20
10 -52 21 -73 24 -57 9 -74 22 -81 61 -4 20 -11 33 -17 30 -5 -4 -12 1 -15 9
-3 9 -12 16 -19 16 -7 0 -13 10 -13 23 -1 34 -14 87 -21 87 -4 0 -16 -7 -28
-15 -21 -15 -23 -14 -27 7 -3 13 -7 34 -8 48 -2 16 -10 26 -23 28 -11 2 -29
12 -40 22 -11 9 -28 20 -38 23 -9 4 -22 18 -29 32 -6 14 -15 25 -19 25 -4 0
-22 20 -38 44 -18 26 -41 46 -57 50 -15 4 -35 17 -46 29 -16 18 -19 19 -14 4
3 -10 6 -40 6 -67 0 -39 4 -49 20 -53 15 -4 20 -14 20 -42 0 -29 3 -36 15 -31
8 3 15 2 15 -2 0 -41 23 -127 41 -155 19 -29 26 -33 40 -24 24 15 49 -8 49
-44 0 -16 -3 -28 -7 -27 -14 2 -43 -14 -38 -22 2 -4 -19 -5 -48 -2 -42 4 -61
13 -98 44 -40 33 -52 38 -97 38 l-52 0 0 -44 c0 -39 -3 -45 -30 -56 -22 -9
-37 -10 -54 -2 -14 6 -39 7 -66 2 -24 -4 -48 -6 -54 -4 -6 2 -40 8 -76 13 -36
6 -76 13 -90 16 -23 6 -27 2 -43 -44 -28 -80 -101 -143 -207 -180 -36 -12 -76
-28 -90 -36 -15 -8 -57 -13 -104 -13 -43 -1 -82 -4 -85 -9 -19 -26 -40 -34
-60 -23 -26 13 -27 30 -3 31 13 0 12 2 -5 9 -15 6 -21 15 -17 25 4 9 1 15 -8
15 -22 0 -55 28 -43 37 6 5 12 17 13 28 2 11 8 24 13 29 13 14 11 26 -5 26 -7
0 -19 7 -26 15 -9 10 -9 15 -1 15 18 0 13 18 -7 24 -9 3 -42 8 -72 11 -84 8
-120 16 -114 26 3 5 -6 9 -19 9 -23 0 -110 70 -113 91 -1 5 -2 13 -3 17 0 5
-10 19 -21 32 -11 13 -20 28 -20 34 0 6 -8 19 -17 28 -35 33 -40 45 -37 96 2
32 -1 52 -7 52 -7 0 -9 -11 -5 -27 5 -25 4 -25 -12 6 l-17 33 33 28 c18 15 43
31 55 37 12 6 56 25 97 44 106 47 132 69 174 146 20 37 50 88 66 113 16 25 33
52 37 60 39 76 272 436 382 590 34 47 83 110 111 140 27 30 73 87 102 127 29
40 77 105 106 144 30 40 60 88 67 109 7 20 25 60 39 88 14 28 31 84 36 123 6
40 35 140 66 223 31 83 62 174 69 201 7 28 19 64 25 80 6 17 20 71 31 120 11
50 30 113 44 140 30 62 100 137 153 164 21 11 78 58 125 105 124 122 224 199
325 248 l89 43 1 76 1 76 -55 47 c-65 56 -86 96 -119 217 -13 50 -30 99 -38
108 -7 9 -40 48 -73 86 -33 39 -72 86 -86 105 -29 40 -88 154 -88 170 0 9 -34
89 -110 255 -16 35 -66 196 -113 365 -46 163 -46 376 -1 510 26 74 34 89 74
118 42 33 48 34 104 28 63 -6 175 -43 191 -62 19 -22 55 -24 65 -3 6 10 16 19
22 19 6 0 4 -8 -5 -18 -20 -22 -22 -33 -4 -27 17 7 40 62 33 80 -3 8 -1 15 3
15 9 0 11 39 5 78 -3 13 -9 20 -13 17 -5 -3 -7 -15 -5 -28 4 -20 3 -20 -7 3
-11 24 -11 24 -19 5 -8 -17 -9 -18 -9 -2 -1 10 5 20 12 23 7 2 12 19 12 37 -3
89 -11 98 -35 45 -11 -25 -15 -29 -18 -15 -2 10 3 28 11 41 13 20 13 23 0 32
-14 8 -14 13 -3 34 8 14 14 34 15 44 1 11 7 22 13 24 7 2 12 8 12 14 0 7 -5 6
-14 -1 -8 -7 -17 -8 -20 -3 -3 4 4 15 15 22 23 17 27 55 4 46 -8 -3 -15 0 -15
7 0 8 -4 7 -10 -3 -5 -8 -12 -11 -16 -7 -4 3 -1 14 6 23 11 12 11 20 2 35 -10
15 -9 19 2 19 8 0 16 6 19 14 6 16 -13 66 -25 66 -5 0 -8 4 -8 10 0 5 7 7 15
4 9 -4 15 0 15 10 0 12 -8 15 -31 12 -27 -3 -30 -1 -24 18 3 11 7 26 8 31 2 6
6 16 11 24 7 11 10 11 18 0 8 -11 9 -10 5 3 -3 9 1 24 8 35 8 10 14 25 15 33
0 8 -10 -1 -22 -20 -12 -19 -27 -38 -32 -42 -19 -13 -26 3 -13 30 9 17 11 39
7 60 -5 21 -4 32 4 33 6 0 2 4 -9 9 -11 5 -14 9 -7 9 7 1 11 5 7 10 -3 5 -1
12 5 16 6 4 8 10 5 15 -7 12 -54 -13 -48 -25 3 -5 0 -5 -7 2 -13 12 -5 37 10
28 11 -7 40 23 40 42 0 10 -6 13 -17 8 -14 -5 -15 -3 -6 6 6 6 9 17 6 25 -3 9
-12 5 -30 -14 -20 -21 -23 -23 -18 -7 4 11 10 28 12 38 3 9 10 17 17 17 7 0 6
3 -2 8 -13 9 -6 42 9 42 5 0 9 9 9 20 0 12 7 20 18 20 17 0 68 67 58 77 -3 3
-8 -2 -12 -11 -9 -24 -25 -19 -21 7 2 12 2 17 0 12 -2 -6 -12 -16 -23 -23 -19
-11 -20 -10 -19 25 0 29 2 33 8 18 7 -17 9 -15 19 15 6 19 14 59 18 88 4 28
10 52 15 52 5 0 9 5 9 11 0 5 -4 7 -10 4 -13 -8 -13 1 1 27 15 27 3 35 -20 14
-28 -26 -46 -15 -21 12 23 25 10 31 -14 6 -20 -20 -21 -44 -1 -44 18 0 19 -12
3 -28 -18 -18 -28 -15 -21 6 6 15 5 15 -10 3 -10 -8 -19 -12 -22 -10 -4 5 15
67 28 86 4 7 1 10 -10 8 -10 -2 -20 -4 -23 -4 -3 -1 -6 -16 -7 -34 -1 -19 -11
-49 -22 -68 -26 -43 -28 -16 -2 35 11 21 17 44 14 51 -2 8 8 27 24 42 16 16
28 34 26 40 -2 6 2 17 10 24 7 8 17 26 20 41 4 15 17 37 29 48 25 23 19 36
-11 20 -15 -8 -21 -8 -21 0 0 6 -5 8 -11 4 -8 -5 -8 -1 0 14 6 11 16 23 23 26
7 3 2 3 -12 -1 -34 -8 -70 -12 -70 -7 0 2 5 13 12 23 13 21 4 56 -12 46 -5 -3
-10 -2 -10 4 0 5 5 13 10 16 6 3 10 17 10 29 0 13 7 29 15 36 8 7 12 16 9 22
-3 5 -11 5 -19 -2 -10 -8 -15 -8 -20 1 -4 6 -4 14 1 18 5 3 15 17 22 30 12 20
12 25 0 32 -7 5 -18 9 -25 9 -6 0 -9 9 -6 20 3 13 14 20 28 20 13 0 25 7 28
14 4 10 1 13 -9 9 -9 -3 -14 1 -14 11 0 9 7 19 15 22 20 8 19 24 -1 24 -27 0
-9 24 26 36 19 6 36 16 38 23 2 6 9 11 16 11 6 0 41 26 78 58 119 104 122 106
112 64 -4 -12 -14 -24 -24 -27 -10 -3 -24 -12 -31 -21 -10 -12 -9 -13 4 -8 12
4 14 1 10 -15 -5 -20 -3 -20 36 6 22 14 41 31 41 36 0 5 6 7 14 4 9 -4 29 12
53 41 22 27 31 43 20 39 -9 -3 -17 -2 -17 3 0 6 5 10 10 10 6 0 10 8 10 17 0
13 -12 4 -41 -27 -41 -45 -48 -58 -26 -52 7 2 9 1 5 -3 -3 -4 -8 -5 -11 -3 -3
2 -13 -5 -24 -14 -18 -16 -18 -16 -18 25 1 49 11 71 30 64 6 -3 19 3 28 14 9
10 13 19 7 19 -5 0 -13 -7 -18 -16 -6 -10 -12 -13 -16 -6 -6 10 59 55 81 55 7
0 10 4 7 8 -2 4 4 13 15 18 29 16 38 13 15 -4 -19 -15 -19 -15 1 -9 11 4 26
14 33 22 6 9 12 12 12 6 0 -5 4 -4 8 2 11 17 52 28 52 14 0 -7 -9 -14 -20 -17
-11 -3 -17 -9 -14 -14 2 -5 -4 -14 -16 -21 -21 -13 -28 -38 -10 -38 6 0 10 5
10 11 0 5 4 8 9 5 5 -4 11 -2 13 3 1 5 17 13 33 17 17 4 27 4 23 0 -3 -4 -9
-7 -12 -7 -3 0 -20 -13 -37 -29 -18 -16 -36 -28 -40 -27 -4 1 -37 -28 -73 -65
-40 -42 -70 -66 -79 -62 -14 5 -57 -43 -57 -63 0 -4 -9 -14 -20 -21 -11 -7
-20 -19 -20 -27 0 -25 17 -17 40 20 12 19 31 40 41 46 11 5 17 14 14 20 -4 5
-2 8 4 7 5 -2 36 22 68 53 79 76 110 96 126 79 7 -7 7 -10 2 -7 -6 3 -26 -10
-44 -29 -35 -36 -35 -42 2 -23 27 15 81 59 72 59 -4 0 -2 7 5 15 18 21 35 19
19 -2 -13 -17 -13 -17 6 -3 11 8 26 21 33 28 8 6 22 17 33 23 11 5 19 15 17
22 -3 17 24 57 39 57 18 0 16 -10 -4 -33 -17 -19 -17 -20 0 -14 52 19 159 91
171 116 8 15 21 28 28 28 7 0 24 3 38 8 23 7 23 7 7 -9 -9 -10 -20 -15 -25
-12 -4 2 -9 -5 -9 -16 -2 -15 3 -19 18 -15 10 3 19 1 19 -4 0 -5 -7 -9 -15 -9
-8 0 -15 -7 -15 -16 0 -11 -6 -14 -20 -9 -12 4 -20 2 -20 -5 0 -6 -4 -9 -9 -6
-12 8 -9 -27 3 -36 5 -3 -2 -22 -17 -42 -34 -43 -34 -48 1 -40 36 9 45 18 45
49 0 19 2 23 8 14 7 -11 12 -9 25 10 16 22 18 23 30 6 11 -15 10 -20 -12 -37
-20 -16 -22 -23 -13 -34 9 -12 4 -14 -32 -15 -41 -1 -42 -2 -14 -9 17 -4 37
-10 45 -14 9 -4 26 4 42 19 15 14 31 25 36 25 5 0 15 7 23 16 9 12 10 17 1 23
-8 5 -6 12 8 24 11 9 20 14 20 11 0 -4 7 -1 15 6 8 7 15 8 15 3 0 -5 -11 -15
-24 -22 -16 -9 -22 -19 -19 -32 3 -10 0 -19 -6 -19 -5 0 -8 -7 -5 -15 4 -9 -1
-18 -11 -21 -9 -4 -14 -13 -11 -20 3 -9 -4 -16 -20 -20 -18 -5 -23 -11 -18
-23 3 -9 7 -21 7 -27 0 -6 15 4 34 22 32 32 44 52 23 39 -5 -3 -10 -1 -10 4 0
6 6 11 14 11 26 0 56 35 58 67 1 17 5 30 9 27 4 -2 10 2 12 8 3 7 6 1 6 -14 1
-21 6 -28 21 -28 11 0 20 4 20 9 0 6 18 31 41 57 30 35 37 49 27 55 -10 6 -10
11 -1 20 10 10 13 9 17 -2 14 -43 15 -44 21 -23 4 12 23 30 43 40 21 11 41 24
45 29 5 6 7 3 4 -7 -3 -9 0 -19 8 -22 10 -3 15 5 17 26 4 37 34 61 48 38 5 -8
10 -10 11 -5 1 6 2 15 4 20 1 6 3 13 3 18 3 11 12 8 39 -13z m-1337 6 c0 -3
-4 -8 -10 -11 -5 -3 -10 -1 -10 4 0 6 5 11 10 11 6 0 10 -2 10 -4z m847 -12
c-3 -3 -12 -4 -19 -1 -8 3 -5 6 6 6 11 1 17 -2 13 -5z m815 -36 c-7 -7 -12 -8
-12 -2 0 14 12 26 19 19 2 -3 -1 -11 -7 -17z m-1022 -18 c0 -5 -5 -10 -11 -10
-5 0 -7 5 -4 10 3 6 8 10 11 10 2 0 4 -4 4 -10z m-42 -40 c-7 -11 -16 -20 -20
-20 -11 0 -10 9 5 25 18 21 29 18 15 -5z m48 -16 c-11 -8 -25 -14 -30 -13 -6
0 -1 5 12 11 12 6 22 16 22 21 0 6 3 7 7 3 5 -4 -1 -14 -11 -22z m-216 -19
c-7 -8 -18 -15 -24 -15 -6 0 -2 7 8 15 25 19 32 19 16 0z m635 5 c3 -5 -6 -17
-20 -26 -20 -13 -29 -14 -38 -5 -8 8 -7 11 7 11 11 0 16 5 13 13 -5 15 29 21
38 7z m-465 -14 c0 -3 -4 -8 -10 -11 -5 -3 -10 -1 -10 4 0 6 5 11 10 11 6 0
10 -2 10 -4z m-160 -40 c0 -3 -4 -8 -10 -11 -5 -3 -10 -1 -10 4 0 6 5 11 10
11 6 0 10 -2 10 -4z m1868 -37 c-3 -20 -5 -19 -9 9 -3 20 -2 29 4 23 5 -5 7
-19 5 -32z m-2273 11 c-3 -5 -11 -10 -16 -10 -6 0 -7 5 -4 10 3 6 11 10 16 10
6 0 7 -4 4 -10z m2005 2 c0 -5 -7 -9 -15 -9 -8 0 -12 4 -9 9 3 4 9 8 15 8 5 0
9 -4 9 -8z m-2050 -31 c0 -11 -89 -45 -97 -37 -3 3 14 14 38 25 51 23 59 24
59 12z m2060 -11 c0 -5 -7 -7 -15 -4 -8 4 -15 8 -15 10 0 2 7 4 15 4 8 0 15
-4 15 -10z m-1665 -20 c-3 -5 -12 -10 -18 -10 -7 0 -6 4 3 10 19 12 23 12 15
0z m-299 -36 c-9 -9 -20 -14 -23 -10 -4 3 2 13 13 20 25 18 31 12 10 -10z
m2181 4 c-3 -8 -6 -5 -6 6 -1 11 2 17 5 13 3 -3 4 -12 1 -19z m-2322 2 c-11
-4 -36 -24 -54 -44 -23 -24 -41 -34 -52 -31 -10 3 -20 1 -24 -5 -8 -13 -25
-13 -25 0 0 12 49 34 68 31 6 -1 12 5 12 14 0 8 8 15 19 15 10 0 24 7 31 15 7
8 20 15 29 14 12 0 11 -2 -4 -9z m2412 -37 c-3 -10 -5 -4 -5 12 0 17 2 24 5
18 2 -7 2 -21 0 -30z m-2330 -8 c-7 -13 -22 -27 -35 -30 -12 -3 -31 -14 -42
-25 -11 -11 -20 -15 -20 -10 0 7 -7 7 -21 0 -24 -13 -34 -8 -26 15 4 10 20 15
47 15 30 0 40 4 40 16 0 9 6 14 12 12 7 -3 21 4 32 14 25 23 26 23 13 -7z
m2498 -25 c3 -5 1 -10 -4 -10 -6 0 -11 5 -11 10 0 6 2 10 4 10 3 0 8 -4 11
-10z m2 -52 c-3 -8 -6 -5 -6 6 -1 11 2 17 5 13 3 -3 4 -12 1 -19z m35 -3 c3
-13 1 -22 -3 -19 -9 5 -13 44 -5 44 2 0 6 -11 8 -25z m-2716 -13 c-5 -15 -1
-19 24 -19 40 0 50 -11 25 -29 -18 -13 -21 -13 -32 3 -12 15 -13 15 -13 0 0
-15 -35 -47 -52 -47 -13 0 -9 27 6 40 8 6 12 18 10 25 -6 14 14 44 29 45 5 0
6 -8 3 -18z m2834 -88 c0 -8 -5 -12 -10 -9 -6 4 -8 11 -5 16 9 14 15 11 15 -7z
m40 -24 c0 -5 -5 -10 -11 -10 -5 0 -7 5 -4 10 3 6 8 10 11 10 2 0 4 -4 4 -10z
m36 -48 c-4 -3 -14 2 -24 12 -16 18 -16 18 6 6 13 -6 21 -14 18 -18z m-6 -17
c7 -9 10 -18 6 -22 -3 -3 -6 -1 -6 5 0 7 -5 12 -11 12 -6 0 -8 -7 -5 -16 3 -9
1 -14 -5 -12 -6 2 -10 7 -10 11 1 4 1 14 1 22 0 19 14 19 30 0z m40 -45 c0 -5
-5 -10 -11 -10 -5 0 -7 5 -4 10 3 6 8 10 11 10 2 0 4 -4 4 -10z m330 -211 c0
-5 -4 -9 -10 -9 -5 0 -10 7 -10 16 0 8 5 12 10 9 6 -3 10 -10 10 -16z m-60
-39 c0 -11 -4 -20 -9 -20 -5 0 -7 9 -4 20 3 11 7 20 9 20 2 0 4 -9 4 -20z m83
0 c6 23 27 19 27 -5 0 -22 -33 -28 -47 -9 -7 10 -13 23 -13 28 1 6 7 0 14 -13
l13 -23 6 22z m-43 0 c0 -5 -4 -10 -10 -10 -5 0 -10 5 -10 10 0 6 5 10 10 10
6 0 10 -4 10 -10z m45 -50 c3 -5 -1 -10 -10 -10 -9 0 -13 5 -10 10 3 6 8 10
10 10 2 0 7 -4 10 -10z m-3345 -40 c0 -5 -5 -10 -11 -10 -5 0 -7 5 -4 10 3 6
8 10 11 10 2 0 4 -4 4 -10z m0 -54 c0 -3 -4 -8 -10 -11 -5 -3 -10 -1 -10 4 0
6 5 11 10 11 6 0 10 -2 10 -4z m3430 -141 c0 -8 -4 -15 -10 -15 -5 0 -10 7
-10 15 0 8 5 15 10 15 6 0 10 -7 10 -15z m-3338 -97 c-5 -21 -60 -118 -66
-118 -9 0 10 59 25 79 11 13 19 29 19 37 0 7 6 15 13 17 6 3 13 6 14 6 0 1 -1
-9 -5 -21z m-2 -78 c0 -5 -5 -10 -11 -10 -5 0 -7 5 -4 10 3 6 8 10 11 10 2 0
4 -4 4 -10z m3510 -33 c0 -5 -4 -5 -10 -2 -5 3 -10 14 -10 23 0 15 2 15 10 2
5 -8 10 -19 10 -23z m-3640 14 c0 -5 -7 -12 -16 -15 -14 -5 -15 -4 -4 9 14 17
20 19 20 6z m22 -53 c-7 -7 -12 -8 -12 -2 0 14 12 26 19 19 2 -3 -1 -11 -7
-17z m8 -43 c-7 -8 -16 -15 -21 -15 -5 0 -1 8 9 18 20 22 31 19 12 -3z m100
-19 c0 -3 -4 -8 -10 -11 -5 -3 -10 -1 -10 4 0 6 5 11 10 11 6 0 10 -2 10 -4z
m-80 -60 c0 -2 -8 -10 -17 -17 -16 -13 -17 -12 -4 4 13 16 21 21 21 13z m3590
-120 c0 -3 -4 -8 -10 -11 -5 -3 -10 -1 -10 4 0 6 5 11 10 11 6 0 10 -2 10 -4z
m130 -80 c0 -3 -4 -8 -10 -11 -5 -3 -10 -1 -10 4 0 6 5 11 10 11 6 0 10 -2 10
-4z m-3713 -28 c-3 -8 -6 -5 -6 6 -1 11 2 17 5 13 3 -3 4 -12 1 -19z m-27 -23
c0 -8 -4 -15 -10 -15 -5 0 -7 7 -4 15 4 8 8 15 10 15 2 0 4 -7 4 -15z m40
-216 c-7 -11 -14 -18 -17 -15 -3 3 0 12 7 21 18 21 23 19 10 -6z m90 -59 c0
-5 -5 -10 -11 -10 -5 0 -7 5 -4 10 3 6 8 10 11 10 2 0 4 -4 4 -10z m23 -380
c-3 -12 -8 -19 -11 -16 -5 6 5 36 12 36 2 0 2 -9 -1 -20z m3410 -117 c-7 -2
-19 -2 -25 0 -7 3 -2 5 12 5 14 0 19 -2 13 -5z m20 -26 c-3 -5 -11 -6 -19 -3
-7 3 -16 1 -19 -4 -10 -16 -25 -12 -19 5 4 8 17 13 34 12 15 -1 26 -6 23 -10z
m-4603 -499 c0 -18 -2 -20 -9 -8 -6 8 -7 18 -5 22 9 14 14 9 14 -14z m4844
-30 c-6 -21 -6 -21 10 -5 17 16 45 13 58 -7 3 -5 26 -11 49 -12 31 -1 45 -7
50 -20 4 -11 8 -13 8 -6 2 26 20 10 27 -22 4 -24 10 -33 20 -29 8 3 14 0 14
-7 0 -8 -10 -9 -32 -5 -18 4 -30 4 -26 0 11 -12 -73 -47 -99 -42 -13 2 -23 0
-23 -4 0 -13 -38 -11 -46 2 -4 7 -18 8 -38 4 -56 -13 -91 -14 -99 -2 -6 9 -10
9 -14 0 -2 -7 -14 -13 -26 -13 -19 1 -20 2 -7 13 10 8 14 25 12 48 -2 23 2 40
12 49 9 7 16 19 16 27 0 8 5 11 10 8 6 -4 7 -12 3 -18 -4 -7 0 -6 10 2 9 7 14
17 11 22 -3 5 5 9 18 9 18 0 20 -2 8 -10 -8 -5 -11 -10 -7 -10 12 0 49 21 65
37 19 19 24 16 16 -9z m-184 -103 c-6 -8 -9 -19 -5 -25 3 -5 -1 -10 -9 -10
-20 0 -20 9 1 32 19 21 31 25 13 3z m538 -165 c7 -12 10 -25 6 -31 -3 -6 2 -9
12 -7 11 2 22 10 26 18 5 11 7 9 7 -6 1 -14 -7 -24 -20 -27 -12 -3 -18 -10
-15 -16 5 -7 15 -7 32 -1 23 9 25 8 19 -12 -4 -13 -14 -29 -23 -35 -13 -11
-11 -13 19 -13 28 -1 31 -2 17 -11 -10 -5 -18 -18 -17 -27 0 -10 3 -12 6 -4 9
23 20 12 26 -25 4 -22 2 -40 -4 -44 -6 -3 1 -9 15 -13 19 -5 26 -13 26 -31 0
-14 6 -25 13 -26 6 0 4 -3 -5 -7 -16 -7 -16 -10 -3 -36 18 -35 19 -53 3 -59
-10 -3 -10 -9 -1 -24 9 -15 9 -23 0 -32 -6 -6 -7 -11 -3 -11 5 0 3 -7 -4 -15
-10 -12 -9 -16 5 -21 16 -6 15 -9 -6 -25 -23 -17 -23 -19 -4 -19 17 -1 17 -3
-5 -12 -15 -6 -20 -12 -12 -15 13 -5 17 -24 5 -22 -20 3 -24 -2 -13 -16 10
-12 7 -15 -16 -21 -25 -6 -26 -8 -10 -19 13 -10 14 -14 4 -18 -10 -4 -10 -8 2
-16 9 -6 10 -11 3 -11 -6 0 -19 -7 -27 -16 -14 -13 -16 -13 -16 0 0 8 8 16 18
18 14 3 13 5 -6 10 -12 3 -20 2 -17 -2 3 -5 0 -10 -7 -12 -8 -3 -8 -9 0 -23 7
-13 7 -26 1 -37 -12 -23 -33 -24 -25 -1 6 15 5 15 -13 -1 -11 -10 -25 -15 -31
-11 -7 4 -16 1 -21 -6 -7 -12 -9 -11 -10 1 0 11 -3 9 -8 -4 -6 -16 -9 -17 -22
-4 -8 8 -22 17 -32 21 -13 5 -17 13 -12 29 5 17 4 19 -4 8 -8 -12 -13 -12 -30
5 -25 21 -19 34 5 14 16 -13 16 -12 3 9 -8 12 -22 22 -32 22 -12 0 -17 5 -14
14 3 8 -1 17 -10 20 -10 4 -14 15 -11 31 4 16 1 25 -7 25 -7 0 -18 14 -24 30
-7 22 -7 30 2 30 7 0 6 4 -3 10 -8 5 -16 14 -16 20 -1 5 -3 11 -4 13 -1 1 -3
16 -4 32 -1 17 -5 36 -9 43 -5 7 -5 21 -2 32 4 11 2 20 -4 20 -6 0 -11 11 -11
24 0 14 -5 28 -11 31 -5 4 -8 12 -6 18 2 6 -5 20 -15 31 -10 11 -17 25 -16 30
1 6 -4 30 -11 53 -8 30 -16 41 -26 37 -17 -7 -20 11 -4 22 8 4 7 9 -2 15 -10
6 -10 13 -1 34 7 14 16 24 21 21 5 -3 12 1 15 10 9 23 7 31 -4 14 -5 -8 -12
-11 -17 -7 -14 15 22 26 62 21 37 -5 39 -4 21 10 -17 13 -4 15 133 13 83 -1
151 1 151 6 0 14 15 7 28 -13z m27 10 c-3 -5 -11 -10 -16 -10 -6 0 -7 5 -4 10
3 6 11 10 16 10 6 0 7 -4 4 -10z m-445 -59 c0 -10 -7 -22 -16 -25 -14 -6 -15
-4 -4 10 12 13 11 17 -1 25 -11 7 -11 9 4 9 10 0 17 -8 17 -19z m527 -143 c-3
-8 -6 -5 -6 6 -1 11 2 17 5 13 3 -3 4 -12 1 -19z m-1140 -250 c-3 -8 -6 -5 -6
6 -1 11 2 17 5 13 3 -3 4 -12 1 -19z m74 -235 c-8 -15 -10 -15 -11 -2 0 17 10
32 18 25 2 -3 -1 -13 -7 -23z m9 -59 c0 -8 -4 -12 -10 -9 -5 3 -10 10 -10 16
0 5 5 9 10 9 6 0 10 -7 10 -16z m901 -77 c-6 -8 -8 -17 -4 -20 10 -11 -20 -8
-37 3 -12 8 -11 10 7 10 12 0 25 5 28 10 3 6 9 10 12 10 3 0 0 -6 -6 -13z m49
3 c0 -5 -4 -10 -10 -10 -5 0 -10 5 -10 10 0 6 5 10 10 10 6 0 10 -4 10 -10z
m-780 -784 c0 -3 -4 -8 -10 -11 -5 -3 -10 -1 -10 4 0 6 5 11 10 11 6 0 10 -2
10 -4z m-69 -29 c-10 -9 -11 -8 -5 6 3 10 9 15 12 12 3 -3 0 -11 -7 -18z
m-361 -103 c0 -8 -5 -12 -10 -9 -6 4 -8 11 -5 16 9 14 15 11 15 -7z m-240 -54
c0 -5 -2 -10 -4 -10 -3 0 -8 5 -11 10 -3 6 -1 10 4 10 6 0 11 -4 11 -10z
m-195 -21 c-4 -5 -12 -9 -18 -8 -9 0 -8 2 1 6 6 2 9 10 6 15 -4 7 -2 8 5 4 6
-4 9 -12 6 -17z m-85 -39 c0 -5 -7 -7 -15 -4 -8 4 -15 8 -15 10 0 2 7 4 15 4
8 0 15 -4 15 -10z m30 0 c0 -5 -2 -10 -4 -10 -3 0 -8 5 -11 10 -3 6 -1 10 4
10 6 0 11 -4 11 -10z m628 -35 c-3 -3 -9 2 -12 12 -6 14 -5 15 5 6 7 -7 10
-15 7 -18z m208 -39 c21 -22 17 -27 -11 -14 -13 6 -22 15 -19 19 7 12 13 11
30 -5z m-241 -6 c3 -5 1 -10 -4 -10 -6 0 -11 5 -11 10 0 6 2 10 4 10 3 0 8 -4
11 -10z m52 -269 c-1 -11 -6 -17 -15 -14 -8 3 -15 -3 -19 -16 -6 -23 -11 -25
-33 -11 -12 7 -11 10 5 16 11 4 28 15 38 26 22 23 26 23 24 -1z m147 -103 c-8
-27 -12 -33 -19 -27 -7 8 7 49 17 49 5 0 6 -10 2 -22z m-94 -7 c0 -6 -4 -13
-10 -16 -5 -3 -10 1 -10 9 0 9 5 16 10 16 6 0 10 -4 10 -9z m-64 -47 c-4 -9
-9 -15 -11 -12 -3 3 -3 13 1 22 4 9 9 15 11 12 3 -3 3 -13 -1 -22z m64 8 c0
-5 -7 -9 -15 -9 -8 0 -15 4 -15 9 0 4 7 8 15 8 8 0 15 -4 15 -8z m50 -32 c0
-5 -4 -10 -10 -10 -5 0 -10 5 -10 10 0 6 5 10 10 10 6 0 10 -4 10 -10z m-40
-10 c0 -5 -2 -10 -4 -10 -3 0 -8 5 -11 10 -3 6 -1 10 4 10 6 0 11 -4 11 -10z
m83 -50 c-3 -12 -8 -19 -11 -16 -5 6 5 36 12 36 2 0 2 -9 -1 -20z m32 -30
c-12 -5 -14 -9 -6 -9 8 -1 12 -4 8 -7 -9 -9 -28 6 -22 17 4 5 14 9 23 8 14 0
13 -2 -3 -9z m-19 -101 c3 -6 1 -16 -6 -22 -10 -9 -12 -8 -7 5 3 9 1 19 -6 22
-9 3 -9 5 0 5 6 1 15 -4 19 -10z m19 -59 c3 -5 1 -10 -4 -10 -6 0 -11 5 -11
10 0 6 2 10 4 10 3 0 8 -4 11 -10z m68 -152 c-4 -7 -8 -19 -9 -26 -4 -26 -14
-25 -14 1 0 21 8 31 28 36 2 1 0 -5 -5 -11z m47 -42 c0 -8 -7 -16 -15 -20 -17
-6 -18 -4 -9 18 8 20 24 21 24 2z m85 -246 c3 -5 1 -10 -4 -10 -6 0 -11 5 -11
10 0 6 2 10 4 10 3 0 8 -4 11 -10z m-320 -64 c0 -13 -3 -22 -7 -19 -5 2 -8 13
-8 24 0 10 3 19 8 19 4 0 7 -11 7 -24z m165 14 c0 -5 -5 -10 -11 -10 -5 0 -7
5 -4 10 3 6 8 10 11 10 2 0 4 -4 4 -10z m-320 -25 c0 -8 -4 -15 -10 -15 -5 0
-10 7 -10 15 0 8 5 15 10 15 6 0 10 -7 10 -15z m-30 -35 c0 -5 -4 -10 -10 -10
-5 0 -10 5 -10 10 0 6 5 10 10 10 6 0 10 -4 10 -10z m150 0 c0 -5 -4 -10 -10
-10 -5 0 -10 5 -10 10 0 6 5 10 10 10 6 0 10 -4 10 -10z m-900 -10 c0 -5 -2
-10 -4 -10 -3 0 -8 5 -11 10 -3 6 -1 10 4 10 6 0 11 -4 11 -10z m840 -40 c-19
-12 -30 -12 -30 -1 0 10 31 20 40 14 2 -2 -2 -8 -10 -13z m-803 -22 c-3 -7 -5
-2 -5 12 0 14 2 19 5 13 2 -7 2 -19 0 -25z m893 2 c0 -5 -2 -10 -4 -10 -3 0
-8 5 -11 10 -3 6 -1 10 4 10 6 0 11 -4 11 -10z m-870 -25 c0 -8 -4 -15 -10
-15 -5 0 -7 7 -4 15 4 8 8 15 10 15 2 0 4 -7 4 -15z m143 1 c4 -10 1 -13 -9
-9 -7 3 -14 9 -14 14 0 14 17 10 23 -5z m-38 -26 c-3 -5 -10 -10 -16 -10 -5 0
-9 5 -9 10 0 6 7 10 16 10 8 0 12 -4 9 -10z m430 0 c3 -5 1 -10 -4 -10 -6 0
-11 5 -11 10 0 6 2 10 4 10 3 0 8 -4 11 -10z m-95 -10 c0 -5 -5 -10 -11 -10
-5 0 -7 5 -4 10 3 6 8 10 11 10 2 0 4 -4 4 -10z m-177 -21 c-6 -6 -19 -9 -29
-6 -16 4 -15 5 4 6 12 0 22 6 22 13 0 6 3 8 7 5 4 -4 2 -12 -4 -18z m96 -10
c-7 -4 -17 -5 -22 -2 -5 3 -3 9 4 14 7 4 17 5 22 2 5 -3 3 -9 -4 -14z m51 3
c0 -11 43 -10 51 2 4 4 15 3 26 -2 14 -8 23 -8 32 1 9 9 16 9 31 -1 12 -7 20
-8 20 -2 0 5 5 10 10 10 6 0 10 -9 10 -20 0 -17 -4 -18 -25 -10 -31 12 -111
-3 -82 -15 10 -4 28 -3 40 2 25 11 47 7 47 -9 0 -6 -6 -6 -15 2 -9 7 -15 8
-15 2 0 -5 -20 -12 -45 -14 -25 -2 -45 0 -45 4 0 5 -5 8 -11 8 -16 0 -59 36
-52 44 9 9 23 7 23 -2z m220 4 c0 -11 -19 -15 -25 -6 -3 5 1 10 9 10 9 0 16
-2 16 -4z m30 0 c0 -3 -4 -8 -10 -11 -5 -3 -10 -1 -10 4 0 6 5 11 10 11 6 0
10 -2 10 -4z m-730 -16 c0 -5 -9 -10 -21 -10 -11 0 -17 5 -14 10 3 6 13 10 21
10 8 0 14 -4 14 -10z m50 -10 c0 -5 -2 -10 -4 -10 -3 0 -8 5 -11 10 -3 6 -1
10 4 10 6 0 11 -4 11 -10z m350 -20 c-24 -15 -37 -11 -16 5 11 8 22 12 25 9 3
-3 -1 -9 -9 -14z m-1085 -10 c3 -5 -1 -10 -9 -10 -9 0 -16 5 -16 10 0 6 4 10
9 10 6 0 13 -4 16 -10z m655 -43 c0 -5 -4 -5 -10 -2 -5 3 -10 14 -10 23 0 15
2 15 10 2 5 -8 10 -19 10 -23z m617 27 c-3 -3 -12 -4 -19 -1 -8 3 -5 6 6 6 11
1 17 -2 13 -5z m-50 -19 c0 -8 -4 -12 -9 -9 -5 3 -6 10 -3 15 9 13 12 11 12
-6z m106 8 c-7 -2 -19 -2 -25 0 -7 3 -2 5 12 5 14 0 19 -2 13 -5z m-1013 -13
c0 -5 -9 -10 -21 -10 -11 0 -17 5 -14 10 3 6 13 10 21 10 8 0 14 -4 14 -10z
m104 -19 c17 -6 17 -8 3 -14 -8 -3 -21 1 -27 9 -13 15 -6 17 24 5z m-249 -21
c-10 -11 -20 -18 -23 -15 -7 6 18 35 31 35 5 0 2 -9 -8 -20z m135 -34 c0 -11
-19 -15 -25 -6 -3 5 1 10 9 10 9 0 16 -2 16 -4z m-55 -26 c-3 -5 -10 -10 -16
-10 -5 0 -9 5 -9 10 0 6 7 10 16 10 8 0 12 -4 9 -10z m41 -37 c-6 -6 -36 9
-36 18 0 5 9 4 20 -3 10 -7 18 -14 16 -15z m214 -7 c0 -3 -4 -8 -10 -11 -5 -3
-10 -1 -10 4 0 6 5 11 10 11 6 0 10 -2 10 -4z m-105 -44 c-3 -3 -11 0 -18 7
-9 10 -8 11 6 5 10 -3 15 -9 12 -12z m2425 -222 c0 -16 5 -32 10 -35 6 -4 10
10 10 34 0 40 1 41 35 41 21 0 35 -5 36 -12 1 -7 3 -53 5 -103 3 -49 7 -110 9
-135 3 -25 7 -169 9 -321 3 -174 10 -316 20 -385 8 -60 18 -136 21 -169 10
-120 25 -261 35 -325 10 -71 8 -83 -11 -48 -6 12 -18 27 -25 31 -8 4 -14 16
-14 26 0 10 -7 24 -14 31 -8 6 -20 28 -27 48 -24 74 -122 267 -155 306 -41 48
-84 131 -84 163 0 13 -9 41 -19 62 -11 20 -29 66 -41 102 -12 35 -28 71 -36
79 -7 9 -19 39 -25 68 -7 30 -18 52 -26 52 -7 0 -19 15 -27 33 -8 17 -37 55
-64 84 -57 58 -57 56 -7 188 38 100 83 165 115 165 6 0 20 5 33 12 40 20 52
23 81 20 18 -2 30 -11 33 -23 4 -14 11 -17 29 -13 18 5 24 2 24 -11 0 -9 5
-13 11 -9 6 3 9 19 5 35 -5 24 -2 29 14 29 11 0 20 5 20 11 0 5 5 7 10 4 6 -3
10 -19 10 -35z m-1010 -94 c0 -3 -4 -8 -10 -11 -5 -3 -10 -1 -10 4 0 6 5 11
10 11 6 0 10 -2 10 -4z m-10 -36 c0 -5 -4 -10 -10 -10 -5 0 -10 5 -10 10 0 6
5 10 10 10 6 0 10 -4 10 -10z m-1170 -250 c0 -5 -4 -10 -10 -10 -5 0 -10 5
-10 10 0 6 5 10 10 10 6 0 10 -4 10 -10z m1110 -86 c0 -8 -4 -12 -10 -9 -5 3
-10 10 -10 16 0 5 5 9 10 9 6 0 10 -7 10 -16z m-992 -69 c-3 -3 -9 2 -12 12
-6 14 -5 15 5 6 7 -7 10 -15 7 -18z m422 -279 c0 -20 -24 -36 -39 -26 -8 4
-11 15 -8 24 8 20 47 21 47 2z m-30 -61 c10 -12 10 -15 -4 -15 -9 0 -16 7 -16
15 0 8 2 15 4 15 2 0 9 -7 16 -15z m858 -36 c19 -29 1 -45 -22 -20 -10 11 -15
25 -11 30 9 16 19 13 33 -10z m-228 -23 c6 -8 21 -16 33 -18 30 -4 36 -38 6
-38 -23 0 -89 36 -89 49 0 23 32 28 50 7z m-3270 -32 c0 -8 -2 -14 -4 -14 -2
0 -11 -3 -19 -6 -8 -3 -17 2 -21 11 -3 9 -2 13 4 10 6 -3 13 1 16 9 7 18 24
11 24 -10z m2822 -6 c13 -13 17 -23 10 -26 -17 -5 -52 17 -52 33 0 21 17 18
42 -7z m-76 -24 c31 -21 55 -45 58 -60 9 -34 -1 -47 -26 -33 -19 10 -20 9 -14
-12 12 -38 12 -44 1 -48 -5 -3 -12 4 -13 15 -2 10 -13 28 -23 40 -11 11 -22
31 -24 44 -3 13 -11 28 -20 32 -18 11 -20 58 -3 58 7 0 36 -16 64 -36z m165
-25 c16 -11 29 -27 29 -35 0 -8 5 -13 11 -11 6 1 13 -3 16 -10 6 -17 -78 15
-99 37 -39 41 -7 55 43 19z m-2021 1 c0 -5 -4 -10 -10 -10 -5 0 -10 5 -10 10
0 6 5 10 10 10 6 0 10 -4 10 -10z m-2525 -140 c3 -5 2 -10 -4 -10 -5 0 -13 5
-16 10 -3 6 -2 10 4 10 5 0 13 -4 16 -10z m963 -43 c2 -10 -3 -17 -12 -17 -10
0 -16 9 -16 21 0 24 23 21 28 -4z m-338 -108 c0 -20 -15 -26 -24 -10 -8 13 4
42 15 35 5 -3 9 -14 9 -25z m-383 15 c-3 -3 -12 -4 -19 -1 -8 3 -5 6 6 6 11 1
17 -2 13 -5z m433 -3 c0 -6 -4 -13 -10 -16 -5 -3 -10 1 -10 9 0 9 5 16 10 16
6 0 10 -4 10 -9z m2830 -136 c21 -25 1 -31 -22 -7 -18 18 -19 22 -6 22 8 0 21
-7 28 -15z m1610 -125 c0 -5 -7 -10 -15 -10 -8 0 -15 5 -15 10 0 6 7 10 15 10
8 0 15 -4 15 -10z m-2974 -37 c15 -20 19 -93 6 -93 -29 0 -60 72 -40 94 17 19
18 19 34 -1z m119 -139 c0 -26 -3 -29 -37 -32 -21 -2 -38 -1 -38 1 0 12 56 67
65 64 5 -2 10 -17 10 -33z m202 -29 c7 -20 0 -27 -20 -19 -9 3 -13 12 -10 20
7 19 22 18 30 -1z m1609 -56 c3 -6 3 -13 0 -16 -7 -7 -66 46 -66 60 0 9 56
-28 66 -44z m-1650 -8 c-13 -20 -26 -11 -26 16 0 25 1 26 16 11 9 -9 13 -21
10 -27z m1359 -62 c9 -27 4 -30 -19 -14 -10 8 -15 18 -11 24 10 17 23 13 30
-10z m-1241 -71 c9 -44 8 -58 -5 -58 -5 0 -8 4 -4 9 3 6 -1 13 -8 18 -15 9
-30 57 -21 66 13 12 32 -6 38 -35z m936 -70 c0 -6 -6 -5 -15 2 -8 7 -15 14
-15 16 0 2 7 1 15 -2 8 -4 15 -11 15 -16z m115 -50 c37 -15 145 -122 145 -143
0 -25 -54 10 -97 63 -20 24 -54 52 -77 62 -23 9 -47 24 -54 33 -12 14 -10 15
20 7 18 -6 47 -15 63 -22z m381 -249 c15 -16 24 -32 21 -36 -4 -3 -34 6 -68
22 -50 25 -58 31 -45 41 23 17 60 6 92 -27z"/>
<path d="M5480 9840 c0 -13 11 -13 30 0 12 8 11 10 -7 10 -13 0 -23 -4 -23
-10z"/>
<path d="M5528 9823 c7 -3 16 -2 19 1 4 3 -2 6 -13 5 -11 0 -14 -3 -6 -6z"/>
<path d="M5578 9783 c7 -3 16 -2 19 1 4 3 -2 6 -13 5 -11 0 -14 -3 -6 -6z"/>
<path d="M4710 9769 c0 -5 5 -7 10 -4 6 3 10 8 10 11 0 2 -4 4 -10 4 -5 0 -10
-5 -10 -11z"/>
<path d="M5484 9771 c5 -8 56 -3 56 5 0 2 -14 4 -31 4 -16 0 -28 -4 -25 -9z"/>
<path d="M5586 9755 c4 -8 8 -15 10 -15 2 0 4 7 4 15 0 8 -4 15 -10 15 -5 0
-7 -7 -4 -15z"/>
<path d="M4645 9720 c-3 -5 -1 -10 4 -10 6 0 11 5 11 10 0 6 -2 10 -4 10 -3 0
-8 -4 -11 -10z"/>
<path d="M5535 9710 c3 -5 8 -10 11 -10 2 0 4 5 4 10 0 6 -5 10 -11 10 -5 0
-7 -4 -4 -10z"/>
<path d="M4555 9680 c-33 -15 -119 -96 -108 -103 11 -7 72 33 73 48 1 6 15 21
32 34 25 20 32 22 40 10 8 -12 9 -12 6 0 -5 19 -18 22 -43 11z"/>
<path d="M4665 9670 c-10 -11 -16 -22 -13 -25 3 -3 13 6 22 20 20 30 16 32 -9
5z"/>
<path d="M4626 9653 c-6 -14 -5 -15 5 -6 7 7 10 15 7 18 -3 3 -9 -2 -12 -12z"/>
<path d="M4263 9635 c-8 -8 -9 -16 -3 -20 5 -3 14 4 20 15 12 23 1 26 -17 5z"/>
<path d="M4611 9609 c-13 -11 -22 -21 -20 -24 7 -7 52 19 57 33 6 18 -9 14
-37 -9z"/>
<path d="M4553 9601 c3 -14 1 -18 -10 -14 -11 4 -14 2 -11 -8 3 -8 -1 -22 -9
-31 -13 -15 -13 -16 5 -11 12 3 24 12 28 21 12 28 14 62 2 62 -6 0 -8 -9 -5
-19z"/>
<path d="M6167 9599 c7 -7 15 -10 18 -7 3 3 -2 9 -12 12 -14 6 -15 5 -6 -5z"/>
<path d="M4650 9575 c-7 -9 -8 -15 -2 -15 5 0 12 7 16 15 3 8 4 15 2 15 -2 0
-9 -7 -16 -15z"/>
<path d="M4730 9581 c0 -12 28 -22 35 -12 3 5 -2 12 -11 15 -21 8 -24 8 -24
-3z"/>
<path d="M4396 9561 c-3 -5 5 -8 19 -7 14 0 25 4 25 9 0 10 -38 9 -44 -2z"/>
<path d="M6070 9540 c0 -5 5 -10 11 -10 5 0 7 5 4 10 -3 6 -8 10 -11 10 -2 0
-4 -4 -4 -10z"/>
<path d="M6292 9530 c0 -14 2 -19 5 -12 2 6 2 18 0 25 -3 6 -5 1 -5 -13z"/>
<path d="M4545 9520 c-10 -11 -14 -20 -9 -20 12 1 44 25 44 34 0 12 -17 6 -35
-14z"/>
<path d="M4496 9494 c-9 -24 -7 -28 7 -15 8 6 18 7 23 3 4 -4 2 1 -5 11 -16
21 -17 21 -25 1z"/>
<path d="M4754 9495 c-10 -8 -14 -15 -8 -15 6 0 17 7 24 15 16 19 9 19 -16 0z"/>
<path d="M4786 9475 c-3 -8 -1 -15 3 -15 5 0 11 7 15 15 3 8 1 15 -3 15 -5 0
-11 -7 -15 -15z"/>
<path d="M4437 9457 c3 -5 -3 -14 -12 -21 -10 -7 -16 -17 -14 -22 2 -6 19 4
38 22 33 32 33 32 8 31 -14 -1 -23 -6 -20 -10z"/>
<path d="M4000 9427 c0 -6 -10 -21 -22 -34 -12 -13 -16 -23 -10 -23 7 0 17 9
24 20 14 22 38 27 38 8 0 -9 4 -8 10 2 15 23 12 27 -15 32 -14 3 -25 1 -25 -5z"/>
<path d="M4375 9430 c-3 -5 -1 -10 4 -10 6 0 11 5 11 10 0 6 -2 10 -4 10 -3 0
-8 -4 -11 -10z"/>
<path d="M3996 9338 c5 -17 3 -20 -14 -16 -15 4 -22 0 -26 -16 -9 -32 -7 -46
5 -46 5 0 7 5 3 12 -5 8 -2 9 9 5 21 -8 69 37 61 57 -3 8 -14 16 -25 19 -16 4
-19 2 -13 -15z"/>
<path d="M3860 9339 c0 -5 5 -7 10 -4 6 3 10 8 10 11 0 2 -4 4 -10 4 -5 0 -10
-5 -10 -11z"/>
<path d="M4470 9323 c-13 -15 -12 -16 4 -10 10 4 22 7 27 7 5 0 9 5 9 10 0 15
-23 11 -40 -7z"/>
<path d="M3890 9310 c0 -11 5 -20 10 -20 6 0 10 9 10 20 0 11 -4 20 -10 20 -5
0 -10 -9 -10 -20z"/>
<path d="M4261 9310 c-13 -11 -19 -20 -14 -20 6 0 18 9 28 20 23 25 17 25 -14
0z"/>
<path d="M6560 9319 c0 -5 5 -7 10 -4 6 3 10 8 10 11 0 2 -4 4 -10 4 -5 0 -10
-5 -10 -11z"/>
<path d="M3920 9232 c-13 -11 -20 -24 -16 -31 11 -16 26 -3 19 16 -4 10 -2 14
5 9 6 -3 14 -1 17 5 12 19 -2 20 -25 1z"/>
<path d="M3846 9203 c-6 -14 -5 -15 5 -6 7 7 10 15 7 18 -3 3 -9 -2 -12 -12z"/>
<path d="M4056 9204 c-4 -9 -4 -19 -1 -22 2 -3 7 3 11 12 4 9 4 19 1 22 -2 3
-7 -3 -11 -12z"/>
<path d="M3950 9200 c-9 -6 -10 -10 -3 -10 6 0 15 5 18 10 8 12 4 12 -15 0z"/>
<path d="M3846 9171 c-16 -17 -16 -19 0 -25 19 -7 57 21 48 35 -9 15 -30 10
-48 -10z"/>
<path d="M6735 9151 c-3 -5 -1 -12 5 -16 5 -3 10 1 10 9 0 18 -6 21 -15 7z"/>
<path d="M3871 9069 c-23 -23 -40 -43 -37 -46 3 -3 12 0 20 6 8 7 21 9 27 5 8
-5 9 -3 4 5 -4 8 1 21 14 32 18 17 28 39 18 39 -2 0 -22 -18 -46 -41z"/>
<path d="M6854 9015 c-9 -37 -1 -51 18 -32 9 10 14 25 11 37 -7 27 -21 25 -29
-5z"/>
<path d="M5140 9009 c0 -5 5 -7 10 -4 6 3 10 8 10 11 0 2 -4 4 -10 4 -5 0 -10
-5 -10 -11z"/>
<path d="M6910 9000 c0 -5 5 -10 10 -10 6 0 10 5 10 10 0 6 -4 10 -10 10 -5 0
-10 -4 -10 -10z"/>
<path d="M3992 8964 c-7 -8 -8 -14 -3 -14 10 0 25 19 20 25 -2 1 -10 -3 -17
-11z"/>
<path d="M6872 8961 c-10 -6 -10 -10 1 -20 12 -9 16 -8 20 3 7 19 -4 27 -21
17z"/>
<path d="M6815 8890 c-3 -5 -2 -10 4 -10 5 0 13 5 16 10 3 6 2 10 -4 10 -5 0
-13 -4 -16 -10z"/>
<path d="M6820 8860 c0 -5 5 -10 10 -10 6 0 10 5 10 10 0 6 -4 10 -10 10 -5 0
-10 -4 -10 -10z"/>
<path d="M7120 8835 c12 -15 30 -12 30 6 0 5 -10 9 -21 9 -18 0 -19 -2 -9 -15z"/>
<path d="M7170 8800 c-12 -8 -10 -10 8 -10 13 0 20 4 17 10 -7 12 -6 12 -25 0z"/>
<path d="M3905 8730 c-3 -5 3 -10 15 -10 12 0 18 5 15 10 -3 6 -10 10 -15 10
-5 0 -12 -4 -15 -10z"/>
<path d="M6880 8699 c0 -5 5 -7 10 -4 6 3 10 8 10 11 0 2 -4 4 -10 4 -5 0 -10
-5 -10 -11z"/>
<path d="M3940 8659 c0 -5 5 -7 10 -4 6 3 10 8 10 11 0 2 -4 4 -10 4 -5 0 -10
-5 -10 -11z"/>
<path d="M7175 8590 c3 -5 13 -10 21 -10 8 0 12 5 9 10 -3 6 -13 10 -21 10 -8
0 -12 -4 -9 -10z"/>
<path d="M7141 8581 c-10 -6 -10 -10 -1 -16 7 -4 9 -17 6 -31 -4 -14 -2 -24 4
-24 5 0 10 18 10 40 0 22 -1 40 -2 40 -2 0 -9 -4 -17 -9z"/>
<path d="M7115 8549 c-4 -6 -5 -12 -2 -15 2 -3 7 2 10 11 7 17 1 20 -8 4z"/>
<path d="M3960 8484 c0 -8 5 -12 10 -9 6 4 8 11 5 16 -9 14 -15 11 -15 -7z"/>
<path d="M6888 8483 c7 -3 16 -2 19 1 4 3 -2 6 -13 5 -11 0 -14 -3 -6 -6z"/>
<path d="M6950 8470 c0 -5 9 -10 20 -10 11 0 20 5 20 10 0 6 -9 10 -20 10 -11
0 -20 -4 -20 -10z"/>
<path d="M7045 8470 c-3 -5 -1 -10 4 -10 6 0 11 5 11 10 0 6 -2 10 -4 10 -3 0
-8 -4 -11 -10z"/>
<path d="M7250 8465 c7 -9 15 -13 17 -11 7 7 -7 26 -19 26 -6 0 -6 -6 2 -15z"/>
<path d="M6820 8449 c0 -5 5 -7 10 -4 6 3 10 8 10 11 0 2 -4 4 -10 4 -5 0 -10
-5 -10 -11z"/>
<path d="M6737 8429 c-13 -15 -14 -19 -3 -19 17 0 40 26 28 34 -5 3 -16 -4
-25 -15z"/>
<path d="M6645 8420 c-3 -5 7 -7 26 -5 42 5 50 15 11 15 -17 0 -33 -4 -37 -10z"/>
<path d="M7185 8400 c3 -5 8 -10 11 -10 2 0 4 5 4 10 0 6 -5 10 -11 10 -5 0
-7 -4 -4 -10z"/>
<path d="M4177 8381 c-4 -17 -3 -21 5 -13 5 5 8 16 6 23 -3 8 -7 3 -11 -10z"/>
<path d="M7160 8366 c0 -2 7 -9 15 -16 12 -10 15 -10 15 4 0 9 -7 16 -15 16
-8 0 -15 -2 -15 -4z"/>
<path d="M7275 8250 c-3 -5 -1 -10 4 -10 6 0 11 5 11 10 0 6 -2 10 -4 10 -3 0
-8 -4 -11 -10z"/>
<path d="M6965 8144 c-38 -12 -38 -12 -10 -13 17 0 37 3 45 9 24 15 7 17 -35
4z"/>
<path d="M6258 8133 c6 -2 18 -2 25 0 6 3 1 5 -13 5 -14 0 -19 -2 -12 -5z"/>
<path d="M6308 8133 c6 -2 18 -2 25 0 6 3 1 5 -13 5 -14 0 -19 -2 -12 -5z"/>
<path d="M6835 8130 l-30 -8 30 0 c17 0 44 4 60 8 l30 8 -30 0 c-16 0 -43 -4
-60 -8z"/>
<path d="M6723 8113 c9 -2 23 -2 30 0 6 3 -1 5 -18 5 -16 0 -22 -2 -12 -5z"/>
<path d="M4000 8049 c0 -5 5 -7 10 -4 6 3 10 8 10 11 0 2 -4 4 -10 4 -5 0 -10
-5 -10 -11z"/>
<path d="M4006 7985 c-8 -23 -9 -22 19 -22 15 0 25 5 25 14 0 8 -5 11 -11 7
-6 -3 -15 -1 -19 6 -5 8 -9 7 -14 -5z"/>
<path d="M4395 7950 c-3 -6 1 -7 9 -4 18 7 21 14 7 14 -6 0 -13 -4 -16 -10z"/>
<path d="M4013 7923 c-7 -15 -11 -28 -9 -31 6 -6 28 38 24 48 -2 5 -9 -3 -15
-17z"/>
<path d="M3995 7810 c0 -32 3 -61 6 -65 4 -3 4 5 2 18 -3 14 0 28 6 31 15 9
13 37 -2 58 -11 13 -13 7 -12 -42z"/>
<path d="M6635 7860 c-3 -5 -18 -10 -33 -10 -15 0 -34 -5 -42 -11 -11 -8 -6
-9 22 -5 21 2 40 0 43 -5 4 -5 23 -9 43 -8 36 1 36 1 10 10 -17 7 -25 15 -21
25 6 16 -12 19 -22 4z"/>
<path d="M4360 7810 c0 -5 5 -10 10 -10 6 0 10 5 10 10 0 6 -4 10 -10 10 -5 0
-10 -4 -10 -10z"/>
<path d="M7406 7761 c-4 -7 -5 -15 -2 -18 9 -9 19 4 14 18 -4 11 -6 11 -12 0z"/>
<path d="M3947 7733 c-4 -3 -7 -11 -7 -17 0 -6 5 -5 12 2 6 6 9 14 7 17 -3 3
-9 2 -12 -2z"/>
<path d="M7405 7710 c4 -6 11 -8 16 -5 14 9 11 15 -7 15 -8 0 -12 -5 -9 -10z"/>
<path d="M6696 7634 c-3 -9 -6 -26 -6 -39 0 -13 -4 -26 -9 -30 -5 -3 -12 -19
-16 -35 -4 -17 -11 -30 -16 -30 -5 0 -9 -6 -9 -14 0 -9 -8 -12 -27 -8 -25 5
-27 4 -14 -11 7 -10 9 -17 5 -17 -14 0 -48 -81 -50 -117 0 -19 4 -34 12 -37
17 -7 18 -43 2 -48 -10 -4 -10 -10 -1 -31 7 -15 9 -27 4 -27 -15 0 -20 -41 -8
-67 8 -19 7 -30 -6 -52 -18 -32 -12 -47 12 -28 8 6 5 -3 -8 -20 -12 -18 -27
-33 -32 -33 -5 0 -9 -4 -9 -10 0 -5 7 -10 16 -10 26 0 -3 -30 -30 -31 -20 0
-20 -1 2 -10 28 -11 52 8 52 42 0 13 10 33 22 46 23 24 58 166 78 313 5 36 16
101 25 145 8 44 18 101 21 128 7 47 2 62 -10 31z m-109 -556 c-3 -8 -6 -5 -6
6 -1 11 2 17 5 13 3 -3 4 -12 1 -19z"/>
<path d="M7340 7619 c0 -19 4 -41 9 -49 7 -9 9 0 6 29 -3 52 -15 67 -15 20z"/>
<path d="M7280 7191 c0 -6 4 -13 10 -16 6 -3 7 1 4 9 -7 18 -14 21 -14 7z"/>
<path d="M5650 7175 c-7 -8 -19 -15 -26 -15 -7 0 -20 -12 -28 -27 l-15 -28 -1
27 c0 19 -4 26 -14 22 -8 -3 -12 -13 -8 -26 3 -11 -1 -24 -9 -29 -8 -4 -14
-14 -14 -21 0 -7 -20 -21 -45 -30 l-45 -19 55 4 c53 4 54 3 25 -9 -16 -7 -44
-13 -62 -14 -33 0 -53 -15 -31 -22 7 -3 -1 -5 -19 -5 -23 0 -28 3 -20 12 7 6
21 14 32 19 14 5 16 9 7 15 -9 5 2 14 32 25 25 10 49 22 53 28 4 7 0 9 -9 5
-13 -5 -15 1 -11 33 5 36 4 38 -17 33 -14 -4 -18 -8 -10 -13 19 -12 7 -45 -18
-48 -23 -4 -31 -21 -9 -23 6 -1 -10 -5 -37 -10 -27 -4 -52 -13 -56 -19 -6 -9
-9 -9 -15 0 -9 14 -8 14 35 27 l35 11 -36 1 c-39 1 -80 -21 -61 -33 7 -4 12
-12 12 -17 0 -5 -11 -2 -24 7 -17 10 -23 21 -19 32 6 15 5 15 -11 2 -11 -8
-14 -16 -7 -18 6 -2 11 -8 11 -14 0 -6 8 -17 18 -25 9 -7 13 -12 7 -11 -19 4
-115 -26 -116 -36 0 -6 -2 -21 -3 -34 -2 -13 2 -21 8 -19 6 3 10 10 8 17 -7
32 33 45 73 23 16 -9 17 -14 8 -24 -10 -10 -16 -9 -29 2 -15 12 -16 12 -11 -6
4 -11 2 -27 -3 -35 -8 -13 -12 -13 -32 -1 -16 10 -23 10 -26 2 -2 -6 -16 -11
-30 -12 -23 0 -24 -2 -8 -8 18 -7 17 -9 -10 -34 -16 -15 -23 -27 -17 -27 7 0
15 5 18 10 3 6 12 10 18 10 7 -1 1 -10 -12 -20 -14 -12 -38 -20 -62 -20 -21 0
-39 -4 -39 -10 0 -5 7 -10 17 -10 25 0 11 -8 -26 -15 -27 -5 -32 -3 -28 10 4
8 2 15 -3 15 -9 0 -14 -22 -11 -42 0 -5 -8 -8 -19 -8 -11 0 -20 -4 -20 -9 0
-12 -59 -11 -66 1 -6 10 -121 11 -127 0 -3 -4 19 -8 48 -10 29 -1 63 -5 76 -8
87 -19 148 -16 226 11 43 16 88 29 101 31 13 1 29 8 37 14 11 9 28 8 76 -4 41
-10 67 -12 74 -6 7 5 15 7 19 2 4 -4 12 1 17 11 6 9 15 15 20 12 5 -4 7 -10 4
-15 -8 -13 59 -24 143 -24 59 0 71 -2 58 -11 -9 -7 -12 -16 -8 -20 4 -4 -3 -3
-15 4 -23 12 -43 -2 -21 -15 22 -14 69 -12 64 2 -4 10 1 11 20 4 37 -15 54
-12 55 8 0 10 3 12 6 5 2 -7 11 -13 19 -13 7 0 11 -6 9 -12 -8 -21 12 -45 25
-32 7 7 20 10 30 7 21 -6 34 -30 20 -38 -15 -9 -12 -25 5 -25 8 0 15 7 15 16
0 8 5 12 11 9 6 -4 8 -13 5 -21 -3 -8 -2 -14 3 -14 9 0 23 -41 16 -48 -3 -3
-13 6 -24 19 -11 13 -20 18 -21 12 0 -7 4 -13 9 -13 9 0 26 -38 36 -81 5 -18
1 -32 -11 -44 -17 -16 -17 -17 2 -13 15 2 20 14 25 58 3 30 6 43 7 28 1 -17 9
-29 23 -33 11 -4 18 -13 15 -20 -3 -9 2 -11 15 -8 26 7 35 23 13 23 -10 0 -15
3 -12 6 4 3 2 19 -2 35 -5 16 -5 29 0 29 8 0 23 -39 21 -54 -1 -5 6 -3 15 5
16 13 17 12 11 -6 -7 -20 -7 -20 8 -1 8 11 15 30 15 42 0 14 8 25 21 29 20 7
21 32 0 27 -6 -1 -11 6 -11 15 0 15 -2 16 -10 3 -8 -13 -11 -11 -16 7 -4 13
-10 20 -15 17 -13 -8 -11 20 3 34 7 7 8 12 2 12 -14 0 -34 -22 -34 -37 0 -7
13 -27 29 -45 27 -31 28 -35 14 -53 -14 -19 -14 -19 -11 4 2 16 -7 35 -30 58
-29 31 -31 36 -16 50 8 9 12 19 7 22 -14 10 -39 45 -27 38 7 -4 15 0 18 9 3 9
11 14 18 12 6 -2 20 4 31 15 10 10 25 16 32 13 7 -2 16 2 19 10 4 9 11 12 18
7 7 -4 21 -6 31 -5 9 2 17 -2 17 -7 0 -6 7 -11 15 -11 8 0 15 5 15 12 0 6 6 4
13 -5 11 -15 15 -16 41 -2 16 9 36 13 43 11 7 -3 13 1 13 8 0 8 9 16 20 19 14
3 20 14 20 31 0 18 5 26 18 26 9 0 24 5 32 11 12 8 10 9 -7 4 -27 -8 -31 9 -5
24 16 10 16 12 0 25 -22 16 -23 27 -3 20 8 -4 15 -1 15 5 0 6 -6 11 -12 11 -9
0 -8 4 2 10 13 8 12 10 -2 10 -18 0 -20 23 -5 48 5 7 4 12 -2 12 -6 0 -11 9
-11 20 0 13 -5 18 -14 14 -12 -4 -14 1 -10 21 3 15 1 24 -4 21 -5 -3 -16 4
-26 15 -14 17 -20 18 -32 8 -8 -6 -17 -10 -19 -7 -10 9 7 37 23 40 10 2 13 6
7 10 -6 4 -25 0 -43 -9 -36 -17 -52 -12 -32 12 8 9 8 15 2 15 -6 0 -18 -10
-26 -22 -9 -12 -16 -17 -16 -10 0 14 -58 16 -80 2 -12 -8 -10 -10 9 -10 13 0
21 -3 17 -7 -7 -7 -31 -10 -118 -13 -10 -1 -18 -5 -18 -11 0 -5 -5 -9 -11 -9
-6 0 -8 9 -4 20 4 12 2 20 -5 20 -6 0 -8 -4 -5 -10 3 -5 2 -10 -4 -10 -5 0
-16 -3 -25 -6 -9 -3 -16 -1 -16 5 0 6 7 11 15 11 8 0 15 4 15 8 0 5 -23 4 -51
-2 -35 -7 -52 -7 -57 0 -8 13 -66 29 -59 17 3 -5 -3 -9 -14 -9 -10 0 -19 3
-19 7 0 3 -11 4 -25 1 -29 -5 -33 -18 -7 -26 9 -3 5 -4 -10 -2 -16 2 -28 0
-28 -4 0 -4 -7 -10 -14 -13 -21 -8 -8 23 19 45 11 9 17 19 14 22 -3 4 -12 0
-19 -9z m213 -52 c-7 -2 -19 -2 -25 0 -7 3 -2 5 12 5 14 0 19 -2 13 -5z m425
-31 c2 -12 -1 -22 -7 -22 -6 0 -11 4 -11 9 0 5 -3 17 -7 27 -4 12 -2 15 8 12
8 -2 15 -14 17 -26z m-393 -2 c-3 -5 -18 -10 -33 -10 -21 0 -24 2 -12 10 20
13 53 13 45 0z m433 -86 c-3 -14 -5 -12 -10 9 -3 19 -2 25 4 19 6 -6 8 -18 6
-28z m-938 11 c-14 -8 -34 -14 -45 -14 -18 -1 -17 1 5 13 14 8 34 14 45 15 17
0 17 -2 -5 -14z m140 -9 c0 -3 -4 -8 -10 -11 -5 -3 -10 -1 -10 4 0 6 5 11 10
11 6 0 10 -2 10 -4z m-30 -16 c0 -5 -2 -10 -4 -10 -2 0 -12 -3 -22 -7 -11 -4
-15 -3 -11 4 4 6 1 14 -5 16 -7 3 -1 6 15 6 15 1 27 -3 27 -9z m-186 -12 c-6
-9 -44 -6 -44 3 0 4 11 6 24 5 13 0 22 -4 20 -8z m29 -5 c-23 -9 -14 -20 12
-15 28 5 75 -5 75 -16 0 -4 -11 -8 -25 -8 -14 -1 -22 2 -19 7 3 5 -2 9 -11 9
-9 0 -14 -4 -11 -8 2 -4 -12 -6 -32 -4 -32 4 -35 3 -24 -10 10 -13 9 -16 -6
-20 -15 -4 -17 0 -14 22 4 25 31 49 57 49 6 -1 4 -3 -2 -6z m117 -27 c0 -3 -4
-8 -10 -11 -5 -3 -10 -1 -10 4 0 6 5 11 10 11 6 0 10 -2 10 -4z m37 -2 c-3 -3
-12 -4 -19 -1 -8 3 -5 6 6 6 11 1 17 -2 13 -5z m-107 -43 c0 -5 -7 -11 -14
-14 -10 -4 -13 -1 -9 9 6 15 23 19 23 5z m-150 -56 c0 -8 -7 -15 -16 -15 -14
0 -14 3 -4 15 7 8 14 15 16 15 2 0 4 -7 4 -15z m140 -79 c0 -11 -19 -15 -25
-6 -3 5 1 10 9 10 9 0 16 -2 16 -4z m520 -76 c0 -5 -2 -10 -4 -10 -3 0 -8 5
-11 10 -3 6 -1 10 4 10 6 0 11 -4 11 -10z m50 -20 c6 -11 9 -20 7 -20 -2 0
-12 9 -22 20 -10 11 -13 20 -7 20 6 0 16 -9 22 -20z m-8 -42 c15 -18 25 -34
23 -37 -3 -2 -14 8 -26 22 -11 15 -27 27 -35 27 -8 0 -14 5 -14 10 0 20 25 9
52 -22z m-15 -27 c10 -15 9 -20 -2 -25 -9 -3 -12 0 -8 10 3 7 0 14 -6 14 -6 0
-11 5 -11 10 0 16 14 11 27 -9z m53 -31 c0 -5 -5 -10 -11 -10 -5 0 -7 5 -4 10
3 6 8 10 11 10 2 0 4 -4 4 -10z m-20 -80 c0 -5 -2 -10 -4 -10 -3 0 -8 5 -11
10 -3 6 -1 10 4 10 6 0 11 -4 11 -10z"/>
<path d="M5305 7170 c-3 -5 1 -10 9 -10 9 0 16 5 16 10 0 6 -4 10 -9 10 -6 0
-13 -4 -16 -10z"/>
<path d="M5263 7155 c-9 -24 1 -27 15 -5 8 13 8 20 2 20 -6 0 -13 -7 -17 -15z"/>
<path d="M5357 7156 c-4 -10 -5 -21 -2 -24 9 -9 17 6 13 25 -3 17 -4 17 -11
-1z"/>
<path d="M5848 7163 c6 -2 18 -2 25 0 6 3 1 5 -13 5 -14 0 -19 -2 -12 -5z"/>
<path d="M6430 7160 c0 -5 5 -10 10 -10 6 0 10 5 10 10 0 6 -4 10 -10 10 -5 0
-10 -4 -10 -10z"/>
<path d="M5208 7099 c-24 -25 -33 -39 -23 -39 8 0 15 5 15 10 0 6 11 15 25 20
15 6 25 17 25 30 0 25 2 26 -42 -21z"/>
<path d="M5300 7130 c-12 -8 -12 -10 2 -15 10 -4 22 -4 28 0 5 3 10 1 10 -6 0
-7 3 -9 6 -6 7 7 -14 37 -25 37 -3 0 -13 -4 -21 -10z"/>
<path d="M5397 7123 c-3 -5 1 -14 9 -21 8 -7 14 -11 15 -10 7 26 5 38 -6 38
-8 0 -16 -3 -18 -7z"/>
<path d="M5515 7120 c-3 -5 3 -10 15 -10 12 0 18 5 15 10 -3 6 -10 10 -15 10
-5 0 -12 -4 -15 -10z"/>
<path d="M6370 7126 c0 -2 9 -6 20 -9 11 -3 18 -1 14 4 -5 9 -34 13 -34 5z"/>
<path d="M7078 7103 c7 -3 16 -2 19 1 4 3 -2 6 -13 5 -11 0 -14 -3 -6 -6z"/>
<path d="M3580 7058 c-11 -18 -20 -40 -20 -48 0 -9 -5 -21 -12 -28 -13 -13
-16 -126 -5 -157 5 -10 10 -53 12 -95 2 -41 7 -86 9 -100 15 -70 42 -170 49
-176 4 -4 7 -18 7 -31 0 -13 4 -22 9 -18 5 3 13 0 17 -6 4 -8 3 -9 -4 -5 -7 4
-12 1 -12 -8 0 -9 4 -16 9 -16 7 0 12 -11 26 -60 1 -3 13 -29 28 -59 15 -30
27 -62 27 -70 0 -10 3 -12 10 -5 7 7 -2 48 -29 130 -44 133 -56 224 -66 504
-6 180 3 232 45 245 35 11 16 30 -33 33 -43 3 -48 1 -67 -30z m0 -340 c0 -19
-2 -20 -10 -8 -13 19 -13 30 0 30 6 0 10 -10 10 -22z"/>
<path d="M5240 7080 c0 -5 5 -10 10 -10 6 0 10 5 10 10 0 6 -4 10 -10 10 -5 0
-10 -4 -10 -10z"/>
<path d="M6815 7070 c-3 -5 -2 -10 4 -10 5 0 13 5 16 10 3 6 2 10 -4 10 -5 0
-13 -4 -16 -10z"/>
<path d="M5175 7040 c3 -5 8 -10 11 -10 2 0 4 5 4 10 0 6 -5 10 -11 10 -5 0
-7 -4 -4 -10z"/>
<path d="M5230 7041 c0 -10 19 -25 25 -20 1 2 -3 10 -11 17 -8 7 -14 8 -14 3z"/>
<path d="M5210 7010 c0 -5 5 -10 10 -10 6 0 10 5 10 10 0 6 -4 10 -10 10 -5 0
-10 -4 -10 -10z"/>
<path d="M3860 6938 c0 -9 7 -19 16 -22 25 -10 27 -1 4 19 -17 15 -20 16 -20
3z"/>
<path d="M6388 6910 c-7 -24 -3 -38 8 -28 3 4 4 17 2 30 l-3 23 -7 -25z"/>
<path d="M5120 6910 c0 -5 9 -10 20 -10 11 0 20 5 20 10 0 6 -9 10 -20 10 -11
0 -20 -4 -20 -10z"/>
<path d="M5210 6910 c0 -5 5 -10 11 -10 5 0 7 5 4 10 -3 6 -8 10 -11 10 -2 0
-4 -4 -4 -10z"/>
<path d="M5095 6899 c-4 -6 -5 -12 -2 -15 2 -3 7 2 10 11 7 17 1 20 -8 4z"/>
<path d="M6408 6853 c7 -3 16 -2 19 1 4 3 -2 6 -13 5 -11 0 -14 -3 -6 -6z"/>
<path d="M4920 6763 c0 -13 5 -23 10 -23 13 0 13 11 0 30 -8 12 -10 11 -10 -7z"/>
<path d="M4885 6759 c-11 -17 1 -21 15 -4 8 9 8 15 2 15 -6 0 -14 -5 -17 -11z"/>
<path d="M4950 6760 c0 -5 5 -10 10 -10 6 0 10 5 10 10 0 6 -4 10 -10 10 -5 0
-10 -4 -10 -10z"/>
<path d="M5495 6710 c-15 -5 -11 -8 20 -13 46 -8 54 -4 23 10 -13 6 -32 7 -43
3z"/>
<path d="M5980 6702 c0 -12 19 -26 26 -19 2 2 -2 10 -11 17 -9 8 -15 8 -15 2z"/>
<path d="M4041 6683 c-7 -8 -20 -12 -28 -9 -8 3 -11 1 -8 -4 3 -6 -4 -10 -17
-11 -13 0 -34 -8 -48 -17 -14 -9 -43 -28 -63 -41 -25 -15 -40 -33 -44 -52 -3
-16 -9 -26 -14 -24 -14 9 -19 -13 -21 -100 -1 -73 1 -89 15 -97 9 -5 17 -13
17 -18 0 -6 7 -18 17 -29 9 -11 17 -32 19 -46 5 -43 73 -85 152 -92 38 -3 42
-2 42 19 0 13 -9 42 -19 65 -28 61 -23 149 11 200 14 22 40 67 57 102 l32 62
-20 32 c-11 18 -30 42 -43 54 -20 19 -25 19 -37 6z"/>
<path d="M5810 6635 c0 -8 5 -15 10 -15 6 0 10 7 10 15 0 8 -4 15 -10 15 -5 0
-10 -7 -10 -15z"/>
<path d="M5866 6506 c-8 -32 -5 -38 10 -28 6 4 8 18 4 32 l-6 25 -8 -29z"/>
<path d="M5935 6450 c-3 -5 -1 -10 4 -10 6 0 11 5 11 10 0 6 -2 10 -4 10 -3 0
-8 -4 -11 -10z"/>
<path d="M3806 6301 c-4 -7 -5 -15 -2 -18 9 -9 19 4 14 18 -4 11 -6 11 -12 0z"/>
<path d="M3740 6166 c0 -11 40 -81 40 -71 1 6 10 -7 21 -27 11 -21 24 -38 29
-38 10 0 -39 82 -52 88 -5 2 -8 9 -8 17 0 7 -7 18 -15 25 -8 7 -15 10 -15 6z"/>
<path d="M6951 5664 c0 -11 3 -14 6 -6 3 7 2 16 -1 19 -3 4 -6 -2 -5 -13z"/>
<path d="M6895 5649 c-4 -6 -5 -12 -2 -15 2 -3 7 2 10 11 7 17 1 20 -8 4z"/>
<path d="M7010 5640 c6 -11 16 -20 22 -20 6 0 3 9 -7 20 -10 11 -20 20 -22 20
-2 0 1 -9 7 -20z"/>
<path d="M5855 5580 c-16 -7 -17 -9 -3 -9 9 -1 20 4 23 9 7 11 7 11 -20 0z"/>
<path d="M5890 5530 c0 -5 -6 -10 -14 -10 -7 0 -25 -11 -38 -25 -24 -24 -26
-24 -31 -6 -4 15 2 23 22 30 l26 9 -25 1 c-14 1 -33 -8 -42 -18 -11 -13 -25
-18 -40 -15 -22 5 -22 5 -5 -9 17 -14 16 -16 -15 -27 -30 -11 -34 -16 -30 -44
3 -28 2 -29 -11 -13 -17 21 -28 22 -21 2 4 -8 1 -15 -6 -15 -6 0 -9 -4 -6 -9
3 -5 -2 -12 -11 -15 -15 -6 -15 -8 -3 -17 12 -9 10 -10 -7 -6 -13 3 -21 0 -20
-6 1 -5 -9 -14 -23 -18 -21 -6 -21 -7 -5 -8 16 -1 13 -5 -12 -17 -18 -9 -33
-20 -33 -25 0 -5 -7 -9 -15 -9 -9 0 -12 -6 -9 -15 4 -9 0 -15 -8 -15 -9 0 -14
-9 -14 -22 1 -17 -4 -22 -18 -20 -14 3 -17 -1 -12 -14 5 -14 4 -15 -9 -4 -13
10 -15 9 -15 -9 0 -12 -4 -20 -9 -16 -5 3 -19 -15 -32 -39 -15 -31 -26 -43
-37 -38 -9 3 -13 1 -9 -5 3 -5 0 -21 -8 -36 -8 -15 -12 -27 -9 -27 2 0 -4 -12
-13 -27 -10 -15 -12 -24 -5 -20 15 10 16 -5 0 -21 -9 -9 -8 -12 5 -12 22 0 22
-9 0 -27 -17 -14 -17 -14 0 -9 24 8 21 -1 -9 -29 -22 -21 -23 -23 -5 -18 23 6
28 -6 9 -25 -7 -7 -8 -12 -2 -12 6 0 19 9 29 20 21 23 35 12 35 -27 0 -13 5
-22 11 -20 6 1 14 -4 17 -12 3 -10 0 -11 -9 -5 -12 7 -12 5 0 -9 7 -9 17 -14
22 -11 5 3 6 -2 3 -10 -3 -9 -1 -16 5 -16 6 0 11 6 11 13 0 8 3 7 10 -3 5 -8
12 -12 15 -8 4 3 -8 35 -26 69 -40 77 -45 160 -15 222 15 31 208 237 222 237
5 0 59 60 125 140 30 36 73 84 96 108 45 44 50 52 33 52 -5 0 -10 -4 -10 -10z"/>
<path d="M7005 5399 c-4 -6 -5 -12 -2 -15 2 -3 7 2 10 11 7 17 1 20 -8 4z"/>
<path d="M4442 5365 c0 -16 2 -22 5 -12 2 9 2 23 0 30 -3 6 -5 -1 -5 -18z"/>
<path d="M6288 5358 c-7 -3 -15 -5 -19 -2 -4 2 -14 -5 -22 -16 -10 -14 -20
-18 -32 -14 -13 5 -16 4 -11 -4 4 -7 16 -12 27 -12 10 0 19 -4 19 -10 0 -18
64 -22 102 -6 37 16 181 16 221 1 32 -13 17 4 -21 24 -63 32 -235 58 -264 39z"/>
<path d="M4306 5325 c-15 -19 -23 -35 -17 -35 5 0 13 5 16 10 10 17 25 11 35
-12 8 -22 13 -16 13 17 0 66 -9 70 -47 20z"/>
<path d="M6888 5283 c7 -3 16 -2 19 1 4 3 -2 6 -13 5 -11 0 -14 -3 -6 -6z"/>
<path d="M6720 5170 c0 -5 5 -10 11 -10 5 0 7 5 4 10 -3 6 -8 10 -11 10 -2 0
-4 -4 -4 -10z"/>
<path d="M6630 5140 c0 -5 7 -7 15 -4 8 4 15 8 15 10 0 2 -7 4 -15 4 -8 0 -15
-4 -15 -10z"/>
<path d="M6590 5052 c0 -6 14 -15 30 -21 24 -8 30 -7 30 5 0 7 -6 14 -14 14
-8 0 -21 3 -30 6 -9 3 -16 2 -16 -4z"/>
<path d="M6485 5040 c-3 -5 -2 -10 4 -10 5 0 13 5 16 10 3 6 2 10 -4 10 -5 0
-13 -4 -16 -10z"/>
<path d="M6660 4986 c0 -9 5 -16 10 -16 6 0 10 4 10 9 0 6 -4 13 -10 16 -5 3
-10 -1 -10 -9z"/>
<path d="M6970 4990 c0 -5 5 -10 10 -10 6 0 10 5 10 10 0 6 -4 10 -10 10 -5 0
-10 -4 -10 -10z"/>
<path d="M7045 4960 c3 -5 8 -10 11 -10 2 0 4 5 4 10 0 6 -5 10 -11 10 -5 0
-7 -4 -4 -10z"/>
<path d="M7015 4950 c-3 -5 -1 -10 4 -10 6 0 11 5 11 10 0 6 -2 10 -4 10 -3 0
-8 -4 -11 -10z"/>
<path d="M6680 4943 c0 -15 19 -37 26 -31 3 4 -1 14 -10 23 -9 9 -16 13 -16 8z"/>
<path d="M6965 4910 c-3 -5 -1 -10 4 -10 6 0 11 5 11 10 0 6 -2 10 -4 10 -3 0
-8 -4 -11 -10z"/>
<path d="M7007 4914 c-4 -4 -7 -14 -7 -23 0 -11 3 -12 11 -4 6 6 10 16 7 23
-2 6 -7 8 -11 4z"/>
<path d="M6907 4888 c-4 -12 -4 -24 -1 -27 6 -7 24 20 24 37 0 21 -17 13 -23
-10z"/>
<path d="M5540 4850 c-24 -24 -24 -29 -3 -55 11 -14 14 -15 10 -3 -4 10 1 18
14 21 10 3 19 1 19 -4 0 -5 -6 -9 -12 -9 -9 0 -9 -3 1 -9 9 -6 19 -4 29 5 8 9
23 12 36 9 17 -5 18 -4 6 4 -13 9 -13 11 3 11 9 0 17 -4 17 -8 0 -4 9 -8 20
-8 11 0 20 6 20 13 0 7 -5 13 -12 13 -6 0 -8 3 -5 7 17 16 -19 33 -69 33 -41
0 -59 -5 -74 -20z m135 0 c3 -5 -1 -10 -9 -10 -8 0 -18 5 -21 10 -3 6 1 10 9
10 8 0 18 -4 21 -10z"/>
<path d="M5710 4824 c0 -29 42 -51 72 -37 22 10 21 11 -12 18 -19 4 -40 15
-47 24 -11 14 -12 14 -13 -5z"/>
<path d="M5810 4776 c0 -2 7 -6 15 -10 8 -3 15 -1 15 4 0 6 -7 10 -15 10 -8 0
-15 -2 -15 -4z"/>
<path d="M5480 4681 c0 -5 9 -11 20 -14 24 -6 27 8 4 17 -21 8 -24 8 -24 -3z"/>
<path d="M6290 4619 c0 -5 5 -7 10 -4 6 3 10 8 10 11 0 2 -4 4 -10 4 -5 0 -10
-5 -10 -11z"/>
<path d="M5510 4611 c0 -5 5 -13 10 -16 6 -3 10 -2 10 4 0 5 -4 13 -10 16 -5
3 -10 2 -10 -4z"/>
<path d="M6950 4593 c0 -5 4 -15 10 -23 11 -18 25 -7 17 15 -6 15 -27 21 -27
8z"/>
<path d="M6930 4540 c0 -5 5 -10 10 -10 6 0 10 5 10 10 0 6 -4 10 -10 10 -5 0
-10 -4 -10 -10z"/>
<path d="M6980 4531 c0 -5 7 -14 15 -21 10 -9 15 -9 15 -1 0 6 -5 11 -11 11
-5 0 -7 5 -4 10 3 6 1 10 -4 10 -6 0 -11 -4 -11 -9z"/>
<path d="M6940 4520 c-1 -3 -4 -15 -5 -28 -1 -15 1 -20 7 -14 6 6 8 18 5 28
-3 11 -6 17 -7 14z"/>
<path d="M6771 4505 c0 -6 4 -19 8 -30 5 -11 4 -25 -1 -32 -5 -7 -5 -14 2 -18
10 -6 14 13 10 50 -2 20 -21 48 -19 30z"/>
<path d="M6906 4454 c-4 -9 -4 -19 -1 -22 2 -3 7 3 11 12 4 9 4 19 1 22 -2 3
-7 -3 -11 -12z"/>
<path d="M6776 4225 c7 -17 20 -20 28 -6 3 5 -1 12 -10 15 -22 9 -24 8 -18 -9z"/>
<path d="M6775 4180 c2 -31 15 -37 15 -7 0 15 -4 27 -8 27 -5 0 -8 -9 -7 -20z"/>
<path d="M6740 4150 c0 -5 5 -10 11 -10 5 0 7 5 4 10 -3 6 -8 10 -11 10 -2 0
-4 -4 -4 -10z"/>
<path d="M6770 4010 c0 -5 4 -10 9 -10 6 0 13 5 16 10 3 6 -1 10 -9 10 -9 0
-16 -4 -16 -10z"/>
<path d="M6945 3890 c3 -5 12 -7 20 -3 21 7 19 13 -6 13 -11 0 -18 -4 -14 -10z"/>
<path d="M7082 3713 c2 -9 9 -18 16 -21 18 -6 15 25 -4 32 -11 4 -14 1 -12
-11z"/>
<path d="M5720 3589 c0 -5 5 -7 10 -4 6 3 10 8 10 11 0 2 -4 4 -10 4 -5 0 -10
-5 -10 -11z"/>
<path d="M7050 3570 c0 -5 5 -10 10 -10 6 0 10 5 10 10 0 6 -4 10 -10 10 -5 0
-10 -4 -10 -10z"/>
<path d="M6880 3531 c0 -5 9 -11 19 -14 14 -3 18 -1 14 9 -6 15 -33 19 -33 5z"/>
<path d="M6870 3486 c0 -9 5 -16 10 -16 6 0 10 4 10 9 0 6 -4 13 -10 16 -5 3
-10 -1 -10 -9z"/>
<path d="M7080 3480 c0 -5 7 -10 15 -10 8 0 15 5 15 10 0 6 -7 10 -15 10 -8 0
-15 -4 -15 -10z"/>
<path d="M5872 3452 c4 -12 2 -20 -2 -17 -5 3 -11 1 -15 -5 -3 -5 1 -10 9 -10
18 0 21 -16 6 -23 -6 -3 -5 -4 2 -3 15 3 19 64 5 73 -6 4 -8 -2 -5 -15z"/>
<path d="M5810 3448 c0 -4 4 -8 9 -8 6 0 12 4 15 8 3 5 -1 9 -9 9 -8 0 -15 -4
-15 -9z"/>
<path d="M5922 3433 c-25 -28 -27 -39 -9 -45 16 -7 37 1 37 14 0 6 -7 8 -15 4
-20 -7 -19 3 2 26 9 10 14 20 12 22 -2 3 -14 -7 -27 -21z"/>
<path d="M6786 3441 c-3 -5 1 -11 9 -14 9 -4 12 -1 8 9 -6 16 -10 17 -17 5z"/>
<path d="M6895 3440 c-3 -5 -1 -10 4 -10 6 0 11 5 11 10 0 6 -2 10 -4 10 -3 0
-8 -4 -11 -10z"/>
<path d="M7020 3439 c0 -6 -9 -8 -22 -4 -22 7 -22 7 -4 -8 16 -12 22 -12 33
-1 16 15 17 24 3 24 -5 0 -10 -5 -10 -11z"/>
<path d="M6921 3424 c0 -11 3 -14 6 -6 3 7 2 16 -1 19 -3 4 -6 -2 -5 -13z"/>
<path d="M5960 3390 c0 -5 5 -10 11 -10 5 0 7 5 4 10 -3 6 -8 10 -11 10 -2 0
-4 -4 -4 -10z"/>
<path d="M5945 3360 c-3 -5 1 -10 10 -10 9 0 13 5 10 10 -3 6 -8 10 -10 10 -2
0 -7 -4 -10 -10z"/>
<path d="M6175 3350 c-3 -5 -1 -10 4 -10 6 0 11 5 11 10 0 6 -2 10 -4 10 -3 0
-8 -4 -11 -10z"/>
<path d="M6090 3341 c0 -6 5 -13 10 -16 6 -3 10 1 10 9 0 9 -4 16 -10 16 -5 0
-10 -4 -10 -9z"/>
<path d="M6400 3329 c0 -5 5 -7 10 -4 6 3 10 8 10 11 0 2 -4 4 -10 4 -5 0 -10
-5 -10 -11z"/>
<path d="M5970 3320 c0 -5 5 -10 10 -10 6 0 10 5 10 10 0 6 -4 10 -10 10 -5 0
-10 -4 -10 -10z"/>
<path d="M6130 3309 c0 -5 5 -7 10 -4 6 3 10 8 10 11 0 2 -4 4 -10 4 -5 0 -10
-5 -10 -11z"/>
<path d="M6277 3313 c-4 -3 -7 -11 -7 -17 0 -6 5 -5 12 2 6 6 9 14 7 17 -3 3
-9 2 -12 -2z"/>
<path d="M6440 3309 c0 -5 5 -7 10 -4 6 3 10 8 10 11 0 2 -4 4 -10 4 -5 0 -10
-5 -10 -11z"/>
<path d="M5895 3300 c3 -5 16 -10 28 -9 21 0 21 1 2 9 -28 12 -37 12 -30 0z"/>
<path d="M6495 3290 c-3 -5 -1 -10 4 -10 6 0 11 5 11 10 0 6 -2 10 -4 10 -3 0
-8 -4 -11 -10z"/>
<path d="M5718 3283 c7 -3 16 -2 19 1 4 3 -2 6 -13 5 -11 0 -14 -3 -6 -6z"/>
<path d="M6342 3278 c-6 -6 -12 -19 -12 -27 0 -13 2 -13 16 1 9 9 15 21 13 27
-3 9 -8 8 -17 -1z"/>
<path d="M6480 3255 c0 -8 5 -15 10 -15 6 0 10 -7 10 -17 0 -9 2 -14 5 -11 9
8 -6 58 -16 58 -5 0 -9 -7 -9 -15z"/>
<path d="M5300 3250 c0 -5 7 -10 16 -10 8 0 12 5 9 10 -3 6 -10 10 -16 10 -5
0 -9 -4 -9 -10z"/>
<path d="M5935 3250 c-3 -5 -1 -18 4 -27 9 -16 10 -16 11 4 0 12 6 24 13 26 7
3 6 6 -5 6 -9 1 -20 -3 -23 -9z"/>
<path d="M5993 3253 c-18 -6 -16 -33 1 -33 15 0 30 27 18 33 -4 3 -13 2 -19 0z"/>
<path d="M6260 3248 c0 -17 18 -44 24 -37 8 7 -5 49 -15 49 -5 0 -9 -6 -9 -12z"/>
<path d="M6300 3210 c0 -5 7 -10 16 -10 8 0 12 5 9 10 -3 6 -10 10 -16 10 -5
0 -9 -4 -9 -10z"/>
<path d="M5442 3144 c10 -10 20 -15 24 -12 3 4 -5 12 -18 18 -22 12 -22 12 -6
-6z"/>
<path d="M5425 3110 c3 -5 8 -10 11 -10 2 0 4 5 4 10 0 6 -5 10 -11 10 -5 0
-7 -4 -4 -10z"/>
<path d="M5605 3111 c-6 -11 9 -23 19 -14 9 9 7 23 -3 23 -6 0 -12 -4 -16 -9z"/>
<path d="M3520 2174 c-13 -32 -13 -44 0 -44 12 0 30 33 30 54 0 25 -20 19 -30
-10z"/>
<path d="M4180 2151 c0 -6 4 -13 10 -16 6 -3 7 1 4 9 -7 18 -14 21 -14 7z"/>
<path d="M4280 2040 c0 -5 5 -10 10 -10 6 0 10 5 10 10 0 6 -4 10 -10 10 -5 0
-10 -4 -10 -10z"/>
<path d="M4436 1908 c8 -50 15 -61 37 -53 18 8 31 36 20 44 -4 3 -13 15 -19
26 -6 11 -19 21 -28 23 -14 3 -16 -3 -10 -40z"/>
<path d="M3005 1929 c-16 -5 -37 -6 -46 -4 -19 6 -59 -45 -59 -77 -1 -26 -24
-61 -33 -51 -4 3 -7 -12 -7 -35 0 -23 -4 -42 -8 -42 -4 0 -8 -9 -9 -20 -3 -32
14 -23 21 12 6 32 7 32 21 11 13 -19 23 -21 71 -17 63 4 74 9 74 31 0 8 10 29
22 45 20 29 21 35 10 86 -6 31 -15 59 -19 63 -5 3 -21 3 -38 -2z"/>
<path d="M3970 1905 c0 -16 6 -25 15 -25 16 0 19 9 9 34 -9 25 -24 19 -24 -9z"/>
<path d="M3082 1800 c0 -14 2 -19 5 -12 2 6 2 18 0 25 -3 6 -5 1 -5 -13z"/>
<path d="M4530 1752 c0 -15 28 -47 35 -40 11 11 -5 48 -21 48 -8 0 -14 -4 -14
-8z"/>
<path d="M4421 1727 c-12 -15 -5 -27 16 -27 7 0 13 9 13 20 0 23 -13 26 -29 7z"/>
<path d="M4396 1666 c3 -9 11 -16 16 -16 13 0 5 23 -10 28 -7 2 -10 -2 -6 -12z"/>
<path d="M2546 1621 c-4 -7 -5 -15 -2 -18 9 -9 19 4 14 18 -4 11 -6 11 -12 0z"/>
<path d="M5426 1442 c6 -4 13 -15 17 -24 3 -10 13 -18 21 -18 8 0 19 -8 25
-17 5 -10 13 -14 17 -10 8 8 -64 76 -81 76 -6 1 -6 -2 1 -7z"/>
<path d="M5170 1420 c0 -5 5 -10 11 -10 5 0 7 5 4 10 -3 6 -8 10 -11 10 -2 0
-4 -4 -4 -10z"/>
<path d="M5706 1315 c4 -8 11 -15 16 -15 6 0 5 6 -2 15 -7 8 -14 15 -16 15 -2
0 -1 -7 2 -15z"/>
<path d="M6246 1104 c-4 -9 -4 -19 -2 -21 8 -8 26 8 26 23 0 19 -16 18 -24 -2z"/>
<path d="M7580 6705 c0 -8 2 -15 4 -15 2 0 6 7 10 15 3 8 1 15 -4 15 -6 0 -10
-7 -10 -15z"/>
<path d="M7470 6679 c0 -5 5 -7 10 -4 6 3 10 8 10 11 0 2 -4 4 -10 4 -5 0 -10
-5 -10 -11z"/>
<path d="M7790 6666 c0 -9 5 -16 10 -16 6 0 10 4 10 9 0 6 -4 13 -10 16 -5 3
-10 -1 -10 -9z"/>
<path d="M7767 6653 c-4 -3 -7 -11 -7 -17 0 -6 5 -5 12 2 6 6 9 14 7 17 -3 3
-9 2 -12 -2z"/>
<path d="M7465 6630 c-3 -5 1 -10 9 -10 9 0 16 5 16 10 0 6 -4 10 -9 10 -6 0
-13 -4 -16 -10z"/>
<path d="M7607 6436 c-4 -10 -1 -13 8 -9 8 3 12 9 9 14 -7 12 -11 11 -17 -5z"/>
<path d="M7573 6403 c-17 -6 -17 -23 0 -23 8 0 14 7 14 15 0 8 -1 15 -1 14 -1
0 -7 -3 -13 -6z"/>
<path d="M8025 6270 c-3 -5 1 -10 9 -10 9 0 16 5 16 10 0 6 -4 10 -9 10 -6 0
-13 -4 -16 -10z"/>
<path d="M7660 6194 c0 -8 5 -12 10 -9 6 3 10 10 10 16 0 5 -4 9 -10 9 -5 0
-10 -7 -10 -16z"/>
<path d="M7924 2614 c3 -9 6 -19 6 -22 0 -9 20 21 20 31 0 4 -7 7 -16 7 -11 0
-14 -5 -10 -16z"/>
<path d="M7960 2580 c0 -67 9 -102 24 -97 6 2 26 -2 44 -10 18 -7 37 -11 42
-8 5 3 13 -3 19 -12 7 -13 13 -15 20 -7 12 11 -20 53 -42 55 -67 4 -87 21 -85
70 1 22 -4 45 -10 51 -9 9 -12 -1 -12 -42z"/>
<path d="M7921 2548 c-1 -16 4 -28 9 -28 12 0 12 8 0 35 -8 18 -9 17 -9 -7z"/>
<path d="M8183 2485 c0 -38 2 -53 4 -32 2 20 2 52 0 70 -2 17 -4 1 -4 -38z"/>
<path d="M8042 2431 c2 -7 7 -12 11 -12 12 1 9 15 -3 20 -7 2 -11 -2 -8 -8z"/>
</g>
</svg>
