<?xml version="1.0" standalone="no"?>
<!DOCTYPE svg PUBLIC "-//W3C//DTD SVG 20010904//EN"
 "http://www.w3.org/TR/2001/REC-SVG-20010904/DTD/svg10.dtd">
<svg version="1.0" xmlns="http://www.w3.org/2000/svg"
 width="799.000000pt" height="799.000000pt" viewBox="0 0 799.000000 799.000000"
 preserveAspectRatio="xMidYMid meet">
<metadata>
Created by potrace 1.11, written by Peter Selinger 2001-2013
</metadata>
<g transform="translate(0.000000,799.000000) scale(0.100000,-0.100000)"
fill="#000000" stroke="none">
<path d="M0 3995 l0 -3995 1074 0 1073 0 1 123 c0 67 -4 140 -8 162 -5 22 -11
63 -14 90 -3 28 -8 68 -10 90 -17 141 -17 150 -6 138 7 -6 18 -64 26 -130 7
-65 16 -138 20 -163 4 -25 7 -105 7 -178 l1 -132 158 0 c156 0 158 0 158 22 0
35 -43 202 -53 209 -6 4 -7 15 -3 25 8 22 26 7 31 -27 2 -13 8 -39 13 -56 6
-18 8 -33 4 -33 -3 0 -1 -5 6 -12 7 -7 12 -24 12 -39 0 -14 3 -41 6 -58 l7
-31 77 0 c53 0 80 4 83 13 4 9 6 9 6 0 1 -18 51 -17 51 1 0 7 -4 26 -9 42 -17
54 -21 144 -6 144 9 0 15 -28 20 -100 l7 -100 249 0 c137 1 249 4 249 6 0 8
-73 98 -82 102 -5 2 -8 8 -8 13 0 14 -168 189 -182 189 -4 0 -8 9 -8 21 0 15
-5 19 -15 15 -8 -3 -14 -1 -12 4 2 10 -35 55 -120 147 -24 26 -43 51 -43 56 0
6 -2 8 -5 5 -5 -5 -85 69 -85 79 0 2 7 11 16 20 10 10 13 25 9 43 -3 16 -2 31
4 35 18 11 12 42 -9 48 -14 4 -18 10 -13 23 6 16 7 16 14 -2 4 -10 8 -15 8 -9
1 5 8 -1 17 -13 14 -21 54 -31 54 -14 0 5 -13 18 -30 30 -18 14 -27 28 -24 37
5 11 2 13 -10 9 -10 -4 -18 0 -22 11 -5 13 -9 14 -15 3 -6 -9 -9 -7 -9 9 0 12
-6 23 -12 25 -7 3 -13 11 -13 19 -2 32 -18 89 -26 89 -4 0 -12 -7 -17 -16 -8
-14 -10 -14 -25 0 -8 9 -20 16 -25 16 -28 0 -102 58 -102 80 0 17 14 11 41
-18 15 -15 42 -36 62 -47 30 -16 38 -17 51 -6 9 8 16 22 16 33 0 10 5 16 10
13 6 -3 10 -2 10 3 0 6 -7 12 -15 16 -8 3 -15 13 -14 23 0 16 1 16 9 -2 8 -19
9 -19 9 3 1 12 6 22 11 22 6 0 10 4 10 10 0 5 -7 7 -15 4 -11 -4 -13 -2 -9 9
3 9 -3 21 -16 30 -13 9 -17 17 -11 21 7 5 7 13 -1 26 -7 10 -16 16 -20 14 -4
-3 -8 2 -8 10 0 8 -8 20 -17 25 -14 8 -15 11 -3 11 8 0 -2 11 -23 24 l-38 24
30 4 c24 3 37 -2 58 -22 16 -15 42 -35 60 -44 18 -9 36 -22 40 -29 4 -7 21
-21 37 -31 26 -17 106 -94 106 -103 0 -1 7 -11 16 -20 61 -69 113 -159 106
-185 -3 -11 1 -18 11 -18 8 0 24 -18 34 -39 19 -38 19 -40 2 -55 -13 -11 -19
-11 -23 -3 -3 8 -5 8 -5 -1 -1 -8 8 -16 19 -19 11 -3 20 -10 20 -17 0 -6 5 -4
10 4 6 9 10 10 10 3 0 -6 9 -15 20 -18 11 -3 20 -15 20 -25 0 -11 9 -24 20
-30 11 -6 20 -16 20 -22 0 -29 106 -103 188 -132 61 -21 171 -17 262 9 30 9
74 18 98 21 23 2 83 15 132 27 50 13 92 21 95 19 10 -10 5 -80 -7 -84 -7 -3
-11 -24 -10 -54 1 -27 -2 -54 -6 -59 -4 -6 -34 -30 -67 -55 -55 -41 -106 -85
-173 -150 -14 -14 -42 -38 -61 -53 -35 -27 -96 -78 -150 -125 l-26 -22 295 2
295 3 10 40 c12 49 126 285 137 285 13 0 9 -31 -7 -46 -8 -9 -15 -24 -15 -35
0 -11 -11 -37 -25 -59 -14 -22 -25 -44 -25 -49 0 -7 -29 -74 -58 -133 -2 -5
61 -8 141 -8 165 0 145 -14 172 114 8 37 22 80 30 95 8 14 24 48 36 76 21 51
67 120 75 112 3 -3 -17 -49 -43 -103 -54 -112 -73 -161 -73 -192 0 -11 -4 -23
-9 -26 -5 -3 -11 -22 -13 -41 l-4 -36 65 3 66 3 36 105 c88 253 101 287 119
327 11 24 20 47 20 53 0 6 4 18 9 28 34 67 51 105 51 113 0 14 54 99 63 99 4
0 1 -12 -7 -27 -23 -42 -76 -162 -76 -173 0 -6 -4 -18 -9 -28 -20 -37 -41 -89
-93 -232 -11 -30 -29 -74 -39 -97 -11 -24 -19 -48 -19 -55 0 -17 -24 -86 -33
-94 -18 -19 -1 -25 60 -22 l66 3 22 80 c27 101 124 331 125 297 0 -7 -9 -30
-20 -52 -11 -22 -20 -47 -20 -58 0 -10 -4 -22 -9 -28 -5 -5 -14 -27 -21 -49
-35 -118 -49 -171 -50 -182 0 -9 22 -13 79 -13 l79 0 16 68 c13 60 51 181 86
277 15 43 82 248 84 260 5 25 38 132 46 150 5 11 21 56 36 100 27 81 104 275
131 331 18 38 32 91 43 164 12 78 24 113 40 118 10 4 12 -6 7 -44 -8 -54 -32
-142 -52 -189 -47 -109 -108 -275 -155 -420 -87 -268 -121 -371 -130 -390 -5
-11 -14 -38 -21 -60 -19 -64 -30 -99 -39 -120 -13 -31 -70 -222 -70 -234 0 -7
30 -11 84 -11 l84 0 7 38 c5 20 10 44 11 53 3 14 39 138 94 319 10 36 33 117
50 180 17 63 34 126 39 140 5 14 14 43 20 65 47 170 105 342 109 323 3 -18 -3
-43 -130 -483 -22 -77 -43 -155 -45 -173 -3 -18 -9 -35 -14 -38 -5 -3 -9 -13
-9 -22 0 -10 -22 -89 -49 -177 -27 -88 -52 -175 -56 -193 l-7 -32 84 0 83 0
19 102 c10 57 24 127 32 158 7 30 27 123 44 205 30 145 141 609 159 670 18 60
38 171 51 290 14 122 14 140 6 153 -14 23 -26 12 -26 -24 0 -25 -3 -33 -12
-28 -7 4 -10 4 -6 0 4 -5 2 -20 -3 -34 -7 -18 -6 -27 3 -33 9 -6 10 -21 0 -71
-16 -84 -23 -129 -25 -153 0 -11 -8 -27 -17 -35 -9 -8 -19 -23 -23 -32 -3 -10
-11 -18 -17 -18 -14 0 -13 43 3 58 6 7 13 25 13 40 1 15 9 72 18 127 9 55 14
118 11 141 -4 35 -1 46 20 66 14 12 25 27 25 32 0 14 -33 35 -57 36 -27 0 -29
12 -8 30 13 11 22 10 50 -3 19 -9 35 -23 35 -32 0 -8 6 -15 13 -15 7 0 30 -15
52 -32 32 -27 48 -33 86 -33 26 0 51 -3 54 -7 12 -12 -6 -28 -31 -28 -31 0
-31 -14 1 -28 28 -13 34 -32 10 -32 -19 0 -19 -14 1 -34 22 -23 34 -20 34 9 0
17 6 25 18 25 9 0 34 3 55 6 48 8 50 -10 2 -26 -19 -6 -35 -15 -35 -18 1 -17
40 -52 59 -52 12 0 21 -4 21 -10 0 -5 -11 -10 -25 -10 -14 0 -30 -9 -37 -20
-14 -22 -48 -27 -48 -7 0 7 -13 28 -29 47 -26 32 -29 33 -38 15 -18 -34 -43
-145 -43 -193 -1 -51 -20 -136 -34 -149 -5 -4 -6 21 -1 57 4 36 10 113 14 171
5 74 12 114 24 133 17 25 17 28 -3 66 -11 22 -24 40 -29 40 -5 0 -11 10 -14
22 -10 36 -15 18 -32 -102 -9 -63 -20 -144 -25 -180 -8 -61 -42 -200 -155
-630 -25 -96 -50 -195 -55 -220 -12 -56 -35 -160 -56 -247 -9 -38 -19 -89 -23
-115 l-7 -48 157 0 158 0 4 43 4 42 1 -42 2 -43 1260 0 1260 0 0 3995 0 3995
-3995 0 -3995 0 0 -3995z m1794 3636 c21 4 46 -13 46 -31 0 -10 7 -24 16 -31
14 -11 18 -11 29 4 10 14 14 15 18 5 4 -10 8 -10 16 2 8 11 10 -8 8 -70 -1
-47 2 -120 7 -162 l8 -78 -24 0 c-13 0 -33 -7 -44 -15 -25 -19 -46 -19 -89 2
-45 21 -53 50 -61 214 -5 88 -4 128 4 133 6 4 9 13 5 21 -3 9 1 15 11 15 9 0
16 8 17 18 0 13 3 12 11 -6 6 -12 16 -21 22 -21z m-148 -38 c-11 -11 -19 6
-11 24 8 17 8 17 12 0 3 -10 2 -21 -1 -24z m2040 -39 c-4 -31 -2 -44 7 -44 8
0 7 -4 -3 -10 -9 -6 -10 -10 -3 -10 6 0 13 -9 15 -21 2 -11 17 -28 33 -37 17
-9 32 -19 35 -23 3 -3 21 -17 41 -32 20 -15 54 -57 75 -92 20 -36 39 -63 42
-61 2 3 -6 19 -18 35 -34 49 -9 35 29 -15 35 -47 89 -193 94 -254 1 -19 5 -39
9 -45 3 -5 9 -30 12 -55 6 -41 6 -43 -8 -26 -9 10 -13 23 -10 27 3 5 -1 19 -7
31 -7 13 -13 34 -15 48 -3 32 -7 46 -27 94 -9 21 -17 45 -17 52 0 8 -4 14 -9
14 -5 0 -7 -15 -4 -32 8 -52 6 -148 -5 -208 -9 -49 -10 -42 -7 58 2 64 0 112
-6 112 -5 0 -9 7 -9 15 0 8 -4 15 -10 15 -5 0 -10 7 -10 15 0 38 -83 154 -147
205 -45 36 -58 59 -23 40 23 -12 127 -116 151 -151 10 -13 20 -21 23 -18 4 4
1 13 -6 20 -7 8 -20 27 -28 43 -21 41 -120 147 -131 140 -5 -3 -9 2 -9 10 0 9
-7 16 -15 16 -8 0 -16 6 -16 13 -2 18 -17 -73 -18 -109 -1 -21 9 -42 34 -70
19 -21 35 -43 35 -49 0 -5 -13 5 -29 23 -39 47 -48 19 -12 -39 39 -63 47 -92
16 -54 -14 17 -25 38 -25 48 0 9 -5 17 -11 17 -16 0 2 -70 38 -146 8 -18 16
-45 16 -60 1 -16 6 -33 12 -37 6 -5 4 -7 -5 -4 -8 2 -17 14 -18 28 -2 13 -7
29 -12 34 -4 6 -13 27 -20 48 -6 20 -15 35 -19 33 -4 -3 -7 3 -7 12 -5 100 -9
134 -16 138 -4 3 -8 -9 -8 -26 0 -19 -4 -29 -10 -25 -6 4 -10 21 -8 38 1 18
-6 47 -15 66 -23 46 -10 61 17 20 l21 -34 3 53 c2 30 -1 59 -5 65 -4 7 -8 35
-8 64 0 28 -2 50 -5 48 -3 -2 -5 12 -5 31 0 19 4 34 8 34 4 0 7 6 6 13 -1 6 1
20 6 31 7 17 9 17 18 1 5 -10 7 -37 3 -61z m-1692 19 c10 4 30 -12 63 -51 26
-31 49 -59 50 -61 1 -2 10 2 19 10 12 10 18 11 21 3 2 -7 13 -9 25 -6 15 3 28
-4 48 -27 19 -21 31 -28 35 -20 9 13 45 -37 45 -62 0 -9 11 -21 23 -28 18 -10
23 -20 23 -47 -1 -27 -12 -46 -50 -84 -46 -47 -64 -55 -108 -52 -10 1 -18 -2
-18 -6 0 -4 -15 -9 -32 -10 -18 -1 -49 -4 -69 -8 -29 -4 -42 0 -66 20 -42 35
-54 88 -53 224 1 64 1 136 0 160 -1 48 8 71 20 52 4 -7 15 -10 24 -7z m1533
-5 c-3 -8 -6 -5 -6 6 -1 11 2 17 5 13 3 -3 4 -12 1 -19z m1023 2 c10 -14 26
-20 52 -20 31 0 38 -4 38 -20 0 -17 -7 -20 -39 -20 -22 0 -41 -5 -43 -12 -2
-6 -12 -9 -21 -5 -13 5 -17 18 -17 52 0 49 8 56 30 25z m-743 4 c-3 -3 -12 -4
-19 -1 -8 3 -5 6 6 6 11 1 17 -2 13 -5z m148 -35 c-3 -4 -17 -3 -31 3 -23 11
-24 13 -7 19 20 7 46 -8 38 -22z m-668 -12 c7 0 14 -6 17 -14 7 -16 6 -16 -32
3 -34 16 -45 31 -14 19 9 -4 22 -8 29 -8z m723 3 c0 -5 9 -10 20 -10 20 0 27
-15 13 -23 -12 -6 -73 22 -73 33 0 6 9 10 20 10 11 0 20 -4 20 -10z m-977 -17
c-7 -2 -19 -2 -25 0 -7 3 -2 5 12 5 14 0 19 -2 13 -5z m115 0 c-10 -2 -28 -2
-40 0 -13 2 -5 4 17 4 22 1 32 -1 23 -4z m404 -21 c-2 -14 4 -29 15 -38 10 -7
13 -14 6 -14 -19 0 -43 29 -37 45 4 9 0 15 -9 15 -9 0 -19 5 -22 11 -5 7 3 9
21 7 24 -2 28 -7 26 -26z m53 -9 c4 -21 9 -45 11 -55 3 -9 0 -19 -5 -23 -6 -3
-13 11 -17 35 -4 22 -10 40 -14 40 -5 0 -6 9 -3 20 8 32 22 23 28 -17z m578
-18 c11 -11 26 -37 34 -57 8 -21 19 -38 24 -38 5 0 14 -10 19 -22 16 -36 33
-60 63 -86 15 -13 27 -32 27 -42 0 -10 4 -21 9 -24 4 -3 11 -19 14 -35 4 -17
17 -42 29 -56 13 -14 30 -47 40 -73 9 -26 23 -48 31 -50 17 -4 26 33 16 68 -4
14 -8 18 -9 10 -1 -8 -9 14 -19 50 -24 92 -54 153 -85 173 -32 21 -35 42 -4
25 32 -19 48 -35 79 -81 15 -23 25 -46 22 -51 -4 -5 1 -7 9 -3 18 6 75 -22
125 -61 18 -15 37 -27 43 -27 13 0 13 -4 5 -38 -4 -15 -12 -26 -18 -24 -6 2
-20 -13 -30 -32 -29 -52 -68 -102 -77 -96 -5 3 -11 1 -15 -5 -3 -5 -2 -10 3
-10 6 0 8 -9 5 -20 -6 -24 -28 -26 -37 -4 -3 8 -2 13 3 10 5 -4 7 3 4 15 -5
16 -8 18 -15 7 -7 -9 -8 -4 -4 14 4 17 1 30 -6 35 -18 11 -38 49 -38 72 0 14
-5 18 -19 14 -15 -4 -19 3 -25 36 -4 29 -10 39 -20 35 -8 -3 -17 -1 -21 5 -3
6 1 11 9 11 12 0 13 5 4 30 -18 52 -26 42 -23 -28 2 -54 1 -61 -7 -37 -13 42
-16 57 -17 78 -1 9 -8 17 -16 17 -17 0 -20 -16 -4 -25 6 -4 8 -13 5 -20 -3 -8
1 -19 9 -25 18 -15 24 -104 8 -119 -10 -9 -14 -6 -19 14 -3 14 -10 25 -15 25
-5 0 -9 20 -9 44 0 27 -6 51 -16 60 -8 9 -12 20 -9 26 3 5 2 10 -4 10 -5 0
-12 10 -15 23 -2 12 -3 -9 -1 -48 2 -38 1 -60 -2 -47 -2 12 -9 22 -14 22 -5 0
-9 9 -9 19 0 30 -11 50 -24 45 -7 -3 -13 7 -14 26 -1 16 2 30 8 30 5 0 10 -7
10 -17 0 -9 3 -13 8 -9 9 10 9 69 -1 77 -11 8 -21 79 -11 79 11 0 30 -43 39
-87 4 -18 12 -33 18 -33 8 0 7 -3 -1 -9 -11 -6 -8 -14 12 -34 18 -18 26 -21
26 -12 0 8 5 15 12 15 6 0 1 8 -11 19 -13 12 -19 25 -15 35 4 10 -4 33 -20 56
-14 22 -26 51 -26 65 0 14 -4 25 -8 25 -5 0 -17 18 -27 40 -10 22 -22 40 -26
40 -5 0 -14 10 -20 23 l-12 22 24 -20 c13 -11 32 -29 42 -40z m748 40 c-18 -8
-44 -15 -56 -15 -13 0 -25 -3 -27 -7 -1 -5 -13 2 -25 15 l-22 22 82 0 c81 -1
81 -1 48 -15z m-1701 -5 c0 -5 8 -10 18 -10 9 -1 28 -7 42 -16 l25 -15 -25 7
c-14 4 -47 15 -75 25 -47 17 -48 18 -17 18 17 1 32 -3 32 -9z m159 -14 c29
-13 61 -32 71 -41 11 -10 20 -15 20 -12 0 8 34 -19 66 -53 l23 -24 -4 39 c-2
22 -2 32 1 23 3 -10 10 -18 15 -18 5 0 9 -11 9 -25 0 -14 -5 -25 -10 -25 -6 0
-2 -12 9 -27 11 -16 23 -41 26 -58 6 -29 6 -29 -9 -10 -8 11 -20 25 -26 32 -5
7 -10 18 -10 24 0 7 -3 10 -6 7 -7 -7 -42 25 -66 61 -10 15 -22 26 -27 26 -5
0 -18 9 -28 21 -10 12 -33 30 -52 40 -67 38 -76 44 -64 44 6 0 34 -11 62 -24z
m58 18 c-3 -3 -12 -4 -19 -1 -8 3 -5 6 6 6 11 1 17 -2 13 -5z m48 -24 c8 -13
-5 -13 -25 0 -13 8 -13 10 2 10 9 0 20 -4 23 -10z m-282 -17 c-7 -2 -19 -2
-25 0 -7 3 -2 5 12 5 14 0 19 -2 13 -5z m562 -13 c19 -11 39 -19 43 -18 10 4
119 -81 126 -98 3 -7 3 -14 0 -14 -5 0 -86 58 -114 82 -9 7 -40 25 -70 40 -30
15 -47 27 -38 27 10 1 33 -8 53 -19z m-415 -3 c0 -4 4 -6 9 -2 12 7 181 -152
181 -170 0 -7 7 -16 16 -19 23 -9 6 -28 -19 -21 -17 5 -19 4 -7 -4 8 -6 22 -8
31 -6 18 6 44 -36 36 -57 -4 -9 -8 -6 -12 9 -8 24 -31 37 -40 23 -4 -6 1 -10
9 -10 18 0 21 -15 7 -25 -5 -3 -26 26 -47 65 -20 38 -40 70 -44 70 -4 0 -11
11 -14 25 -4 14 -11 23 -16 20 -6 -3 -10 -1 -10 5 0 14 -81 90 -97 90 -6 0
-14 4 -18 9 -3 6 4 9 15 8 11 -1 20 -5 20 -10z m800 -31 c0 -3 -4 -8 -10 -11
-5 -3 -10 -1 -10 4 0 6 5 11 10 11 6 0 10 -2 10 -4z m-930 -30 c0 -3 -4 -8
-10 -11 -5 -3 -10 -1 -10 4 0 6 5 11 10 11 6 0 10 -2 10 -4z m100 -6 c0 -5 -2
-10 -4 -10 -3 0 -8 5 -11 10 -3 6 -1 10 4 10 6 0 11 -4 11 -10z m2190 -10 c0
-17 7 -20 40 -20 33 0 40 -3 40 -20 0 -17 7 -20 40 -20 29 0 40 -4 40 -15 0
-11 11 -15 40 -15 22 0 40 -4 40 -10 0 -5 18 -10 40 -10 38 0 40 -2 40 -30 0
-28 2 -30 40 -30 36 0 40 -2 40 -25 0 -22 4 -25 40 -25 22 0 40 -4 40 -10 0
-5 18 -10 40 -10 38 0 40 -2 40 -30 0 -28 2 -30 40 -30 22 0 40 -4 40 -10 0
-5 18 -10 40 -10 38 0 40 -2 40 -30 0 -28 2 -30 40 -30 22 0 40 -4 40 -10 0
-5 18 -10 40 -10 l40 0 0 -40 0 -40 40 0 c38 0 40 -2 40 -30 0 -28 2 -30 40
-30 22 0 40 -4 40 -10 0 -5 18 -10 40 -10 26 0 40 -4 40 -13 0 -7 18 -26 40
-43 29 -21 40 -36 40 -56 0 -26 3 -28 40 -28 22 0 40 -4 40 -10 0 -5 18 -10
40 -10 26 0 40 -5 40 -13 0 -12 90 -87 105 -87 4 0 29 -22 55 -49 27 -28 64
-57 82 -67 18 -9 36 -22 40 -28 4 -6 15 -11 25 -12 63 -4 65 -7 31 -59 -13
-19 -33 -36 -44 -39 -12 -3 -47 -31 -78 -61 -30 -30 -62 -55 -71 -55 -8 0 -20
-9 -27 -20 -7 -11 -18 -20 -25 -20 -7 0 -13 -4 -13 -10 0 -17 -36 -11 -64 11
-22 17 -36 20 -73 16 -42 -4 -48 -2 -70 24 -14 16 -33 29 -44 29 -10 0 -19 3
-19 8 0 4 -39 16 -87 26 -81 18 -88 18 -115 3 -33 -19 -52 -22 -43 -7 6 10 5
11 -30 15 -34 4 -83 33 -120 74 -24 25 -52 43 -81 51 -25 7 -47 18 -49 24 -12
41 -15 67 -6 62 13 -8 41 46 41 79 0 14 -9 34 -20 45 -11 11 -20 22 -20 25 0
3 -13 20 -29 38 -31 34 -110 65 -132 51 -7 -4 -18 2 -28 14 -9 12 -32 24 -51
27 -36 6 -80 44 -80 68 0 8 -6 17 -14 20 -9 4 -17 26 -21 54 -3 26 -8 59 -11
73 -6 35 -92 125 -134 140 -19 7 -42 18 -50 25 -24 18 -69 35 -94 35 -13 0
-29 7 -36 15 -7 8 -19 15 -26 15 -8 0 -14 10 -14 21 0 12 -7 27 -16 33 -15 11
-28 119 -17 139 2 4 29 7 59 7 47 0 54 -2 54 -20z m-1343 4 c-3 -3 -12 -4 -19
-1 -8 3 -5 6 6 6 11 1 17 -2 13 -5z m-907 -14 c0 -5 7 -10 15 -10 8 0 15 -5
15 -10 0 -6 -14 -3 -32 6 -43 22 -45 24 -20 24 12 0 22 -4 22 -10z m824 -6 c5
-14 4 -15 -9 -4 -17 14 -19 20 -6 20 5 0 12 -7 15 -16z m-59 -3 c3 -5 1 -12
-5 -16 -5 -3 -10 1 -10 9 0 18 6 21 15 7z m-1206 -21 c9 0 26 -7 37 -15 18
-14 18 -14 -8 -15 -16 0 -28 5 -28 10 0 6 -7 10 -15 10 -8 0 -15 8 -14 18 0
10 3 12 6 5 2 -7 12 -13 22 -13z m294 9 c12 -6 42 -31 67 -55 25 -25 53 -52
63 -61 9 -9 17 -22 17 -29 0 -10 46 -47 60 -48 12 -1 40 -32 40 -44 0 -8 15
-32 34 -55 38 -47 107 -161 110 -183 1 -7 5 -17 9 -20 4 -4 7 -21 7 -39 0 -17
8 -40 18 -51 9 -11 24 -33 33 -49 9 -17 21 -29 27 -28 7 2 12 -2 12 -7 0 -18
20 -11 21 8 0 13 2 12 9 -5 5 -13 16 -23 25 -23 8 0 20 -12 26 -26 13 -35 22
-24 21 27 -1 37 0 39 13 23 14 -18 14 -18 16 6 1 14 2 31 2 38 -1 18 15 14 20
-5 3 -10 10 -39 17 -65 12 -47 35 -69 26 -25 -17 82 -27 158 -23 169 3 7 8 -2
12 -19 7 -30 25 -47 25 -23 0 6 5 10 10 10 6 0 10 -11 10 -23 0 -30 10 -40 27
-26 10 9 13 6 13 -15 0 -15 4 -25 9 -22 5 3 12 -4 15 -17 6 -20 8 -20 19 -6
11 15 14 15 27 0 8 -8 15 -22 15 -31 0 -8 3 -14 8 -12 4 1 21 2 37 2 21 0 30
5 30 16 0 14 -3 14 -16 4 -13 -12 -14 -10 -3 13 14 31 24 33 46 12 11 -12 12
-19 4 -29 -8 -10 -9 -16 -1 -21 5 -3 10 -1 10 4 0 6 7 11 15 11 8 0 12 6 9 14
-3 8 -1 17 5 21 6 3 11 1 11 -4 0 -19 17 -12 28 12 9 19 10 15 7 -23 -3 -25
-2 -39 1 -32 9 18 27 15 20 -4 -4 -10 1 -24 11 -34 17 -16 20 -15 63 22 39 34
46 38 55 24 8 -13 12 -6 21 31 9 39 12 42 13 19 1 -23 4 -27 13 -18 21 21 35
13 48 -30 9 -27 15 -37 18 -25 5 24 22 22 22 -3 0 -12 7 -20 16 -20 9 0 14 6
12 12 -3 7 6 18 20 25 31 17 32 17 32 -7 0 -22 16 -27 23 -7 2 6 12 -3 21 -21
11 -22 22 -32 32 -28 8 3 14 -1 14 -9 0 -8 7 -15 16 -15 9 0 14 7 12 19 -2 10
6 28 16 40 11 12 14 21 8 21 -7 0 -12 5 -12 10 0 6 9 10 20 10 11 0 20 5 20
11 0 5 -4 7 -10 4 -9 -6 -14 14 -11 43 3 17 -6 15 -29 -8 -11 -11 -24 -20 -29
-20 -13 0 36 92 59 112 25 21 25 28 0 21 -11 -3 -20 -12 -20 -19 0 -22 -18
-16 -26 8 l-7 23 -8 -21 c-6 -17 -14 -20 -33 -17 -14 3 -26 12 -26 20 0 8 5
11 10 8 6 -3 13 2 16 12 3 10 10 28 16 40 6 11 8 27 5 35 -3 8 -8 4 -15 -12
l-11 -25 0 24 c-1 27 50 113 87 149 26 25 47 21 33 -6 -5 -9 -12 -43 -15 -74
-4 -32 -11 -58 -16 -58 -4 0 -10 -8 -14 -17 -3 -10 -9 -24 -12 -32 -4 -8 6 -2
22 13 33 31 72 50 125 60 21 3 42 13 49 21 7 8 25 15 41 15 15 0 30 4 33 8 7
12 76 2 76 -12 0 -16 -91 -106 -106 -106 -4 0 -29 -23 -56 -50 -34 -35 -48
-57 -46 -72 3 -21 4 -21 39 10 20 18 41 32 47 32 9 0 106 40 151 63 28 14 168
14 182 0 17 -17 -22 -49 -83 -67 -59 -17 -66 -24 -47 -43 16 -16 2 -33 -25
-33 -12 0 -31 -6 -41 -14 -11 -8 -24 -13 -30 -12 -5 2 -7 1 -2 -1 4 -3 7 -11
7 -19 0 -9 -11 -13 -36 -12 -24 1 -39 -4 -45 -14 -5 -9 -20 -19 -34 -22 -29
-7 -34 -26 -7 -26 10 0 24 -6 31 -12 10 -11 14 -9 22 5 12 20 31 13 22 -8 -3
-9 1 -15 11 -15 10 0 13 6 10 15 -5 12 2 15 34 15 44 0 77 -25 52 -40 -10 -6
-6 -10 16 -15 58 -13 61 -15 40 -30 -19 -14 -19 -15 0 -21 10 -3 48 -16 84
-29 36 -13 84 -29 108 -36 23 -7 42 -15 42 -20 0 -10 -27 -19 -61 -19 -16 0
-29 -4 -29 -8 0 -4 25 -23 55 -41 30 -18 55 -37 55 -41 0 -5 16 -18 35 -30 36
-22 49 -66 23 -75 -44 -16 -62 -10 -80 28 -10 21 -29 42 -42 47 -13 5 -27 14
-31 20 -4 7 -23 18 -42 26 -19 8 -38 25 -43 40 -9 22 -16 25 -48 23 -20 -1
-49 1 -63 5 -14 4 -45 6 -70 4 l-44 -3 43 -14 c24 -8 68 -37 99 -65 30 -28 65
-53 77 -56 11 -3 22 -14 24 -23 3 -14 -5 -17 -45 -17 l-48 -1 31 -27 c17 -15
37 -42 44 -59 7 -18 16 -33 21 -33 18 0 8 -32 -11 -37 -11 -3 -20 -13 -20 -22
0 -10 -3 -20 -6 -24 -9 -9 -61 20 -67 38 -4 8 -12 15 -18 15 -6 0 0 -15 13
-32 13 -18 27 -41 31 -50 3 -10 11 -18 16 -18 11 0 54 -81 47 -88 -2 -2 -14 2
-26 8 -12 6 -24 9 -27 6 -9 -9 25 -70 46 -84 24 -14 28 -42 6 -42 -8 0 -15 5
-15 11 0 16 -63 69 -82 69 -10 0 -18 -4 -18 -10 0 -5 7 -10 15 -10 8 0 22 -15
31 -32 9 -18 26 -39 36 -46 25 -18 21 -58 -6 -54 -10 2 -22 -2 -27 -9 -11 -18
-35 4 -51 47 -12 35 -33 50 -44 33 -3 -6 1 -18 10 -28 9 -10 16 -23 16 -29 0
-7 4 -12 9 -12 5 0 13 -9 16 -20 4 -13 15 -20 31 -20 15 0 24 -6 24 -16 0 -9
-3 -14 -7 -12 -5 2 -20 10 -36 18 -22 10 -30 11 -40 1 -9 -9 -9 -14 2 -21 12
-7 12 -11 2 -24 -13 -16 -6 -21 22 -17 11 2 8 -6 -9 -24 -15 -15 -18 -15 -35
1 -11 9 -19 26 -19 36 0 16 -3 17 -21 7 -17 -9 -23 -8 -30 2 -6 10 -9 6 -9
-14 0 -20 6 -30 22 -36 l22 -8 -22 -14 c-22 -14 -30 -39 -13 -39 5 0 12 -12
16 -27 5 -20 2 -31 -12 -41 -13 -9 -18 -26 -18 -56 0 -24 3 -42 7 -40 3 2 6
-26 6 -63 -1 -73 2 -95 15 -104 4 -3 12 -34 18 -70 5 -35 14 -83 19 -107 6
-23 10 -57 10 -76 0 -19 6 -67 14 -107 22 -116 47 -297 50 -371 2 -55 0 -68
-12 -68 -10 0 -12 -4 -4 -12 21 -27 29 -152 11 -174 -8 -10 -8 -14 0 -14 6 0
11 -7 11 -15 0 -8 5 -15 10 -15 6 0 10 7 10 15 0 7 6 18 13 22 20 11 30 60 14
66 -9 3 -7 9 5 24 14 15 16 26 9 51 -7 23 -6 34 5 43 8 7 12 19 9 26 -3 8 2
24 10 36 8 12 15 26 15 32 0 6 -3 5 -8 -1 -4 -7 -8 22 -8 62 -1 61 1 72 12 63
17 -14 34 -3 34 22 0 22 15 25 24 4 3 -9 -3 -19 -14 -25 -11 -6 -20 -16 -20
-22 0 -7 5 -6 15 2 13 10 15 9 17 -11 0 -13 1 -32 0 -41 -1 -10 3 -18 8 -18
14 0 31 46 36 98 2 24 7 49 11 55 5 7 8 62 8 123 0 95 3 115 19 133 18 20 18
22 1 73 -10 29 -22 91 -27 138 -4 47 -11 106 -14 131 -5 44 -4 48 28 71 91 69
224 82 318 33 90 -48 96 -57 81 -113 -6 -26 -16 -48 -22 -50 -5 -2 -9 -10 -9
-17 0 -7 -7 -26 -15 -41 -30 -57 -23 -66 63 -79 23 -4 42 -10 42 -14 0 -4 28
-13 63 -20 34 -7 71 -16 83 -21 17 -6 159 -5 239 2 25 2 166 -12 176 -17 3 -3
51 -9 105 -14 134 -14 349 -53 459 -84 87 -25 177 -40 335 -57 64 -7 180 -30
230 -45 23 -7 150 -34 192 -40 21 -3 43 -11 50 -18 7 -7 25 -18 40 -26 31 -16
27 -41 -8 -41 -35 0 -38 -1 -51 -12 -16 -13 -125 -24 -358 -37 -104 -6 -237
-16 -295 -21 -58 -6 -140 -10 -182 -10 -41 0 -142 -7 -224 -16 -82 -8 -183
-13 -224 -10 -70 4 -72 3 -12 -10 12 -2 22 -11 22 -19 0 -11 11 -15 40 -15 22
0 40 -5 40 -11 0 -5 14 -15 30 -20 30 -11 41 -28 18 -30 -7 0 -3 -5 10 -11 16
-8 22 -20 22 -42 0 -20 3 -26 9 -18 6 10 15 6 39 -17 18 -16 32 -32 32 -36 0
-11 -58 -65 -70 -65 -5 0 -10 -6 -10 -13 0 -21 -77 -36 -238 -47 -119 -8 -164
-15 -198 -31 -24 -12 -44 -25 -44 -30 0 -5 -18 -9 -39 -9 -22 0 -41 -5 -43
-11 -2 -7 -59 -13 -161 -17 -108 -3 -163 -9 -175 -18 -16 -13 -16 -13 1 -14 9
0 17 -7 17 -15 0 -11 12 -15 43 -17 l42 -1 -45 -6 -45 -6 64 -8 c35 -4 88 -7
117 -7 29 0 56 -4 59 -10 3 -5 24 -10 46 -10 21 0 39 -4 39 -10 0 -5 20 -10
45 -10 49 0 115 -27 115 -47 0 -7 11 -13 26 -13 26 0 54 -20 54 -38 0 -6 14
-15 30 -21 31 -10 42 -41 15 -41 -10 0 -15 -10 -15 -30 0 -20 -5 -30 -15 -30
-11 0 -15 -11 -15 -39 0 -22 -6 -42 -12 -45 -8 -4 -9 -8 -3 -11 38 -19 75 -46
75 -55 0 -5 -13 -10 -30 -10 -23 0 -30 -5 -30 -18 0 -11 -10 -24 -22 -30 -13
-6 -17 -11 -10 -11 14 -1 17 -21 2 -21 -5 0 -19 -9 -31 -21 -16 -16 -30 -20
-60 -17 -35 3 -39 1 -39 -19 0 -20 -5 -23 -40 -23 -27 0 -40 -4 -40 -13 0 -8
-18 -19 -40 -26 -23 -7 -40 -18 -40 -26 0 -11 -12 -15 -40 -15 -33 0 -40 -3
-40 -20 0 -19 -2 -20 -36 -5 -44 18 -44 18 -44 1 0 -8 -9 -17 -19 -21 -11 -3
-22 -12 -25 -20 -3 -9 -18 -15 -35 -15 -17 0 -51 -11 -76 -25 -32 -18 -50 -23
-63 -17 -9 5 -53 8 -97 6 -66 -2 -82 -6 -96 -23 -10 -12 -20 -21 -23 -21 -10
0 -42 -35 -49 -53 -7 -18 6 -64 17 -59 16 6 27 0 41 -22 20 -31 11 -76 -16
-76 -10 0 -19 -7 -19 -15 0 -15 -35 -28 -66 -24 -11 1 -27 -1 -37 -6 -10 -4
-29 -3 -42 3 -15 7 -26 8 -30 2 -8 -13 -67 -13 -102 1 -25 9 -26 12 -10 20 9
6 17 15 17 21 0 9 -3 9 -12 0 -19 -19 -31 -14 -25 9 4 16 3 18 -8 9 -8 -6 -11
-18 -8 -26 3 -8 1 -14 -5 -14 -5 0 -13 -12 -16 -26 -4 -15 -9 -24 -12 -21 -6
6 17 100 26 107 12 8 42 130 52 210 4 41 13 91 18 110 6 19 10 62 10 95 0 64
5 78 33 88 9 3 17 15 17 26 0 14 -5 19 -15 15 -8 -4 -15 -10 -15 -16 0 -5 -5
-6 -11 -3 -17 11 12 340 31 359 6 6 10 25 10 43 0 22 12 50 35 82 36 49 70
120 62 128 -3 2 -15 -13 -28 -34 -13 -21 -29 -44 -36 -51 -7 -7 -13 -18 -13
-25 0 -6 -7 -2 -15 9 -8 10 -14 24 -15 29 0 6 5 3 10 -5 8 -12 10 -10 10 8 0
13 5 32 10 43 13 23 -6 26 -35 6 -14 -11 -17 -22 -12 -45 5 -22 3 -32 -6 -32
-9 0 -9 -2 0 -8 16 -10 6 -112 -11 -109 -6 1 -10 -11 -10 -30 1 -22 -3 -33
-12 -33 -8 0 -14 -9 -14 -20 0 -22 15 -27 23 -7 4 7 6 6 6 -5 1 -9 -13 -28
-30 -42 l-31 -26 26 0 c34 0 33 -18 -1 -22 -19 -2 -29 -10 -33 -28 -4 -16 -12
-24 -23 -22 -10 2 -32 -19 -57 -53 -22 -30 -45 -55 -50 -55 -6 0 -10 -9 -10
-20 0 -11 -8 -24 -17 -27 -15 -6 -14 -7 3 -14 10 -3 25 -2 32 3 12 10 13 9 16
-29 1 -7 5 -13 9 -13 4 0 12 0 17 0 6 0 10 6 10 14 0 8 7 16 15 20 8 3 12 12
9 21 -4 10 0 15 12 15 25 1 56 64 40 81 -8 9 -7 10 7 5 10 -3 23 -6 29 -6 6 0
8 -9 3 -22 -3 -13 -7 -28 -7 -35 -1 -7 -5 -10 -10 -7 -4 3 -8 -2 -8 -10 0 -9
5 -16 10 -16 6 0 10 -4 10 -10 0 -5 -7 -10 -16 -10 -8 0 -13 -4 -9 -9 3 -5 0
-21 -6 -35 -9 -20 -9 -29 1 -41 12 -14 11 -18 -1 -26 -8 -5 -17 -9 -20 -9 -10
0 -8 -110 2 -110 14 0 11 -43 -5 -65 -16 -24 -17 -55 -2 -55 6 0 3 -5 -8 -11
-15 -9 -16 -13 -5 -20 12 -8 12 -11 -1 -19 -8 -5 -11 -10 -6 -10 5 0 3 -6 -3
-14 -6 -7 -9 -28 -6 -47 3 -19 2 -28 -1 -21 -9 20 -33 -5 -27 -28 4 -14 0 -20
-10 -20 -10 0 -13 -6 -10 -20 4 -14 0 -20 -12 -20 -14 0 -16 -7 -13 -30 4 -27
2 -30 -21 -30 -21 0 -23 -2 -11 -10 13 -8 12 -10 -2 -10 -10 0 -18 -3 -17 -7
2 -16 -14 -53 -23 -53 -6 0 -8 -6 -5 -13 6 -16 -50 -40 -59 -26 -3 5 3 9 13 9
15 0 63 57 63 75 0 3 -10 5 -22 6 -13 0 -17 3 -10 6 20 8 14 22 -8 16 -21 -5
-28 11 -10 22 6 4 8 10 5 15 -3 4 4 10 14 13 19 5 47 74 35 86 -2 3 -7 -5 -11
-17 -6 -25 -23 -30 -23 -6 0 9 -6 14 -12 12 -17 -6 -23 -48 -7 -48 6 0 0 -11
-13 -25 -26 -26 -44 -93 -29 -108 5 -5 16 -1 25 8 9 9 21 13 27 10 7 -5 3 -14
-12 -28 -17 -16 -25 -18 -40 -9 -20 13 -32 2 -23 -22 3 -9 1 -16 -5 -16 -6 0
-11 8 -11 17 0 15 -2 14 -15 -3 -19 -25 -19 -34 1 -34 11 0 7 -7 -11 -24 -15
-14 -33 -22 -42 -19 -12 5 -14 1 -8 -16 4 -14 1 -27 -10 -38 -9 -9 -14 -24
-12 -34 3 -10 -1 -20 -9 -23 -8 -3 -14 -13 -14 -21 0 -10 5 -13 11 -9 7 4 10
2 8 -5 -3 -7 -7 -11 -10 -9 -10 5 -39 -24 -33 -33 3 -5 -1 -12 -9 -15 -9 -3
-13 -16 -11 -35 2 -16 -1 -29 -6 -29 -6 0 -10 -5 -10 -11 0 -5 5 -7 10 -4 6 3
10 -4 10 -16 0 -22 0 -22 -22 -3 -12 10 -18 13 -14 7 7 -12 -22 -62 -36 -63
-3 0 -9 8 -11 18 -3 9 -5 4 -6 -13 -1 -28 -33 -70 -44 -59 -3 3 -9 -9 -15 -25
-6 -17 -16 -31 -23 -31 -6 0 -9 -7 -5 -15 4 -10 -1 -15 -16 -15 -12 0 -18 -3
-15 -6 11 -11 -14 -46 -28 -40 -7 2 -16 -2 -19 -11 -9 -21 3 -31 14 -13 5 8
12 11 15 8 4 -4 2 -13 -4 -20 -7 -7 -19 -22 -27 -33 -15 -20 -15 -20 -11 2 6
25 -17 51 -28 33 -4 -6 -13 -9 -21 -6 -17 6 -19 -15 -3 -31 14 -14 2 -36 -14
-27 -7 4 -9 4 -5 0 3 -4 2 -21 -4 -36 -6 -20 -14 -27 -25 -23 -8 3 -18 1 -22
-5 -4 -7 -19 -13 -34 -14 -15 -1 -29 -9 -32 -16 -4 -11 1 -13 20 -8 14 4 25 2
25 -4 0 -5 -10 -10 -23 -10 -13 0 -28 -5 -34 -11 -7 -7 -17 -8 -25 -3 -19 12
-38 14 -38 3 0 -5 -5 -9 -11 -9 -6 0 -8 9 -4 20 4 11 2 20 -4 20 -6 0 -11 -6
-12 -12 0 -7 -4 -4 -9 7 -5 11 -9 14 -9 8 -1 -7 -10 -13 -21 -13 -11 0 -20 -6
-20 -14 0 -17 -69 -46 -109 -46 -16 0 -31 -6 -34 -12 -3 -10 -7 -10 -18 -1
-15 12 -109 13 -109 1 0 -4 7 -14 16 -23 9 -9 14 -19 10 -22 -3 -4 -15 3 -25
14 -25 26 -110 41 -122 21 -7 -10 -9 -8 -10 7 -1 17 -2 17 -6 3 -4 -15 -16
-18 -60 -18 -51 0 -55 2 -50 21 4 16 3 18 -9 9 -10 -9 -17 -8 -29 4 -15 14
-36 21 -57 17 -5 0 -8 8 -8 19 0 13 -7 20 -19 20 -28 0 -36 -19 -15 -35 17
-13 17 -14 2 -15 -10 0 -23 10 -29 22 -8 14 -14 18 -17 10 -6 -20 -21 -14 -37
18 -9 16 -20 30 -26 30 -8 0 -8 -4 -1 -13 6 -7 7 -18 3 -26 -6 -10 -12 -9 -24
4 -9 9 -21 14 -25 11 -5 -3 -15 10 -22 29 -13 33 -30 47 -30 25 0 -5 -5 -10
-11 -10 -5 0 -8 4 -5 9 4 5 -8 23 -25 40 -24 24 -36 30 -57 25 -21 -4 -24 -3
-12 5 13 9 12 11 -5 12 -11 1 -26 2 -33 2 -8 -1 -11 5 -8 14 3 8 2 11 -3 8
-14 -8 -26 16 -22 45 2 19 0 22 -9 13 -9 -8 -17 -6 -31 8 -10 10 -19 25 -19
32 0 35 -69 54 -71 20 -1 -17 -2 -17 -6 0 -2 9 -13 17 -24 17 -21 0 -26 16 -7
22 25 9 -53 65 -81 59 -7 -1 -10 2 -7 8 4 5 -3 15 -14 21 -11 6 -18 15 -15 19
2 5 -1 14 -9 20 -10 8 -16 5 -25 -15 -16 -35 -35 -25 -39 21 -3 34 -1 37 17
32 24 -6 25 -3 11 24 -13 24 12 54 36 45 12 -5 14 -14 9 -38 -7 -30 -6 -31 9
-15 21 21 30 22 23 3 -4 -10 -1 -13 9 -9 20 7 18 19 -7 37 -15 10 -20 21 -16
35 4 15 0 21 -11 21 -14 1 -13 4 6 19 27 24 27 28 1 50 -18 14 -19 20 -9 46 8
21 8 31 1 33 -6 2 -11 11 -11 19 0 13 -3 13 -15 3 -20 -16 -45 3 -42 32 1 12
-4 23 -11 25 -7 3 -10 -1 -6 -10 4 -12 -3 -14 -38 -10 -75 9 -103 40 -48 53
24 6 24 6 5 25 -13 13 -19 31 -17 50 2 25 1 27 -8 13 -17 -27 -30 -21 -30 13
0 18 -4 28 -10 24 -6 -4 -10 -16 -8 -27 2 -12 -6 -26 -19 -35 -21 -14 -23 -14
-30 3 -4 11 -15 25 -25 32 -10 7 -18 18 -18 24 0 15 -31 37 -52 38 -14 0 -18
8 -18 36 0 37 -21 69 -42 62 -8 -3 -4 -12 9 -25 20 -20 20 -33 1 -33 -4 0 -7
4 -5 9 1 5 -7 17 -18 25 -19 15 -19 17 -2 27 20 12 23 31 5 28 -35 -4 -41 1
-25 19 10 10 17 31 17 45 0 23 -4 27 -29 27 -23 0 -30 5 -36 27 -4 16 -12 34
-18 41 -6 8 -12 19 -13 26 -2 6 -6 25 -9 42 -6 27 -4 33 14 39 14 4 21 15 21
30 0 18 -4 23 -15 19 -11 -5 -13 -2 -9 11 6 14 3 16 -14 10 -13 -4 -22 -2 -22
4 0 6 5 11 10 11 6 0 10 7 10 15 0 8 -5 15 -11 15 -5 0 -8 4 -5 9 4 5 2 21 -4
36 -10 26 -9 27 15 23 20 -4 26 -1 31 19 4 14 1 30 -5 36 -9 9 -13 6 -17 -11
-6 -21 -24 -31 -24 -13 0 5 -3 17 -7 27 -5 13 -3 16 10 11 20 -7 23 13 5 31
-16 16 -22 92 -8 92 6 0 9 4 6 9 -4 5 0 12 6 14 10 4 10 8 2 14 -9 6 -8 11 2
21 8 7 14 10 14 7 0 -3 5 -3 11 1 7 4 -1 12 -19 21 -18 8 -29 20 -26 28 3 7
-2 20 -12 29 -14 14 -16 30 -11 88 3 39 10 75 15 80 5 5 0 34 -12 71 -12 34
-23 91 -24 127 -2 36 -8 69 -13 74 -9 10 -13 -2 -10 -39 1 -19 1 -19 -10 -2
-6 11 -8 33 -5 53 6 30 5 34 -16 35 l-23 2 23 4 c27 5 26 40 -1 35 -15 -2 -15
0 -5 23 10 21 9 29 -5 42 -21 21 -26 16 -29 -30 -3 -30 -5 -34 -16 -23 -7 7
-14 28 -15 47 -2 30 1 34 26 37 15 2 27 8 27 13 0 6 -9 7 -22 4 -16 -6 -20 -4
-15 9 3 8 1 18 -4 22 -6 3 -2 12 10 21 16 11 21 24 20 56 -2 30 -3 34 -6 15
-2 -16 -9 -28 -14 -28 -6 0 -7 -9 -4 -20 5 -16 2 -20 -15 -20 -17 0 -20 5 -16
28 2 15 5 27 6 27 1 0 4 27 6 60 3 33 9 64 14 69 13 13 13 29 0 21 -5 -3 -10
2 -9 12 0 26 16 101 18 85 0 -7 6 -10 11 -7 6 4 8 15 5 26 -4 11 -2 19 4 19 6
0 11 -4 11 -10 0 -5 7 -10 15 -10 23 0 18 19 -7 30 l-23 9 23 0 c16 1 22 7 22
25 0 13 8 30 17 37 15 12 16 12 10 -3 -3 -10 -2 -18 3 -18 6 0 10 11 10 25 0
14 -4 25 -10 25 -5 0 -10 5 -10 10 0 6 6 10 13 10 16 0 33 28 48 81 l12 44 14
-35 c10 -22 11 -36 4 -38 -5 -2 -7 -10 -4 -18 3 -7 9 -11 14 -8 5 3 9 -2 9
-10 0 -9 7 -16 15 -16 18 0 20 -17 3 -22 -7 -3 -2 -13 12 -26 17 -16 19 -22 9
-22 -8 0 -20 5 -25 10 -7 7 -10 -2 -11 -25 -1 -19 3 -35 8 -35 5 0 9 5 9 10 0
6 5 10 11 10 6 0 9 -8 6 -19 -5 -21 37 -80 49 -68 4 4 2 13 -4 19 -19 19 -14
29 15 25 26 -3 46 -27 24 -27 -6 0 -11 -5 -11 -11 0 -6 7 -9 15 -5 8 3 15 0
15 -7 0 -26 21 -36 54 -24 17 5 34 15 38 21 6 8 8 8 8 0 0 -6 -11 -20 -25 -30
-30 -23 -33 -38 -5 -29 11 4 20 2 20 -4 0 -6 -7 -11 -15 -11 -8 0 -24 -9 -35
-20 -12 -12 -15 -20 -8 -20 7 0 1 -8 -12 -17 -14 -10 -37 -16 -52 -14 -23 2
-27 -1 -21 -15 5 -13 3 -16 -10 -11 -12 5 -17 1 -17 -13 0 -10 8 -21 18 -23 9
-3 38 -10 64 -17 33 -9 45 -16 41 -26 -6 -17 13 -19 21 -1 3 9 8 7 19 -5 7 -9
22 -17 33 -17 10 0 45 -4 77 -9 31 -5 57 -6 57 -2 0 4 35 13 77 20 43 7 87 18
98 26 27 19 37 17 30 -5 -8 -25 27 -24 37 2 11 27 38 20 49 -13 10 -28 29 -41
29 -20 0 6 -4 10 -10 10 -5 0 -10 4 -10 10 0 5 15 8 33 6 17 -3 32 -5 32 -6 0
-8 57 -6 62 3 11 17 52 17 46 0 -3 -7 -11 -13 -19 -13 -8 0 -14 -4 -14 -9 0
-5 24 -9 53 -8 50 0 94 -7 105 -18 3 -3 -7 -5 -21 -5 -15 0 -27 -4 -27 -8 0
-5 -16 -17 -35 -28 -41 -22 -46 -37 -9 -28 41 11 67 11 87 2 10 -5 17 -5 17 2
0 5 11 10 25 10 13 0 29 8 34 18 9 15 10 15 11 0 0 -9 6 -19 13 -21 6 -3 -5
-6 -25 -6 -30 -1 -38 -5 -37 -18 0 -11 3 -13 6 -5 3 8 16 11 38 6 24 -4 34 -2
38 10 4 9 16 16 27 16 11 0 20 5 20 10 0 15 47 12 53 -2 3 -8 6 -5 6 6 1 13 6
17 21 13 13 -3 20 0 20 9 0 8 12 19 26 25 30 11 101 78 119 112 22 43 40 72
54 90 12 15 13 23 2 54 -8 22 -10 38 -4 42 6 3 13 13 17 21 3 8 4 5 2 -8 -3
-15 0 -22 7 -19 21 7 20 44 -2 50 -11 3 -22 0 -24 -6 -1 -5 -10 -11 -18 -13
-7 -1 -22 -5 -31 -9 -13 -5 -15 -2 -11 16 5 18 3 21 -11 16 -18 -7 -76 17 -76
31 0 5 6 14 13 21 10 11 8 11 -10 0 -19 -11 -24 -10 -42 12 -17 21 -22 23 -41
11 -12 -7 -25 -11 -28 -7 -4 3 0 10 8 15 10 7 -5 8 -43 6 -32 -2 -62 -8 -65
-12 -4 -4 -1 -4 6 0 6 4 12 2 12 -3 0 -6 -11 -11 -25 -11 -34 0 -40 3 -39 17
1 6 -7 11 -17 10 -13 -1 -19 -9 -19 -25 0 -20 -3 -22 -14 -13 -8 7 -12 22 -10
34 2 12 2 16 -2 10 -3 -7 -12 -13 -20 -13 -9 0 -12 5 -9 10 3 6 2 10 -4 10 -5
0 -12 -8 -15 -17 -8 -26 -63 -28 -71 -3 -4 11 -11 20 -17 20 -6 0 -6 -6 2 -15
8 -10 9 -15 2 -15 -6 0 -16 8 -21 18 -10 16 -10 16 -11 0 0 -10 -4 -18 -10
-18 -5 0 -10 4 -10 9 0 5 -9 7 -21 4 -16 -4 -17 -8 -7 -14 8 -6 1 -9 -21 -9
-19 0 -63 -14 -99 -32 -50 -25 -65 -29 -72 -19 -6 10 -27 13 -84 9 -53 -4 -75
-2 -73 6 2 6 12 10 21 10 9 -1 16 2 16 7 0 14 -18 11 -45 -7 -26 -17 -50 -10
-41 12 8 22 -12 16 -24 -7 -6 -11 -16 -19 -21 -17 -6 2 -9 6 -7 9 7 12 -26 39
-48 39 -29 0 -38 14 -18 31 27 22 35 47 22 68 -11 18 -13 18 -35 4 -14 -9 -22
-22 -19 -30 3 -8 1 -11 -4 -8 -6 3 -10 1 -10 -4 0 -18 -24 -12 -38 9 -7 11
-19 20 -26 20 -8 0 -17 8 -19 18 -3 9 -5 -2 -6 -24 -1 -51 -26 -68 -41 -28 -6
14 -14 23 -19 20 -5 -3 -9 12 -9 34 0 21 -9 51 -18 65 -14 22 -15 31 -6 46 11
17 9 19 -10 20 -17 1 -19 2 -5 6 17 5 24 23 8 23 -5 0 -7 9 -4 20 4 16 2 19
-13 13 -14 -5 -16 -3 -10 13 4 10 10 36 13 57 4 29 13 41 34 53 32 16 35 24
18 41 -9 9 -8 21 5 47 9 20 21 36 26 36 5 0 7 6 4 13 -3 8 2 34 9 58 8 24 23
76 32 114 10 39 24 77 30 85 12 15 45 104 47 127 1 6 8 8 17 5 13 -4 14 -3 5
9 -6 8 -8 23 -4 34 25 77 78 181 119 235 14 19 38 53 52 75 14 22 32 47 40 55
8 8 27 34 43 58 16 23 31 42 35 42 3 0 22 15 42 34 19 19 60 48 90 65 30 18
63 37 73 44 11 7 43 27 72 44 53 33 138 68 184 77 14 2 46 10 73 16 71 19 197
3 282 -35 43 -19 55 -21 55 -9 0 19 44 18 64 -1 22 -22 27 -18 14 10 -6 13
-15 22 -19 19 -5 -3 -9 1 -9 9 0 8 10 17 21 20 17 5 21 11 16 34 -5 25 -4 26
8 9 8 -10 12 -23 10 -29 -14 -49 -15 -67 0 -67 14 0 20 28 15 74 -1 12 2 16
11 10 9 -5 10 -2 5 12 -4 10 -12 39 -18 64 -20 84 -81 196 -138 252 -22 21
-40 42 -40 46 0 17 -138 111 -192 131 -38 13 -95 23 -168 27 -60 4 -110 11
-110 16 0 4 -7 8 -15 8 -8 0 -15 4 -15 9 0 6 12 6 32 0 44 -12 48 -12 48 7 0
9 5 12 12 8 7 -4 44 -9 83 -10 38 -1 79 -5 90 -9 64 -23 105 -41 105 -47 0 -5
8 -8 18 -8 14 1 12 4 -8 20 -14 11 -29 24 -35 28 -5 4 -18 11 -28 15 -10 4
-15 11 -12 17 3 5 1 10 -4 10 -6 0 -19 8 -29 18 -10 9 -27 22 -38 29 -18 11
-18 12 -1 12 10 1 28 -4 40 -10z m1034 5 c-3 -3 -12 -4 -19 -1 -8 3 -5 6 6 6
11 1 17 -2 13 -5z m-890 -51 c-3 -3 -13 1 -21 10 -8 8 -12 17 -9 20 3 3 12 -1
20 -9 9 -8 13 -18 10 -21z m748 -31 c-8 -9 -55 40 -55 57 0 11 11 4 30 -18 17
-19 28 -36 25 -39z m146 26 c17 -32 -6 -19 -26 15 -17 28 -17 30 -1 18 9 -8
22 -23 27 -33z m-811 12 c0 -5 -2 -10 -4 -10 -3 0 -8 5 -11 10 -3 6 -1 10 4
10 6 0 11 -4 11 -10z m731 -17 c13 -16 12 -17 -3 -4 -17 13 -22 21 -14 21 2 0
10 -8 17 -17z m-1313 -12 c9 -5 26 -13 37 -16 13 -5 15 -9 7 -12 -16 -6 -110
16 -118 28 -7 12 51 12 74 0z m570 -5 c7 1 8 0 2 -3 -19 -9 -10 -24 13 -19 12
3 16 3 10 0 -21 -9 -15 -26 7 -19 12 4 20 2 20 -6 0 -6 8 -18 18 -25 16 -13
16 -13 -3 -14 -12 0 -45 23 -74 50 -37 35 -46 48 -30 42 13 -5 30 -8 37 -6z
m728 -74 c-3 -2 -14 6 -25 19 -11 13 -22 21 -25 18 -12 -12 35 -50 55 -44 10
4 20 3 20 -2 1 -4 3 -17 4 -28 1 -11 5 -40 9 -65 l8 -45 -40 67 c-22 36 -53
83 -68 104 -16 21 -23 35 -17 30 7 -4 21 -3 30 3 14 7 21 3 36 -21 10 -17 16
-33 13 -36z m-601 13 c14 -13 25 -31 25 -40 0 -8 3 -15 8 -15 4 0 12 -11 19
-25 6 -14 7 -25 2 -25 -5 0 -12 8 -16 18 -3 9 -18 33 -33 52 -49 64 -51 82 -5
35z m972 -72 c7 -18 13 -38 13 -45 0 -21 -17 4 -40 56 -17 41 -18 47 -4 35 10
-8 23 -28 31 -46z m-1352 -81 c25 -25 45 -51 44 -57 0 -5 -7 0 -16 13 -8 12
-22 22 -29 22 -8 0 -14 3 -14 8 0 4 -38 34 -85 67 -48 33 -80 62 -74 66 15 9
120 -62 174 -119z m45 108 c8 -5 12 -12 9 -15 -8 -8 -39 5 -39 16 0 11 11 11
30 -1z m-260 -20 c0 -5 -7 -10 -15 -10 -8 0 -15 5 -15 10 0 6 7 10 15 10 8 0
15 -4 15 -10z m599 -35 c0 -5 -6 -1 -14 9 -8 11 -15 24 -15 30 0 5 7 1 15 -10
8 -10 14 -23 14 -29z m-299 19 c0 -8 -5 -12 -10 -9 -6 4 -8 11 -5 16 9 14 15
11 15 -7z m986 -91 c-6 -6 -36 64 -35 81 0 6 10 -9 21 -32 11 -24 17 -46 14
-49z m-1625 46 c-28 -23 -49 -25 -31 -4 7 8 19 15 26 15 8 0 14 5 14 12 0 6 3
8 8 4 4 -4 -4 -16 -17 -27z m336 25 c-3 -3 -12 -4 -19 -1 -8 3 -5 6 6 6 11 1
17 -2 13 -5z m783 -51 c0 -31 -4 -53 -8 -47 -8 9 -4 104 4 104 2 0 4 -26 4
-57z m-160 21 c0 -8 -4 -12 -10 -9 -5 3 -10 10 -10 16 0 5 5 9 10 9 6 0 10 -7
10 -16z m54 0 c10 -25 -1 -29 -14 -5 -6 12 -7 21 -1 21 5 0 12 -7 15 -16z
m672 -30 c-3 -8 -1 -24 4 -34 11 -21 -7 -41 -19 -21 -10 16 -1 71 11 71 6 0 7
-7 4 -16z m-1197 -10 c28 -17 56 -52 48 -61 -3 -2 -24 14 -47 36 -45 44 -45
51 -1 25z m491 -6 c0 -19 -2 -20 -10 -8 -13 19 -13 30 0 30 6 0 10 -10 10 -22z
m957 -20 c-3 -8 -6 -5 -6 6 -1 11 2 17 5 13 3 -3 4 -12 1 -19z m-2037 -3 c0
-10 -53 -65 -63 -65 -6 0 -1 8 10 18 11 9 22 25 26 35 6 15 27 25 27 12z
m1977 -32 c-3 -10 -5 -4 -5 12 0 17 2 24 5 18 2 -7 2 -21 0 -30z m-853 -23
c14 -28 22 -58 19 -67 -4 -10 -2 -14 4 -10 6 4 13 0 17 -8 3 -9 0 -15 -10 -15
-8 0 -12 -4 -9 -10 3 -5 1 -10 -4 -10 -6 0 -11 8 -11 18 0 18 -25 94 -40 122
-8 15 -5 30 6 30 2 0 14 -23 28 -50z m-424 -29 c0 -11 -8 -6 -25 14 -32 39
-32 55 0 25 14 -13 25 -31 25 -39z m-500 39 c0 -12 -8 -12 -35 0 -18 8 -17 9
8 9 15 1 27 -3 27 -9z m544 -5 c3 -8 1 -15 -4 -15 -6 0 -10 7 -10 15 0 8 2 15
4 15 2 0 6 -7 10 -15z m1185 -36 c20 -46 5 -47 -18 0 -13 25 -16 39 -8 36 7
-3 18 -19 26 -36z m-1942 -15 c-3 -4 -14 -3 -24 0 -15 6 -15 8 -3 16 16 10 39
-4 27 -16z m740 -9 c0 -8 -4 -15 -9 -15 -4 0 -8 7 -8 15 0 8 4 15 8 15 5 0 9
-7 9 -15z m-610 -21 c-3 -3 -12 -4 -19 -1 -8 3 -5 6 6 6 11 1 17 -2 13 -5z
m1847 -19 c3 -8 1 -15 -4 -15 -6 0 -10 7 -10 15 0 8 2 15 4 15 2 0 6 -7 10
-15z m-784 -42 c0 -19 -13 -9 -16 12 -1 8 2 13 7 9 5 -3 9 -12 9 -21z m-158
-45 c-8 -33 -17 -27 -15 10 2 49 3 51 12 27 4 -11 6 -28 3 -37z m142 -27 c-7
-8 -12 4 -18 44 l-5 40 13 -40 c7 -22 12 -42 10 -44z m473 57 c-3 -8 -6 -5 -6
6 -1 11 2 17 5 13 3 -3 4 -12 1 -19z m-1052 -18 c3 -5 2 -10 -4 -10 -5 0 -13
5 -16 10 -3 6 -2 10 4 10 5 0 13 -4 16 -10z m-675 -4 c0 -3 -4 -8 -10 -11 -5
-3 -10 -1 -10 4 0 6 5 11 10 11 6 0 10 -2 10 -4z m653 -33 c-4 -9 4 -13 23
-14 24 0 26 -2 10 -8 -18 -7 -18 -8 -3 -14 27 -10 20 -27 -12 -27 -16 0 -31
-5 -33 -10 -2 -6 -21 -13 -43 -16 -32 -4 -37 -3 -25 6 11 9 12 13 2 17 -6 2
-10 9 -6 14 9 15 -131 10 -169 -6 -20 -8 -48 -15 -63 -15 -15 0 -34 -8 -43
-18 -9 -10 -27 -19 -40 -19 -13 -1 -27 -6 -30 -11 -8 -12 -61 -25 -61 -15 0 5
32 21 70 36 39 16 70 33 70 38 0 6 4 8 9 5 4 -3 25 3 46 14 55 28 162 41 181
23 13 -13 18 -10 16 8 -2 11 32 37 53 41 26 5 54 -12 48 -29z m-340 20 c-7 -2
-19 -2 -25 0 -7 3 -2 5 12 5 14 0 19 -2 13 -5z m637 -14 c0 -6 -4 -7 -10 -4
-5 3 -10 11 -10 16 0 6 5 7 10 4 6 -3 10 -11 10 -16z m-210 1 c0 -5 -16 -9
-35 -8 -23 1 -31 4 -23 9 18 12 58 11 58 -1z m74 -4 c11 4 16 0 16 -11 0 -13
-5 -16 -22 -10 -13 3 -29 7 -35 7 -7 1 -13 7 -13 15 0 10 5 11 19 3 11 -5 27
-7 35 -4z m-2244 -23 c14 -7 19 -13 11 -13 -8 0 -11 -3 -8 -6 4 -4 -5 -17 -19
-29 -36 -31 -64 -22 -64 19 0 55 18 61 80 29z m1130 23 c0 -3 -4 -8 -10 -11
-5 -3 -10 -1 -10 4 0 6 5 11 10 11 6 0 10 -2 10 -4z m1180 -6 c0 -5 -7 -10
-15 -10 -8 0 -15 5 -15 10 0 6 7 10 15 10 8 0 15 -4 15 -10z m1370 -5 c0 -8
-7 -15 -15 -15 -13 0 -14 3 -3 15 16 18 18 18 18 0z m-3380 -25 c10 -25 10
-32 -4 -45 -8 -9 -23 -26 -31 -38 -13 -19 -17 -20 -25 -7 -13 20 -13 77 0 101
16 29 46 24 60 -11z m2165 20 c3 -5 1 -10 -4 -10 -6 0 -11 5 -11 10 0 6 2 10
4 10 3 0 8 -4 11 -10z m-1165 -10 c0 -5 -5 -10 -11 -10 -5 0 -7 5 -4 10 3 6 8
10 11 10 2 0 4 -4 4 -10z m285 0 c-3 -5 -13 -10 -21 -10 -8 0 -12 5 -9 10 3 6
13 10 21 10 8 0 12 -4 9 -10z m1115 -26 c0 -8 -4 -12 -10 -9 -5 3 -10 13 -10
21 0 8 5 12 10 9 6 -3 10 -13 10 -21z m-443 -6 c-3 -8 -6 -5 -6 6 -1 11 2 17
5 13 3 -3 4 -12 1 -19z m187 16 c9 -3 14 -10 11 -15 -7 -10 -35 0 -35 12 0 11
3 11 24 3z m96 -47 c-1 -30 -1 -31 -15 -13 -10 13 -11 23 -5 31 5 7 6 16 2 20
-4 5 -1 5 6 1 6 -4 12 -22 12 -39z m260 39 c0 -3 -4 -8 -10 -11 -5 -3 -10 -1
-10 4 0 6 5 11 10 11 6 0 10 -2 10 -4z m-2267 -29 c8 -12 13 -34 12 -47 -1
-14 -3 -31 -4 -37 -4 -38 -81 13 -81 53 0 25 24 54 45 54 7 0 19 -10 28 -23z
m1447 3 c0 -16 -7 -20 -30 -20 -19 0 -30 5 -30 14 0 9 8 12 25 8 15 -2 25 0
25 7 0 6 2 11 5 11 3 0 5 -9 5 -20z m512 -12 c-6 -6 -15 -7 -22 -3 -8 5 -6 11
7 20 20 15 32 0 15 -17z m1195 26 c-3 -3 -12 -4 -19 -1 -8 3 -5 6 6 6 11 1 17
-2 13 -5z m-1802 -24 c-4 -6 1 -7 11 -3 13 5 15 2 9 -15 -4 -13 -2 -22 4 -22
6 0 11 -4 11 -10 0 -5 -6 -10 -14 -10 -8 0 -16 -6 -19 -14 -3 -8 -32 -27 -64
-43 -70 -33 -128 -69 -166 -103 -16 -14 -32 -25 -37 -25 -4 0 -29 -31 -55 -70
-26 -38 -59 -81 -72 -95 -14 -13 -32 -38 -40 -54 -9 -17 -22 -36 -29 -44 -8
-7 -14 -19 -14 -27 0 -7 -4 -15 -9 -17 -13 -5 -81 -152 -81 -176 0 -11 -4 -24
-10 -27 -5 -3 -10 -15 -10 -26 0 -10 -4 -19 -10 -19 -5 0 -9 -3 -8 -7 3 -9
-29 -113 -48 -159 -8 -17 -19 -54 -25 -83 -10 -48 -29 -79 -29 -47 0 8 -4 17
-8 20 -11 6 -12 -25 -2 -39 10 -13 -6 -55 -20 -55 -6 0 -15 11 -20 25 -11 30
-9 29 -49 9 -17 -9 -39 -13 -49 -9 -15 5 -14 9 8 25 14 11 30 20 36 20 6 0 17
7 24 15 7 9 18 14 25 11 14 -5 38 31 25 39 -5 3 -11 1 -14 -4 -3 -5 -24 -18
-46 -30 -34 -17 -44 -19 -60 -9 -15 10 -24 10 -38 2 -17 -11 -18 -8 -16 30 2
22 4 42 5 44 2 3 6 14 14 50 4 18 12 35 16 38 5 3 9 13 9 22 -1 15 -2 16 -13
1 -14 -18 -57 -43 -63 -36 -4 3 23 64 33 77 2 2 8 -2 13 -10 8 -12 10 -10 10
7 0 12 5 25 11 29 8 4 8 9 0 17 -17 17 -13 27 7 20 14 -5 15 -4 4 8 -10 10
-17 11 -30 2 -9 -6 -16 -15 -15 -20 1 -4 -11 -8 -27 -9 -20 -1 -27 3 -23 12 3
8 11 14 19 14 8 0 14 6 14 14 0 8 7 17 16 20 8 3 12 11 9 17 -4 6 3 21 16 35
12 13 19 27 16 31 -4 3 -16 -3 -27 -15 -12 -12 -26 -22 -32 -22 -6 0 -2 10 10
23 l21 22 -44 0 c-24 0 -38 -3 -32 -7 6 -4 8 -10 4 -14 -3 -4 -14 -1 -23 7
-14 11 -18 10 -32 -8 -19 -23 -102 -58 -102 -43 0 6 7 10 16 10 17 0 54 36 54
53 0 5 6 4 14 -2 8 -7 16 -8 18 -3 1 4 28 26 58 49 30 22 61 47 69 56 7 10 22
17 31 17 24 0 31 22 11 37 -9 6 -13 15 -9 19 4 4 14 2 21 -4 20 -17 27 -4 16
25 -7 20 -6 30 7 44 9 10 21 16 27 12 6 -3 8 6 5 26 -5 33 4 47 23 35 8 -4 7
-9 -2 -15 -11 -7 -10 -9 5 -9 13 0 17 5 13 20 -3 12 1 24 11 30 26 14 -3 12
-41 -3 -51 -22 -87 -29 -87 -17 0 10 43 33 65 35 6 0 25 7 43 15 26 12 32 20
29 38 -4 20 16 42 37 42 7 0 -5 -72 -16 -94 -6 -10 -14 -43 -18 -75 -8 -50
-23 -143 -35 -209 -2 -13 -9 -30 -16 -38 -9 -11 -9 -14 1 -14 9 0 9 -4 2 -12
-5 -7 -12 -33 -15 -58 -5 -43 -8 -58 -24 -125 -8 -35 -10 -85 -3 -78 6 6 48
164 59 223 60 320 69 360 85 360 6 0 4 5 -4 10 -13 8 -12 10 4 10 16 0 17 3 8
12 -17 17 -15 31 6 55 15 18 19 19 31 6 7 -8 10 -17 6 -21 -3 -3 -10 -1 -14 6
-5 8 -7 -2 -6 -23 3 -47 11 -54 20 -16 5 23 14 33 38 40 32 9 32 9 5 10 -39 1
-35 21 5 21 37 0 92 18 162 53 101 51 186 80 308 104 15 3 30 9 33 14 3 5 15
9 27 9 21 1 21 1 3 15 -19 14 -18 15 5 24 32 13 41 13 34 1z m1690 -30 c3 -5
-1 -10 -10 -10 -9 0 -13 5 -10 10 3 6 8 10 10 10 2 0 7 -4 10 -10z m-2594 -30
c-13 -11 -29 -20 -36 -20 -7 0 -15 -4 -17 -9 -1 -5 -16 -13 -32 -17 -40 -10
-26 11 22 32 20 8 44 20 52 24 28 16 35 9 11 -10z m-881 -50 c17 -23 31 -30
56 -30 18 0 35 -4 38 -8 3 -5 19 -7 36 -4 26 4 37 -3 75 -41 38 -38 44 -48 37
-68 -11 -29 -39 -37 -122 -33 -36 2 -82 3 -102 4 -58 0 -88 32 -95 103 -5 51
-3 60 17 82 30 32 32 31 60 -5z m1470 20 c0 -5 -5 -10 -11 -10 -5 0 -7 5 -4
10 3 6 8 10 11 10 2 0 4 -4 4 -10z m-50 -24 c0 -2 -9 -6 -20 -9 -11 -3 -18 -1
-14 4 5 9 34 13 34 5z m-695 -26 c-3 -5 -13 -10 -21 -10 -8 0 -12 5 -9 10 3 6
13 10 21 10 8 0 12 -4 9 -10z m395 -10 c0 -5 -5 -10 -11 -10 -5 0 -7 5 -4 10
3 6 8 10 11 10 2 0 4 -4 4 -10z m-470 -20 c0 -5 -5 -10 -11 -10 -5 0 -7 5 -4
10 3 6 8 10 11 10 2 0 4 -4 4 -10z m437 -6 c-3 -3 -12 -4 -19 -1 -8 3 -5 6 6
6 11 1 17 -2 13 -5z m85 -16 c-6 -6 -15 -8 -19 -4 -4 4 -1 11 7 16 19 12 27 3
12 -12z m-127 2 c3 -5 1 -10 -4 -10 -6 0 -11 5 -11 10 0 6 2 10 4 10 3 0 8 -4
11 -10z m-672 -30 c18 -18 20 -22 7 -30 -22 -14 -27 -13 -50 12 -15 16 -17 24
-8 30 19 12 27 10 51 -12z m487 10 c0 -5 -4 -10 -10 -10 -5 0 -10 5 -10 10 0
6 5 10 10 10 6 0 10 -4 10 -10z m-382 -51 c19 -17 32 -32 30 -34 -2 -2 -25 1
-51 7 -50 10 -71 33 -46 49 22 14 32 11 67 -22z m324 -1 c-6 -6 -15 -8 -19 -4
-4 4 -1 11 7 16 19 12 27 3 12 -12z m248 7 c0 -8 -9 -15 -19 -15 -11 0 -23 -5
-26 -10 -4 -6 -11 -8 -16 -5 -5 4 -3 12 4 19 6 8 15 12 19 10 4 -2 9 0 13 6 9
15 25 12 25 -5z m-415 -45 c-10 -11 -23 -20 -28 -20 -6 0 -2 9 8 20 10 11 23
20 28 20 6 0 2 -9 -8 -20z m285 -11 c0 -5 -4 -9 -10 -9 -5 0 -10 7 -10 16 0 8
5 12 10 9 6 -3 10 -10 10 -16z m-815 -35 c100 -8 123 -19 131 -61 4 -18 4 -51
0 -73 -3 -21 -1 -51 5 -67 10 -27 21 -196 33 -513 3 -80 8 -160 12 -177 5 -26
2 -34 -20 -48 -22 -14 -33 -15 -78 -6 -29 7 -60 19 -70 27 -9 9 -27 15 -40 15
-79 -5 -226 1 -243 10 -11 5 -30 29 -42 52 -20 38 -21 50 -13 117 8 74 7 133
-6 260 -7 73 8 154 36 204 10 17 24 51 30 75 12 46 52 127 86 175 17 24 24 26
64 22 25 -3 77 -8 115 -12z m738 -39 c-32 -30 -63 -55 -70 -55 -7 0 -13 -5
-13 -10 0 -13 -62 -76 -72 -72 -5 1 -8 -3 -8 -10 0 -6 -3 -8 -7 -4 -4 3 13 27
37 51 36 37 41 45 25 46 -14 0 -11 3 9 9 16 5 33 7 38 4 4 -3 8 1 8 8 1 18 38
61 48 54 5 -3 15 4 22 15 8 10 20 19 27 19 7 0 -13 -25 -44 -55z m-243 36 c0
-13 -31 -43 -38 -36 -3 3 3 14 14 24 22 23 24 24 24 12z m374 -33 c-3 -13 -7
-23 -8 -24 0 0 -18 -8 -38 -18 -20 -9 -40 -21 -43 -26 -8 -13 -25 -13 -25 0 0
6 7 10 16 10 8 0 13 4 10 8 -3 5 10 15 29 22 22 9 35 20 35 32 0 10 7 18 16
18 11 0 14 -6 8 -22z m-67 -114 c-3 -3 -12 -4 -19 -1 -8 3 -5 6 6 6 11 1 17
-2 13 -5z m4903 -53 c0 -22 -5 -41 -12 -44 -8 -3 -6 -7 7 -12 50 -17 62 -28
74 -69 15 -51 5 -82 -36 -117 -37 -32 -56 -67 -89 -164 -14 -44 -31 -84 -35
-89 -13 -15 -11 -67 6 -122 17 -57 20 -163 4 -197 -13 -29 -58 -42 -212 -62
-153 -19 -326 -20 -372 -1 -85 36 -91 153 -18 316 25 55 43 131 43 184 0 153
97 282 225 300 11 1 33 21 48 44 28 41 50 52 62 32 3 -5 15 -10 26 -10 10 0
19 -4 19 -10 0 -5 8 -7 18 -3 9 3 13 2 9 -2 -8 -10 100 -36 147 -36 16 0 32 5
36 11 4 7 11 10 16 8 5 -1 10 16 12 40 4 53 22 56 22 3z m-4985 -1 c3 -5 1
-10 -4 -10 -6 0 -11 5 -11 10 0 6 2 10 4 10 3 0 8 -4 11 -10z m3403 -51 c-2
-6 -8 -10 -13 -10 -5 0 -11 4 -13 10 -2 6 4 11 13 11 9 0 15 -5 13 -11z
m-3392 -148 c-3 -5 -24 -18 -47 -30 -22 -12 -38 -17 -34 -11 3 6 23 19 43 30
43 22 45 23 38 11z m-105 -64 c-10 -9 -11 -8 -5 6 3 10 9 15 12 12 3 -3 0 -11
-7 -18z m-230 -34 c21 -56 9 -270 -23 -396 -10 -39 -10 -50 1 -56 18 -11 4
-76 -23 -108 l-21 -25 -29 23 c-39 31 -58 79 -50 131 4 24 10 48 14 53 4 6 18
60 30 120 18 92 49 220 65 273 7 21 25 13 36 -15z m216 -95 c-3 -8 -6 -5 -6 6
-1 11 2 17 5 13 3 -3 4 -12 1 -19z m113 -1 c0 -1 -9 -10 -20 -20 -19 -16 -20
-16 -20 3 0 13 7 20 20 20 11 0 20 -1 20 -3z m14 -62 c-25 -19 -40 -19 -24 0
7 8 20 15 28 15 13 0 12 -3 -4 -15z m-79 -15 c-4 -6 -11 -7 -17 -4 -6 4 -8 -1
-4 -12 4 -14 -6 -30 -34 -58 -27 -26 -40 -33 -40 -23 0 9 9 21 20 27 11 6 23
23 26 38 9 38 13 42 35 42 11 0 17 -5 14 -10z m-1560 -32 c18 -8 25 -19 25
-40 0 -54 -58 -83 -85 -42 -29 45 -19 78 32 93 1 1 14 -4 28 -11z m1651 -55
c2 -13 -2 -23 -7 -23 -21 0 -58 -45 -64 -78 l-7 -37 -15 28 c-13 26 -13 30 2
41 9 7 18 24 18 39 1 15 8 29 15 32 6 2 12 10 12 18 0 7 5 18 12 25 14 14 30
-7 34 -45z m3244 -29 c0 -8 -4 -12 -10 -9 -5 3 -10 10 -10 16 0 5 5 9 10 9 6
0 10 -7 10 -16z m-3459 -37 c-16 -16 -26 0 -10 19 9 11 15 12 17 4 2 -6 -1
-17 -7 -23z m272 3 c-3 -12 -8 -19 -11 -16 -5 6 5 36 12 36 2 0 2 -9 -1 -20z
m47 -10 c0 -5 -5 -10 -11 -10 -5 0 -7 5 -4 10 3 6 8 10 11 10 2 0 4 -4 4 -10z
m70 -15 c0 -8 5 -15 11 -15 6 0 9 -6 6 -12 -2 -7 -10 -12 -16 -10 -7 1 -21 -3
-33 -9 -16 -9 -19 -8 -13 2 6 9 3 11 -8 6 -12 -4 -14 -2 -10 11 14 35 63 56
63 27z m2947 -21 c-9 -9 -28 6 -21 18 4 6 10 6 17 -1 6 -6 8 -13 4 -17z
m-3230 -23 c-7 -8 -7 -12 -2 -9 6 4 11 -2 11 -13 0 -22 -7 -24 -24 -7 -6 6
-15 8 -19 4 -4 -4 -1 -11 7 -16 12 -8 10 -10 -7 -10 -12 0 -27 -8 -32 -17 -8
-14 -10 -15 -11 -3 0 18 6 27 45 74 19 24 32 31 37 23 4 -6 1 -18 -5 -26z
m-156 -14 c-8 -8 -11 -7 -11 4 0 20 13 34 18 19 3 -7 -1 -17 -7 -23z m219 -27
c0 -5 -4 -10 -10 -10 -5 0 -10 5 -10 10 0 6 5 10 10 10 6 0 10 -4 10 -10z
m210 -5 c0 -8 -6 -15 -14 -15 -20 0 -29 17 -14 23 22 9 28 7 28 -8z m-300 -25
c0 -5 -4 -10 -10 -10 -5 0 -10 5 -10 10 0 6 5 10 10 10 6 0 10 -4 10 -10z
m3280 -7 c0 -10 -4 -14 -8 -8 -4 6 -11 13 -16 18 -5 4 -2 7 7 7 10 0 17 -8 17
-17z m-3110 2 c0 -7 -43 -45 -52 -45 -4 0 -5 7 -2 15 4 8 12 15 20 15 8 0 14
5 14 10 0 6 5 10 10 10 6 0 10 -2 10 -5z m7 -82 c-9 -9 -19 -14 -23 -11 -10
10 6 28 24 28 15 0 15 -1 -1 -17z m123 -187 c0 -3 -4 -8 -10 -11 -5 -3 -10 -1
-10 4 0 6 5 11 10 11 6 0 10 -2 10 -4z m215 -151 c1 -13 -3 -21 -7 -19 -4 3
-5 -2 -1 -11 3 -10 0 -21 -8 -26 -8 -5 -9 -9 -2 -9 6 0 9 -9 6 -20 -6 -22 -28
-22 -28 -1 0 6 -7 16 -15 21 -8 5 -11 10 -6 10 5 0 3 7 -4 15 -7 9 -13 25 -14
38 -1 18 5 23 34 27 42 7 45 5 45 -25z m-100 -22 c0 -19 -6 -27 -22 -29 -18
-3 -23 1 -23 17 0 11 5 17 10 14 6 -3 10 1 10 9 0 9 6 16 13 16 7 0 13 -11 12
-27z m842 1 c-3 -3 -12 -4 -19 -1 -8 3 -5 6 6 6 11 1 17 -2 13 -5z m-682 -14
c3 -5 -1 -10 -10 -10 -9 0 -13 5 -10 10 3 6 8 10 10 10 2 0 7 -4 10 -10z m439
-22 c-16 -13 -30 -26 -32 -30 -5 -12 -32 -10 -32 2 0 6 7 10 15 10 8 0 15 4
15 8 0 5 10 14 23 20 37 18 41 13 11 -10z m-456 3 c10 -6 7 -10 -12 -13 -18
-4 -26 -1 -26 8 0 16 18 18 38 5z m-763 -41 c3 -5 16 -10 28 -10 12 0 33 -9
47 -20 23 -17 25 -26 25 -94 0 -48 -5 -80 -13 -88 -10 -10 -14 -9 -18 9 -3 12
-17 24 -31 28 -15 3 -45 19 -69 36 -47 32 -89 38 -98 13 -3 -8 -11 -12 -17 -8
-9 5 -7 11 6 20 14 11 16 16 6 28 -17 20 1 51 42 76 34 21 82 26 92 10z m958
-11 c-6 -6 -17 -8 -24 -3 -9 5 -8 9 7 14 23 9 31 3 17 -11z m47 11 c0 -5 -7
-10 -16 -10 -8 0 -12 5 -9 10 3 6 10 10 16 10 5 0 9 -4 9 -10z m135 0 c-3 -5
-11 -10 -16 -10 -6 0 -7 5 -4 10 3 6 11 10 16 10 6 0 7 -4 4 -10z m-45 -16 c0
-2 -9 -4 -20 -4 -11 0 -20 4 -20 9 0 5 9 7 20 4 11 -3 20 -7 20 -9z m-50 -15
c0 -6 -4 -7 -10 -4 -5 3 -10 11 -10 16 0 6 5 7 10 4 6 -3 10 -11 10 -16z m147
4 c-9 -9 -19 -14 -23 -11 -10 10 6 28 24 28 15 0 15 -1 -1 -17z m-198 -3 c6 8
13 11 18 7 8 -9 -17 -28 -31 -24 -6 2 -11 10 -14 18 -3 11 -2 11 7 -1 10 -13
12 -13 20 0z m-149 -30 c0 -5 -9 -10 -20 -10 -11 0 -20 -5 -20 -12 0 -6 -3 -8
-6 -5 -9 9 15 37 32 37 8 0 14 -4 14 -10z m104 -14 c-3 -9 -10 -13 -16 -10 -5
3 -4 12 3 20 15 18 22 13 13 -10z m-818 -129 c-2 -18 -4 -38 -5 -46 0 -8 -4
-12 -7 -9 -9 10 -16 68 -10 85 10 25 26 4 22 -30z m84 39 c0 -2 -7 -6 -15 -10
-8 -3 -15 -1 -15 4 0 6 7 10 15 10 8 0 15 -2 15 -4z m-20 -35 c0 -6 -4 -13
-10 -16 -5 -3 -10 1 -10 9 0 9 5 16 10 16 6 0 10 -4 10 -9z m3402 -33 c-7 -7
-12 -8 -12 -2 0 14 12 26 19 19 2 -3 -1 -11 -7 -17z m-3441 -41 c-10 -9 -11
-8 -5 6 3 10 9 15 12 12 3 -3 0 -11 -7 -18z m3445 -14 c-11 -11 -19 6 -11 24
8 17 8 17 12 0 3 -10 2 -21 -1 -24z m-3563 -34 c42 -44 55 -65 48 -72 -18 -18
-12 -28 8 -17 26 14 31 13 31 -5 0 -9 -7 -18 -15 -21 -8 -4 -15 -14 -15 -23 0
-10 -10 -28 -22 -41 -15 -16 -18 -25 -10 -28 17 -5 15 -30 -3 -48 -13 -14 -15
-13 -15 5 0 12 -4 21 -10 21 -13 0 -13 -47 0 -55 6 -4 8 -11 5 -16 -4 -5 3
-21 14 -35 12 -15 21 -35 21 -45 0 -11 9 -28 20 -39 11 -11 23 -35 27 -53 7
-37 39 -77 63 -77 9 0 25 -9 35 -20 10 -11 15 -20 10 -20 -4 0 -2 -7 5 -15 6
-8 8 -20 4 -26 -4 -7 -6 -36 -5 -66 2 -48 0 -53 -19 -53 -18 0 -19 -2 -8 -22
7 -13 23 -32 34 -44 17 -16 25 -45 38 -140 20 -150 20 -178 0 -199 -17 -17
-75 -12 -82 6 -2 5 -19 16 -38 24 -23 10 -39 26 -49 49 -8 19 -23 37 -33 40
-11 4 -24 18 -30 32 -10 21 -9 28 8 46 13 14 20 17 20 8 0 -7 2 -11 5 -8 10 9
-6 37 -23 41 -12 3 -10 5 5 6 27 1 22 20 -13 59 -19 19 -24 21 -24 8 0 -9 -7
-16 -15 -16 -8 0 -15 4 -15 9 0 4 -18 8 -40 8 -27 0 -40 -4 -40 -13 0 -8 -3
-13 -7 -12 -5 1 -18 -3 -31 -10 -12 -7 -32 -10 -43 -7 -32 10 -141 7 -152 -4
-6 -6 -26 -11 -43 -11 -18 0 -45 -5 -61 -11 -15 -6 -55 -12 -88 -14 -33 -2
-100 -11 -150 -20 -49 -9 -114 -20 -143 -24 -28 -4 -57 -12 -64 -19 -8 -8 -15
-9 -25 -1 -7 7 -13 7 -13 2 0 -5 -16 -10 -35 -11 -20 -2 -47 -7 -61 -12 -36
-14 -285 -12 -339 2 -40 11 -47 17 -57 50 -6 21 -15 38 -20 38 -4 0 -8 18 -8
40 0 22 5 40 10 40 6 0 10 6 10 14 0 21 40 66 58 66 10 0 23 9 30 20 7 11 21
20 31 20 10 0 52 13 92 30 41 16 79 30 85 30 5 0 28 9 50 19 21 10 62 27 90
36 29 9 60 24 70 34 35 31 192 91 279 106 54 9 155 57 192 92 48 44 91 73 109
73 9 0 29 11 44 24 34 28 90 26 123 -4 21 -20 47 -27 47 -12 0 4 -14 15 -30
24 -19 11 -28 23 -25 32 3 9 7 23 10 32 4 13 12 9 38 -21 20 -23 38 -36 45
-31 14 9 16 96 2 96 -5 0 -10 -10 -10 -22 -1 -21 -2 -21 -11 -5 -7 12 -7 29 2
55 6 20 14 44 17 52 2 8 6 38 9 65 7 95 16 97 96 14z m-160 -91 c-3 -18 -14
-41 -23 -50 -17 -16 -19 -15 -30 12 -13 32 -5 110 13 122 19 12 47 -48 40 -84z
m364 40 c-3 -8 -6 -5 -6 6 -1 11 2 17 5 13 3 -3 4 -12 1 -19z m-21 -7 c-8 -12
-46 -21 -46 -11 0 9 18 18 38 19 7 1 11 -3 8 -8z m3393 -65 c-7 -31 -16 -56
-20 -56 -14 0 -23 24 -11 28 7 2 12 16 12 30 0 43 11 75 22 64 6 -6 5 -30 -3
-66z m-3362 17 c-8 -7 -37 9 -31 19 3 5 12 4 20 -3 8 -6 13 -14 11 -16z m-54
-124 c3 -68 11 -117 19 -127 9 -11 10 -14 1 -8 -17 10 -18 -55 -1 -72 9 -9 6
-12 -14 -12 -15 0 -28 5 -30 12 -3 9 -6 9 -11 1 -4 -6 0 -19 9 -28 13 -12 14
-19 5 -28 -6 -6 -12 -8 -12 -4 -3 18 -6 24 -22 54 -21 39 -21 43 -2 43 8 0 24
8 35 17 18 16 18 19 5 40 -17 25 -17 31 -15 156 2 68 5 85 15 77 7 -6 14 -51
18 -121z m-276 -1 c-3 -8 -6 -5 -6 6 -1 11 2 17 5 13 3 -3 4 -12 1 -19z m371
-27 c3 -57 -13 -77 -21 -27 -6 36 1 76 12 76 3 0 7 -22 9 -49z m92 -81 c0 -5
-2 -10 -4 -10 -3 0 -8 5 -11 10 -3 6 -1 10 4 10 6 0 11 -4 11 -10z m-30 -300
c0 -5 -2 -10 -4 -10 -3 0 -8 5 -11 10 -3 6 -1 10 4 10 6 0 11 -4 11 -10z m10
-72 c0 -6 -7 -7 -16 -4 -9 3 -18 6 -20 6 -3 0 -3 4 1 10 7 11 35 2 35 -12z
m-33 -40 c-3 -8 -6 -5 -6 6 -1 11 2 17 5 13 3 -3 4 -12 1 -19z m48 -88 c3 -5
-3 -10 -15 -10 -12 0 -18 5 -15 10 3 6 10 10 15 10 5 0 12 -4 15 -10z m3 -71
c-1 -35 -3 -39 -14 -25 -9 13 -9 23 0 41 6 14 12 25 13 25 2 0 2 -19 1 -41z
m3112 3 c-9 -3 -9 -7 1 -14 11 -8 11 -9 -1 -5 -20 5 -26 37 -8 48 9 6 14 3 17
-8 2 -10 -2 -19 -9 -21z m-3660 -12 c0 -21 -24 -28 -35 -10 -8 14 3 30 21 30
8 0 14 -9 14 -20z m555 -129 c3 -5 1 -12 -5 -16 -5 -3 -10 1 -10 9 0 18 6 21
15 7z m3095 -61 c0 -5 -4 -10 -10 -10 -5 0 -10 5 -10 10 0 6 5 10 10 10 6 0
10 -4 10 -10z m-3305 -116 c39 -3 80 -5 92 -6 13 0 25 -8 28 -19 4 -10 13 -26
22 -35 14 -13 14 -17 2 -25 -12 -7 -12 -9 1 -9 13 0 13 -1 0 -11 -11 -8 -12
-12 -2 -16 6 -2 12 -11 12 -20 0 -8 7 -22 16 -30 8 -9 13 -24 11 -34 -3 -11
-1 -21 3 -24 5 -3 8 -26 8 -53 -1 -44 -2 -45 -11 -19 -14 36 -25 35 -19 -3 4
-30 4 -30 -39 -25 -52 6 -85 -9 -56 -26 31 -18 18 -29 -38 -29 -47 0 -55 3
-55 19 0 14 -5 18 -20 14 -15 -4 -20 0 -20 15 0 11 -10 26 -22 34 -30 20 -98
32 -98 18 0 -15 -26 -12 -41 6 -10 13 -10 17 0 23 17 11 -40 31 -85 31 -19 0
-34 5 -34 10 0 6 -11 10 -25 10 -13 0 -40 8 -60 17 -32 15 -35 20 -35 60 0 31
5 45 19 52 10 6 21 7 25 4 3 -3 30 6 60 21 30 15 73 30 95 33 22 3 46 12 53
20 10 12 26 14 78 9 36 -4 97 -9 135 -12z m-510 -144 c0 -31 -31 -39 -40 -11
-8 26 2 43 23 39 11 -2 17 -13 17 -28z m875 -117 c0 -15 -2 -16 -10 -3 -8 12
-10 12 -10 1 0 -8 -3 -12 -6 -8 -8 7 4 27 17 27 5 0 9 -8 9 -17z m27 -95 c-3
-8 -6 -5 -6 6 -1 11 2 17 5 13 3 -3 4 -12 1 -19z m-150 -11 c0 -8 -6 -14 -14
-14 -9 0 -10 4 -2 14 6 7 12 13 14 13 1 0 2 -6 2 -13z m178 -26 c-3 -6 -11 -8
-17 -5 -6 4 -5 9 3 15 16 10 23 4 14 -10z m2759 -36 c-4 -8 -8 -15 -10 -15 -2
0 -4 7 -4 15 0 8 4 15 10 15 5 0 7 -7 4 -15z m-2956 -35 c10 -13 12 -11 9 10
-2 14 -2 19 0 13 3 -7 9 -13 15 -13 6 0 8 -9 5 -19 -3 -14 -1 -18 9 -14 9 3
14 -3 15 -18 1 -13 3 -34 4 -46 1 -13 -1 -23 -6 -23 -5 0 -5 -10 0 -22 7 -21
30 -25 23 -5 -1 5 2 6 8 2 7 -4 7 -12 0 -24 -5 -10 -8 -38 -7 -63 2 -38 5 -44
22 -40 16 3 21 -2 23 -24 1 -15 6 -30 11 -33 5 -4 14 -39 20 -80 5 -41 15 -77
21 -81 6 -4 8 -14 4 -24 -5 -14 -9 -15 -15 -4 -6 8 -7 0 -3 -19 6 -29 5 -31
-17 -26 -22 6 -47 26 -131 106 -37 34 -91 37 -110 7 -15 -23 -45 -27 -45 -5 0
8 5 15 10 15 11 0 -30 39 -58 56 -10 5 -20 20 -22 33 -1 12 -9 34 -17 49 -7
15 -16 44 -20 65 -6 30 -4 37 9 37 8 0 15 9 15 20 0 12 15 29 38 44 20 13 43
31 51 40 7 9 18 16 24 16 21 0 57 44 57 70 0 45 19 45 58 0z m280 8 c-6 -18
-28 -21 -28 -4 0 9 7 16 16 16 9 0 14 -5 12 -12z m61 -23 c2 -13 -1 -16 -14
-11 -9 3 -19 6 -21 6 -2 0 -4 6 -4 14 0 21 34 12 39 -9z m85 -27 c-3 -5 -12
-4 -20 3 -7 6 -11 15 -8 21 3 5 12 4 20 -3 7 -6 11 -15 8 -21z m2586 28 c0 -3
-4 -8 -10 -11 -5 -3 -10 -1 -10 4 0 6 5 11 10 11 6 0 10 -2 10 -4z m-2647 -36
c4 -17 2 -18 -14 -9 -11 5 -17 14 -14 20 10 15 22 10 28 -11z m87 -10 c0 -5
-5 -10 -11 -10 -5 0 -7 5 -4 10 3 6 8 10 11 10 2 0 4 -4 4 -10z m2450 0 c0 -5
-4 -10 -10 -10 -5 0 -10 5 -10 10 0 6 5 10 10 10 6 0 10 -4 10 -10z m-2570 -4
c0 -3 -4 -8 -10 -11 -5 -3 -10 -1 -10 4 0 6 5 11 10 11 6 0 10 -2 10 -4z m20
-26 c0 -5 -4 -10 -10 -10 -5 0 -10 5 -10 10 0 6 5 10 10 10 6 0 10 -4 10 -10z
m2879 -6 c50 -4 103 -23 125 -43 12 -12 30 -21 39 -21 10 0 20 -7 24 -16 4
-12 7 -13 14 -3 6 10 10 9 15 -4 4 -10 2 -23 -5 -30 -17 -17 -13 -67 8 -112
11 -22 25 -55 32 -72 8 -24 18 -33 34 -33 12 0 28 -7 35 -15 7 -8 18 -15 25
-15 7 0 15 -9 18 -20 3 -12 17 -22 35 -26 66 -13 39 -124 -30 -124 -21 0 -28
-5 -28 -19 0 -28 -68 -35 -72 -7 -5 36 -33 43 -89 22 -43 -15 -53 -15 -60 -4
-7 11 -11 10 -19 -2 -9 -13 -12 -12 -26 5 -8 11 -12 30 -10 42 3 11 3 35 0 52
-6 29 -9 31 -51 31 -45 0 -45 0 -37 -27 11 -41 9 -84 -6 -93 -20 -13 -12 -151
10 -158 20 -7 32 -81 19 -119 -13 -41 -29 -29 -29 24 0 17 -4 35 -10 38 -5 3
-10 24 -10 46 0 26 -4 38 -11 34 -6 -4 -8 -13 -5 -20 2 -7 -4 -42 -15 -77 -11
-34 -22 -76 -25 -91 -2 -15 -8 -35 -13 -45 -4 -9 -11 -38 -15 -64 -4 -25 -12
-51 -19 -56 -7 -6 -28 -44 -47 -86 -19 -42 -38 -76 -43 -76 -6 0 -5 5 0 13 5
6 18 32 27 57 10 25 24 61 33 80 29 67 32 76 49 145 9 39 18 112 20 163 2 51
5 98 7 105 1 7 -4 11 -11 9 -8 -1 -11 2 -8 7 4 5 3 12 -2 15 -14 8 -39 -63
-52 -149 -11 -73 -37 -168 -59 -220 -61 -142 -185 -353 -233 -396 -10 -9 -18
-20 -18 -23 0 -9 -47 -68 -135 -172 -33 -39 -77 -90 -97 -115 -20 -24 -39 -41
-42 -38 -3 3 3 15 14 27 11 12 20 24 20 27 0 4 19 30 43 59 23 29 53 68 67 86
14 18 35 44 48 56 12 13 22 26 22 30 0 4 8 14 18 23 10 9 29 32 42 51 13 19
27 37 30 40 3 3 17 21 30 40 13 19 27 37 30 40 17 16 120 218 154 305 16 39
33 99 38 135 5 36 12 92 17 125 4 33 4 64 0 69 -11 12 -21 -16 -24 -63 -4 -59
-4 -61 -21 -61 -8 0 -12 -5 -9 -10 4 -6 1 -17 -5 -25 -8 -9 -8 -15 -2 -15 6 0
13 6 15 13 3 7 6 5 6 -5 1 -10 -3 -18 -9 -18 -5 0 -10 -7 -10 -16 0 -9 -8 -23
-17 -31 -10 -8 -13 -12 -6 -9 22 11 25 -15 4 -30 -15 -11 -21 -26 -21 -55 0
-24 -4 -38 -10 -34 -8 5 -15 -22 -11 -47 0 -4 -6 -5 -14 -2 -8 4 -15 1 -15 -6
0 -7 -7 -10 -15 -6 -17 6 -21 -9 -5 -19 13 -8 13 -35 -1 -35 -5 0 -7 5 -4 10
3 6 1 10 -4 10 -11 0 -15 -26 -11 -64 1 -15 -3 -18 -20 -13 -18 5 -21 2 -17
-14 3 -11 0 -19 -6 -18 -24 3 -37 -1 -37 -11 0 -6 6 -10 13 -9 25 3 42 -1 32
-9 -6 -4 -21 -22 -34 -39 -12 -18 -29 -33 -37 -33 -8 0 -14 -4 -14 -10 0 -5
-7 -10 -15 -10 -9 0 -27 -11 -41 -25 -14 -14 -29 -25 -34 -25 -4 0 -6 -9 -3
-20 3 -11 1 -20 -5 -20 -23 0 -22 21 2 53 15 19 26 39 26 45 0 6 7 9 15 6 9
-4 15 0 15 9 0 8 17 37 38 64 21 26 49 66 62 88 13 22 32 47 42 56 10 9 15 19
11 22 -3 4 2 16 12 27 9 10 15 26 12 35 -4 8 -2 15 3 15 6 0 10 6 10 14 0 7 7
19 15 26 8 7 15 25 15 41 0 16 4 29 9 29 4 0 7 11 6 25 -2 14 1 25 6 25 10 0
8 28 -4 47 -4 7 1 17 12 25 18 13 26 43 37 148 3 30 12 87 20 125 18 87 17
133 -1 165 -19 33 -19 50 1 50 10 0 14 5 10 16 -6 16 6 12 35 -13 22 -19 66
-7 73 20 6 26 0 35 -16 19 -9 -9 -14 -6 -23 11 -8 16 -20 22 -44 23 -18 0 -36
6 -40 12 -10 17 -36 6 -49 -21 -10 -20 -11 -20 -11 -3 -1 20 25 118 40 151 6
12 8 13 5 3 -3 -11 0 -18 9 -18 9 0 12 6 8 17 -4 11 -3 14 5 9 7 -4 12 -19 13
-34 0 -26 1 -26 9 -4 5 12 18 22 28 22 10 0 22 4 28 9 9 10 102 19 118 12 5
-2 21 -5 35 -7z m-2829 -35 c0 -6 -4 -7 -10 -4 -5 3 -10 11 -10 16 0 6 5 7 10
4 6 -3 10 -11 10 -16z m2440 -13 c0 -16 -28 -42 -36 -33 -7 6 18 47 28 47 5 0
8 -6 8 -14z m-2735 -104 c-8 -9 -15 3 -20 39 l-6 34 16 -34 c8 -19 13 -36 10
-39z m2670 38 c3 -5 1 -10 -4 -10 -6 0 -11 5 -11 10 0 6 2 10 4 10 3 0 8 -4
11 -10z m-10 -60 c-16 -16 -37 -32 -47 -36 -12 -3 -18 -15 -18 -35 0 -22 -5
-29 -20 -29 -11 0 -20 7 -20 15 0 8 5 15 10 15 6 0 10 8 10 18 1 27 49 77 62
64 8 -8 15 -7 25 4 28 28 26 14 -2 -16z m-2315 -10 c0 -5 -10 -10 -22 -9 -22
0 -22 1 -3 9 11 5 21 9 23 9 1 1 2 -3 2 -9z m-70 -30 c0 -5 -2 -10 -4 -10 -3
0 -8 5 -11 10 -3 6 -1 10 4 10 6 0 11 -4 11 -10z m40 -40 c0 -5 -5 -10 -11
-10 -5 0 -7 5 -4 10 3 6 8 10 11 10 2 0 4 -4 4 -10z m2220 -20 c0 -5 -7 -10
-16 -10 -8 0 -12 5 -9 10 3 6 10 10 16 10 5 0 9 -4 9 -10z m-2089 -46 c20 -25
-5 -23 -50 4 -3 1 4 10 15 21 17 16 19 16 23 2 2 -9 7 -21 12 -27z m2163 27
c3 -5 -1 -11 -9 -15 -15 -6 -29 7 -18 18 9 9 21 8 27 -3z m-2886 -48 c-2 -31
-8 -39 -31 -47 -34 -12 -64 9 -34 25 9 6 17 16 17 22 0 17 21 37 38 37 9 0 12
-11 10 -37z m2822 8 c-6 -12 -8 -21 -5 -21 4 0 -1 -7 -9 -16 -9 -8 -16 -23
-16 -32 0 -14 -2 -15 -10 -2 -6 10 -4 20 6 31 7 8 14 22 14 30 0 16 21 42 28
35 2 -2 -1 -14 -8 -25z m40 -5 c0 -11 -19 -15 -25 -6 -3 5 1 10 9 10 9 0 16
-2 16 -4z m-2140 -22 c0 -2 -13 -4 -30 -4 -16 0 -30 4 -30 8 0 5 14 7 30 4 17
-2 30 -6 30 -8z m-105 -24 c3 -5 1 -10 -4 -10 -6 0 -11 5 -11 10 0 6 2 10 4
10 3 0 8 -4 11 -10z m83 -12 c-2 -7 4 -11 12 -10 8 2 12 0 8 -4 -4 -4 0 -12 9
-19 9 -7 13 -17 9 -23 -9 -15 -36 -4 -36 14 0 8 -7 14 -15 14 -8 0 -15 9 -15
20 0 11 7 20 15 20 8 0 14 -6 13 -12z m92 -38 c0 -5 -4 -10 -10 -10 -5 0 -10
5 -10 10 0 6 5 10 10 10 6 0 10 -4 10 -10z m2310 -36 c0 -8 -5 -12 -10 -9 -6
4 -8 11 -5 16 9 14 15 11 15 -7z m-2145 -134 c-4 -12 -9 -19 -12 -17 -3 3 -2
15 2 27 4 12 9 19 12 17 3 -3 2 -15 -2 -27z m2305 -77 c-11 -17 -11 -17 -6 0
3 10 6 24 7 30 0 9 2 9 5 0 3 -7 0 -20 -6 -30z m-2190 12 c0 -8 -2 -15 -4 -15
-2 0 -6 7 -10 15 -3 8 -1 15 4 15 6 0 10 -7 10 -15z m-736 -80 c4 -20 6 -64 6
-98 -3 -92 9 -216 25 -267 8 -25 21 -85 29 -135 8 -49 19 -112 25 -138 9 -40
9 -51 -4 -63 -8 -9 -15 -12 -16 -7 -5 68 -47 291 -59 312 -23 45 -45 431 -24
431 7 0 15 -16 18 -35z m2927 28 c0 -5 2 -19 3 -32 2 -14 -6 -33 -17 -44 -17
-17 -19 -18 -14 -3 4 10 7 33 7 52 0 19 5 34 10 34 6 0 10 -3 11 -7z m-2063
-25 c17 -17 15 -48 -3 -48 -18 0 -20 30 -2 30 6 1 1 7 -13 15 -16 9 -19 14 -9
15 8 0 20 -5 27 -12z m1252 2 c0 -5 -4 -10 -10 -10 -5 0 -10 5 -10 10 0 6 5
10 10 10 6 0 10 -4 10 -10z m634 -42 c-3 -12 -20 -51 -36 -87 -16 -37 -28 -67
-26 -67 2 -1 -4 -10 -13 -20 -9 -11 -23 -35 -32 -55 -9 -20 -23 -42 -32 -49
-8 -7 -12 -16 -9 -21 3 -5 0 -9 -6 -9 -6 0 -15 -10 -20 -22 -7 -19 -107 -153
-162 -218 -20 -24 -140 -162 -165 -190 -13 -14 -23 -28 -23 -32 0 -5 -7 -8
-15 -8 -25 0 -17 30 20 68 19 20 35 40 35 44 0 4 17 25 38 46 45 47 72 80 72
88 0 2 15 22 34 42 64 70 106 131 100 147 -5 11 -2 14 11 9 14 -6 16 -3 10 17
-4 16 -3 20 3 11 7 -11 14 -6 31 21 11 19 21 37 21 41 0 4 11 19 25 34 14 15
25 30 25 34 0 4 18 37 40 73 22 36 40 68 40 71 0 7 32 54 37 54 2 0 1 -10 -3
-22z m-2860 -55 c4 -16 9 -55 11 -88 16 -215 16 -220 34 -310 5 -27 7 -53 5
-57 -2 -3 0 -9 6 -13 12 -8 13 -55 1 -55 -5 0 -8 8 -6 18 1 9 -1 24 -5 32 -14
27 -61 330 -64 417 -4 82 5 109 18 56z m1041 17 c3 -5 2 -10 -4 -10 -5 0 -13
5 -16 10 -3 6 -2 10 4 10 5 0 13 -4 16 -10z m235 -30 c0 -5 -4 -10 -10 -10 -5
0 -10 5 -10 10 0 6 5 10 10 10 6 0 10 -4 10 -10z m-126 -42 c-10 -16 -22 -7
-17 13 4 15 8 17 14 8 4 -7 5 -17 3 -21z m825 10 c12 -15 11 -18 -3 -18 -10 0
-16 8 -16 22 0 12 1 19 3 17 1 -2 9 -12 16 -21z m-36 -12 c4 -9 0 -13 -11 -11
-9 2 -19 4 -22 4 -4 1 21 20 26 21 1 0 4 -6 7 -14z m-623 -27 c0 -5 -4 -9 -10
-9 -5 0 -10 7 -10 16 0 8 5 12 10 9 6 -3 10 -10 10 -16z m30 11 c0 -5 -5 -10
-11 -10 -5 0 -7 5 -4 10 3 6 8 10 11 10 2 0 4 -4 4 -10z m1826 -114 c-42 -89
-66 -123 -66 -94 0 7 18 47 40 88 22 41 40 83 40 92 0 17 23 31 28 17 2 -5
-17 -51 -42 -103z m-1356 94 c0 -5 -4 -10 -10 -10 -5 0 -10 5 -10 10 0 6 5 10
10 10 6 0 10 -4 10 -10z m40 0 c0 -5 -4 -10 -10 -10 -5 0 -10 5 -10 10 0 6 5
10 10 10 6 0 10 -4 10 -10z m-1964 -31 c12 -19 -12 -32 -36 -19 -18 10 -20 14
-9 21 19 12 36 11 45 -2z m3399 -9 c0 -7 -6 -15 -12 -17 -8 -3 -13 4 -13 17 0
13 5 20 13 18 6 -3 12 -11 12 -18z m-3248 -52 c-3 -8 -6 -5 -6 6 -1 11 2 17 5
13 3 -3 4 -12 1 -19z m3238 -47 c-7 -26 -17 -57 -24 -69 -6 -12 -9 -22 -6 -22
6 0 -50 -113 -74 -149 -10 -14 -44 -66 -77 -115 -87 -131 -86 -130 -124 -174
-19 -23 -46 -56 -60 -73 -40 -51 -120 -133 -124 -128 -2 2 22 33 55 67 32 35
59 70 59 78 0 8 4 14 8 14 5 0 24 21 43 48 18 26 41 56 51 66 10 11 18 23 18
27 0 4 18 35 40 68 22 33 40 63 40 66 0 3 17 32 38 63 57 86 96 176 129 292 3
12 6 12 12 1 5 -7 3 -34 -4 -60z m-3335 -11 c0 -10 -7 -7 -20 10 -11 14 -20
32 -20 40 0 10 7 7 20 -10 11 -14 20 -32 20 -40z m118 15 c-3 -3 -9 2 -12 12
-6 14 -5 15 5 6 7 -7 10 -15 7 -18z m-295 -10 c-22 -29 -33 -32 -33 -6 0 19
12 29 38 30 9 1 8 -6 -5 -24z m3547 -15 c0 -5 -7 -10 -15 -10 -8 0 -15 5 -15
10 0 6 7 10 15 10 8 0 15 -4 15 -10z m-3450 -20 c-14 -10 -27 -17 -29 -15 -8
8 22 35 38 35 12 0 10 -5 -9 -20z m3495 10 c-3 -5 -10 -10 -16 -10 -5 0 -9 5
-9 10 0 6 7 10 16 10 8 0 12 -4 9 -10z m-3157 -38 c0 -9 1 -23 3 -31 2 -7 -2
-16 -8 -18 -9 -3 -13 8 -13 37 0 23 4 39 9 35 6 -3 9 -13 9 -23z m3102 8 c0
-5 -2 -10 -4 -10 -3 0 -8 5 -11 10 -3 6 -1 10 4 10 6 0 11 -4 11 -10z m-3600
-12 c0 -13 -37 -28 -64 -26 -13 1 -22 6 -19 11 12 20 83 33 83 15z m2859 -35
c-25 -27 -53 -60 -64 -74 -11 -14 -30 -31 -43 -38 -12 -6 -22 -18 -22 -26 0
-8 -8 -19 -17 -24 -10 -6 -14 -11 -9 -11 5 0 3 -7 -4 -15 -11 -13 -14 -13 -26
2 -12 16 -13 15 -11 -12 2 -24 -2 -30 -18 -30 -11 0 -20 -7 -21 -15 -1 -25
-15 -60 -24 -60 -5 0 -7 -7 -4 -15 4 -8 1 -15 -5 -15 -7 0 -14 6 -17 14 -7 18
-59 40 -73 31 -7 -4 -8 0 -5 10 4 9 31 30 60 47 30 16 54 34 54 38 0 5 37 37
83 73 45 36 105 88 134 116 66 64 91 67 32 4z m541 28 c0 -5 -7 -11 -14 -14
-10 -4 -13 -1 -9 9 6 15 23 19 23 5z m-3374 -95 c-16 -49 -31 -122 -75 -351
-53 -275 -93 -470 -97 -474 -7 -7 -5 33 5 90 5 30 14 83 20 119 42 265 114
589 141 641 6 10 11 28 11 41 1 19 2 20 6 4 3 -10 -2 -42 -11 -70z m3580 55
c-8 -13 -36 -15 -36 -3 0 4 5 13 12 20 14 14 34 0 24 -17z m-3206 -12 c0 -6
-4 -7 -10 -4 -5 3 -10 11 -10 16 0 6 5 7 10 4 6 -3 10 -11 10 -16z m2830 7 c0
-2 -7 -9 -15 -16 -13 -11 -14 -10 -9 4 5 14 24 23 24 12z m-2685 -16 c3 -5 -1
-10 -9 -10 -10 0 -17 -9 -17 -22 l-2 -23 -4 23 c-2 12 -9 22 -14 22 -5 0 -9 5
-9 10 0 6 11 10 24 10 14 0 28 -4 31 -10z m-575 -4 c0 -2 -8 -10 -17 -17 -16
-13 -17 -12 -4 4 13 16 21 21 21 13z m250 -39 c0 -7 39 -67 51 -77 15 -14 50
-82 47 -92 -5 -15 -128 186 -128 210 0 9 29 -32 30 -41z m3190 24 c0 -6 -4
-13 -10 -16 -5 -3 -10 1 -10 9 0 9 5 16 10 16 6 0 10 -4 10 -9z m-2706 -16 c3
-8 1 -15 -4 -15 -6 0 -10 7 -10 15 0 8 2 15 4 15 2 0 6 -7 10 -15z m-894 -23
c0 -14 -11 -21 -26 -15 -21 8 -17 23 6 23 11 0 20 -4 20 -8z m3530 -2 c0 -5
-5 -10 -11 -10 -5 0 -7 5 -4 10 3 6 8 10 11 10 2 0 4 -4 4 -10z m-2810 -15 c0
-8 -4 -15 -10 -15 -5 0 -7 7 -4 15 4 8 8 15 10 15 2 0 4 -7 4 -15z m205 5 c3
-6 -1 -7 -9 -4 -18 7 -21 14 -7 14 6 0 13 -4 16 -10z m-184 -23 c-10 -9 -11
-8 -5 6 3 10 9 15 12 12 3 -3 0 -11 -7 -18z m209 -8 c0 -13 25 -39 38 -39 5 0
16 -7 23 -17 13 -15 11 -16 -14 -9 -44 11 -97 76 -62 76 8 0 15 -5 15 -11z
m-1094 -24 c-27 -14 -51 -23 -53 -21 -5 5 40 33 62 39 41 10 38 5 -9 -18z
m160 -3 c-18 -16 -18 -16 -6 6 6 13 14 21 18 18 3 -4 -2 -14 -12 -24z m824
-14 c0 -9 -4 -20 -10 -23 -6 -4 -10 9 -10 32 0 28 3 34 10 23 5 -8 10 -23 10
-32z m2653 27 c-3 -9 -8 -14 -10 -11 -3 3 -2 9 2 15 9 16 15 13 8 -4z m-2763
-15 c0 -11 5 -20 10 -20 6 0 10 8 8 17 -2 10 4 19 13 21 28 5 11 -46 -20 -61
-27 -13 -27 -13 -26 25 0 21 3 38 8 38 4 0 7 -9 7 -20z m-780 -13 c0 -13 -7
-32 -15 -43 -13 -18 -14 -17 -15 17 0 20 3 39 7 42 13 14 23 7 23 -16z m420
-41 c-1 -20 -30 27 -30 48 0 18 3 16 15 -8 8 -15 15 -33 15 -40z m3965 54 c-3
-5 -11 -10 -16 -10 -6 0 -7 5 -4 10 3 6 11 10 16 10 6 0 7 -4 4 -10z m-4560
-20 c-3 -5 -10 -10 -16 -10 -5 0 -9 5 -9 10 0 6 7 10 16 10 8 0 12 -4 9 -10z
m4354 -64 c7 -36 5 -57 -5 -80 -12 -27 -13 -28 -14 -8 0 13 -4 21 -9 17 -24
-14 -31 59 -10 113 13 34 27 18 38 -42z m-3569 51 c0 -1 4 -17 9 -35 12 -40
-3 -33 -17 8 -7 18 -7 30 -1 30 5 0 9 -1 9 -3z m2504 -23 c3 -8 2 -12 -4 -9
-6 3 -10 10 -10 16 0 14 7 11 14 -7z m584 -32 c-7 -18 -16 -32 -20 -32 -4 0
-8 -7 -8 -16 0 -9 -18 -38 -40 -64 -22 -26 -40 -57 -40 -69 0 -11 -4 -21 -9
-21 -5 0 -8 11 -7 25 0 14 5 25 10 25 5 0 6 3 3 6 -5 5 43 84 63 104 3 3 16
22 30 42 29 43 34 43 18 0z m795 23 c8 -19 -13 -31 -24 -14 -13 20 -11 29 5
29 8 0 16 -7 19 -15z m-4678 -78 c-43 -134 -55 -176 -55 -194 -1 -10 -7 -29
-16 -43 -15 -25 -15 -25 -9 10 3 19 20 80 36 135 17 55 35 117 41 137 6 21 14
35 19 33 4 -3 -3 -38 -16 -78z m3625 79 c0 -3 -4 -8 -10 -11 -5 -3 -10 -1 -10
4 0 6 5 11 10 11 6 0 10 -2 10 -4z m807 -61 c3 -48 -25 -199 -73 -384 -31
-119 -72 -303 -88 -396 -3 -16 -14 -75 -25 -130 -11 -55 -24 -125 -30 -155
l-9 -55 3 75 c4 73 13 148 34 260 45 246 74 390 96 479 14 57 32 140 40 185 7
45 17 89 20 98 4 9 2 25 -4 36 -12 22 -4 34 18 30 10 -2 16 -17 18 -43z m133
10 c0 -7 -6 -18 -14 -24 -11 -10 -16 -8 -21 8 -8 28 -19 26 -35 -4 -24 -44
-60 -27 -39 19 18 39 109 40 109 1z m-3940 -1 c-1 -4 2 -10 7 -13 14 -9 73
-120 73 -137 0 -8 7 -14 15 -14 8 0 15 -8 15 -19 0 -10 7 -24 15 -31 8 -7 15
-18 15 -25 0 -7 6 -17 13 -24 8 -6 26 -37 41 -68 15 -32 32 -66 38 -76 5 -11
8 -21 5 -23 -6 -6 -97 135 -97 150 0 8 -6 19 -14 25 -7 6 -28 40 -45 76 -18
35 -36 67 -41 70 -6 4 -10 13 -10 22 0 9 -12 31 -26 50 -17 22 -23 40 -19 51
5 11 9 13 12 5 2 -7 4 -15 3 -19z m2600 16 c0 -5 -9 -14 -19 -20 -17 -8 -20
-7 -18 10 1 20 37 30 37 10z m778 -53 c-6 -20 -15 -37 -20 -37 -5 0 -6 -5 -3
-10 7 -12 -16 -70 -28 -70 -4 0 -5 -12 -2 -27 4 -23 4 -25 -4 -8 -5 11 -10 14
-10 8 -1 -7 -5 -13 -10 -13 -6 0 -3 12 5 28 7 15 14 35 14 45 0 9 5 17 10 17
6 0 10 9 10 19 0 11 5 23 10 26 6 3 10 15 10 26 0 10 5 19 11 19 6 0 8 7 4 18
-4 12 -3 14 4 7 7 -7 7 -22 -1 -48z m-2891 37 c-3 -3 -12 -4 -19 -1 -8 3 -5 6
6 6 11 1 17 -2 13 -5z m3611 -23 c29 -12 44 -31 23 -31 -39 0 -71 14 -71 32 0
11 3 18 8 16 4 -3 22 -10 40 -17z m-4601 -28 c-3 -10 -5 -4 -5 12 0 17 2 24 5
18 2 -7 2 -21 0 -30z m623 16 c0 -5 -4 -9 -10 -9 -5 0 -10 7 -10 16 0 8 5 12
10 9 6 -3 10 -10 10 -16z m80 5 c0 -8 -5 -12 -10 -9 -6 4 -8 11 -5 16 9 14 15
11 15 -7z m280 5 c0 -6 7 -9 15 -6 8 4 17 2 20 -3 10 -16 -32 -11 -45 5 -9 10
-9 15 -1 15 6 0 11 -5 11 -11z m2052 -15 c-12 -8 -22 -21 -22 -29 0 -8 -4 -17
-10 -20 -6 -4 -6 4 1 22 10 28 26 43 44 43 5 0 -1 -7 -13 -16z m-2258 -26 c13
-9 8 -13 -24 -23 -20 -6 -23 -5 -12 6 6 7 12 22 13 34 0 14 2 16 6 5 3 -8 11
-18 17 -22z m156 7 c0 -8 -4 -15 -10 -15 -5 0 -10 7 -10 15 0 8 5 15 10 15 6
0 10 -7 10 -15z m3431 -31 c-9 -28 -9 -29 -10 -3 -1 14 2 29 6 32 11 12 13 2
4 -29z m-1281 16 c0 -5 -2 -10 -4 -10 -3 0 -8 5 -11 10 -3 6 -1 10 4 10 6 0
11 -4 11 -10z m-3050 -50 c-17 -32 -22 -18 -8 21 8 22 13 28 16 17 2 -9 -2
-27 -8 -38z m2770 41 c0 -13 -29 -35 -37 -28 -7 8 15 37 28 37 5 0 9 -4 9 -9z
m-1830 -10 c0 -5 16 -19 35 -32 34 -23 44 -39 26 -39 -12 0 -81 61 -81 72 0 4
5 8 10 8 6 0 10 -4 10 -9z m2060 -7 c0 -8 -5 -12 -10 -9 -6 4 -8 11 -5 16 9
14 15 11 15 -7z m1510 -13 c0 -11 -4 -22 -9 -25 -5 -3 -7 -15 -4 -25 3 -11 -9
-63 -25 -118 -51 -166 -114 -376 -122 -408 -11 -44 -38 -102 -39 -84 -1 9 8
51 20 95 27 102 43 162 67 254 43 162 74 265 83 275 5 5 9 19 9 32 0 13 5 23
10 23 6 0 10 -9 10 -19z m-3339 -4 c-1 -12 -15 -9 -19 4 -3 6 1 10 8 8 6 -3
11 -8 11 -12z m1543 -6 c-5 -5 -33 -21 -62 -36 -29 -15 -57 -36 -63 -46 -5
-11 -14 -19 -19 -19 -9 0 -18 -6 -72 -52 -22 -19 -58 -24 -58 -9 0 13 43 46
80 61 16 7 30 16 30 21 0 5 4 9 10 9 5 0 32 16 60 36 27 20 50 33 50 29 0 -3
10 1 22 9 22 16 40 13 22 -3z m1861 -19 c-19 -4 -37 16 -28 31 3 4 14 0 25
-10 18 -16 19 -18 3 -21z m-1785 15 c0 -11 -29 -27 -102 -59 -13 -5 -18 -3
-18 7 0 8 18 19 43 26 23 7 49 18 57 26 18 16 20 16 20 0z m1521 -44 c-9 -17
-10 -17 -16 0 -4 9 -4 25 0 35 6 16 7 16 16 0 7 -12 7 -24 0 -35z m-1384 25
c1 -7 4 -28 8 -45 5 -22 4 -33 -4 -33 -6 0 -11 8 -11 17 0 9 -7 24 -16 34 -17
19 -12 39 10 39 7 0 13 -6 13 -12z m988 -7 c3 -5 1 -12 -5 -16 -5 -3 -10 1
-10 9 0 18 6 21 15 7z m729 -7 c9 -8 16 -27 15 -42 0 -15 -3 -21 -6 -14 -2 6
-9 12 -15 12 -18 0 -47 44 -35 52 17 11 24 10 41 -8z m-4654 2 c0 -3 -4 -8
-10 -11 -5 -3 -10 -1 -10 4 0 6 5 11 10 11 6 0 10 -2 10 -4z m640 -6 c0 -5 -2
-10 -4 -10 -3 0 -8 5 -11 10 -3 6 -1 10 4 10 6 0 11 -4 11 -10z m80 -11 c0
-11 -4 -17 -10 -14 -5 3 -10 13 -10 21 0 8 5 14 10 14 6 0 10 -9 10 -21z
m2260 12 c0 -6 -4 -13 -10 -16 -5 -3 -10 1 -10 9 0 9 5 16 10 16 6 0 10 -4 10
-9z m226 -23 c-9 -12 -16 -19 -16 -15 0 11 24 47 28 42 2 -2 -3 -14 -12 -27z
m366 -1 c-7 -12 -37 -96 -68 -187 -56 -164 -63 -182 -103 -272 -11 -26 -21
-55 -21 -63 0 -8 -4 -15 -10 -15 -5 0 -10 -6 -10 -14 0 -7 -7 -27 -15 -42 -22
-42 -18 -18 6 46 20 53 117 337 140 410 28 94 74 179 87 165 3 -3 0 -15 -6
-28z m-738 -3 c9 -24 2 -26 -12 -4 -7 11 -8 20 -3 20 5 0 12 -7 15 -16z
m-2538 -86 c-6 -117 -14 -198 -26 -268 -5 -30 -19 -122 -31 -203 -12 -81 -23
-146 -26 -144 -3 4 19 219 32 304 6 38 22 187 30 263 7 81 17 140 22 140 2 0
2 -42 -1 -92z m220 -9 c2 -46 6 -112 9 -147 6 -84 -11 -71 -19 15 -15 160 -18
238 -6 227 6 -6 13 -49 16 -95z m3404 84 c0 -3 -9 -16 -19 -29 l-19 -24 -6 25
c-4 14 -4 30 -1 35 5 8 45 2 45 -7z m667 -20 c-3 -3 -11 -2 -17 2 -8 5 -7 11
2 22 12 15 13 14 16 -1 2 -10 1 -20 -1 -23z m-4529 -5 c-5 -18 -13 -49 -18
-68 -7 -31 -14 -61 -50 -210 -24 -102 -30 -133 -30 -160 0 -17 -4 -30 -9 -30
-9 0 -9 2 14 135 33 190 78 365 95 365 5 0 4 -15 -2 -32z m3723 -22 c-13 -33
-21 -34 -19 -2 1 14 6 22 10 20 4 -3 8 0 8 7 0 7 2 10 5 7 3 -3 1 -17 -4 -32z
m-44 -18 c-3 -7 -5 -2 -5 12 0 14 2 19 5 13 2 -7 2 -19 0 -25z m-2750 7 c6
-17 -26 -47 -39 -39 -13 8 -9 42 5 47 21 9 27 7 34 -8z m-232 -5 c3 -5 1 -10
-4 -10 -6 0 -11 5 -11 10 0 6 2 10 4 10 3 0 8 -4 11 -10z m2219 -16 c-13 -18
-20 -22 -28 -14 -8 8 -6 15 8 26 30 22 38 17 20 -12z m170 11 c-6 -16 -24 -21
-24 -7 0 11 11 22 21 22 5 0 6 -7 3 -15z m-2564 -15 c0 -5 -5 -10 -11 -10 -5
0 -7 5 -4 10 3 6 8 10 11 10 2 0 4 -4 4 -10z m2018 -11 c2 -10 -9 -14 -43 -14
-25 0 -45 1 -45 3 0 6 65 31 75 28 6 -1 11 -9 13 -17z m262 6 c0 -8 -7 -15
-16 -15 -14 0 -14 3 -4 15 7 8 14 15 16 15 2 0 4 -7 4 -15z m997 -17 c-3 -7
-5 -2 -5 12 0 14 2 19 5 13 2 -7 2 -19 0 -25z m-4090 -20 c-3 -7 -5 -2 -5 12
0 14 2 19 5 13 2 -7 2 -19 0 -25z m2903 28 c0 -3 -4 -8 -10 -11 -5 -3 -10 -1
-10 4 0 6 5 11 10 11 6 0 10 -2 10 -4z m434 -11 c-4 -8 -11 -15 -16 -15 -6 0
-5 6 2 15 7 8 14 15 16 15 2 0 1 -7 -2 -15z m-2639 -212 c-9 -288 -12 -343
-21 -351 -3 -4 -4 109 0 251 6 238 12 317 23 317 2 0 1 -98 -2 -217z m320 207
c3 -5 1 -10 -4 -10 -6 0 -11 5 -11 10 0 6 2 10 4 10 3 0 8 -4 11 -10z m2015 2
c0 -5 -18 -15 -39 -22 -22 -7 -62 -30 -90 -51 -28 -22 -55 -39 -60 -39 -4 0
-25 -11 -46 -25 -20 -14 -45 -23 -54 -20 -10 3 -27 -4 -39 -15 -17 -16 -22
-17 -22 -6 0 19 27 46 46 46 8 0 29 8 47 17 18 9 37 18 44 19 7 1 26 12 42 23
16 12 34 21 40 21 14 0 90 40 97 51 7 11 34 12 34 1z m960 -32 c0 -3 -9 -11
-20 -18 -17 -10 -20 -10 -20 4 0 8 5 12 10 9 6 -3 10 4 10 17 0 18 2 20 10 8
5 -8 10 -17 10 -20z m-1265 0 c-3 -5 -11 -10 -16 -10 -6 0 -7 5 -4 10 3 6 11
10 16 10 6 0 7 -4 4 -10z m385 -11 c0 -13 -47 -22 -67 -14 -15 6 -13 9 12 20
30 13 55 10 55 -6z m80 11 c0 -5 -4 -10 -10 -10 -5 0 -10 5 -10 10 0 6 5 10
10 10 6 0 10 -4 10 -10z m731 -73 c-6 -6 -14 -8 -18 -4 -4 4 -1 13 5 19 7 7
13 26 14 43 1 25 2 24 5 -9 3 -21 0 -43 -6 -49z m-2934 51 c-3 -8 -6 -5 -6 6
-1 11 2 17 5 13 3 -3 4 -12 1 -19z m1843 18 c0 -3 -4 -8 -10 -11 -5 -3 -10 -1
-10 4 0 6 5 11 10 11 6 0 10 -2 10 -4z m2126 -32 c-5 -19 -10 -24 -17 -17 -8
8 -7 18 1 33 15 28 24 19 16 -16z m-1446 -54 c-47 -44 -88 -80 -92 -80 -5 0
-36 -27 -70 -59 -35 -33 -65 -57 -68 -54 -3 2 15 23 40 45 25 23 72 66 106 97
91 84 148 131 158 131 6 0 -28 -36 -74 -80z m-3523 48 c-3 -8 -6 -5 -6 6 -1
11 2 17 5 13 3 -3 4 -12 1 -19z m2720 -3 c6 -14 9 -25 6 -25 -9 0 -33 29 -33
39 0 19 15 11 27 -14z m28 5 c-3 -4 0 -11 5 -13 6 -3 5 -4 -2 -3 -7 1 -15 11
-16 21 -3 11 0 15 7 10 6 -3 9 -10 6 -15z m912 -16 c-15 -14 -27 -22 -27 -18
0 12 43 54 49 49 3 -3 -7 -17 -22 -31z m-444 -1 c-7 -2 -19 -2 -25 0 -7 3 -2
5 12 5 14 0 19 -2 13 -5z m-2149 -38 c-4 -8 -10 -12 -15 -9 -11 6 -2 24 11 24
5 0 7 -7 4 -15z m407 -18 c-16 -16 -26 0 -10 19 9 11 15 12 17 4 2 -6 -1 -17
-7 -23z m2155 -3 c-3 -8 0 -14 6 -14 6 0 8 -3 5 -6 -11 -11 -36 16 -30 32 3 7
9 11 15 8 5 -3 7 -12 4 -20z m311 -6 c-3 -7 -5 -2 -5 12 0 14 2 19 5 13 2 -7
2 -19 0 -25z m873 13 c0 -20 -27 -48 -37 -37 -8 7 17 56 29 56 4 0 8 -8 8 -19z
m-900 -1 c0 -5 -5 -10 -11 -10 -5 0 -7 5 -4 10 3 6 8 10 11 10 2 0 4 -4 4 -10z
m177 -12 c-3 -8 -6 -5 -6 6 -1 11 2 17 5 13 3 -3 4 -12 1 -19z m-3162 2 c3 -5
1 -10 -4 -10 -6 0 -11 5 -11 10 0 6 2 10 4 10 3 0 8 -4 11 -10z m2685 -19 c0
-19 -12 -41 -20 -36 -10 6 -1 45 11 45 5 0 9 -4 9 -9z m-670 -11 c0 -5 -4 -10
-10 -10 -5 0 -10 5 -10 10 0 6 5 10 10 10 6 0 10 -4 10 -10z m86 -9 c-8 -12
-66 -32 -66 -22 0 4 12 12 28 18 35 14 44 15 38 4z m130 -18 c-10 -10 -19 5
-10 18 6 11 8 11 12 0 2 -7 1 -15 -2 -18z m-2056 7 c0 -5 -7 -10 -15 -10 -8 0
-15 5 -15 10 0 6 7 10 15 10 8 0 15 -4 15 -10z m2790 -20 c0 -5 -4 -10 -10
-10 -5 0 -10 5 -10 10 0 6 5 10 10 10 6 0 10 -4 10 -10z m-1164 -14 c16 -17
18 -42 4 -51 -5 -3 -10 1 -10 11 0 13 -3 14 -14 5 -10 -8 -16 -9 -21 -1 -3 5
0 13 9 16 8 3 12 12 9 20 -7 18 4 18 23 0z m76 -9 c-12 -6 -22 -16 -22 -24 0
-7 -4 -13 -10 -13 -5 0 -10 9 -10 20 0 13 7 20 20 20 11 0 20 5 20 11 0 5 5 7
12 3 8 -5 5 -11 -10 -17z m-1607 -9 c6 -4 2 -8 -7 -8 -10 0 -18 7 -18 17 0 9
3 12 8 7 4 -5 12 -12 17 -16z m1750 12 c-3 -5 -11 -10 -16 -10 -6 0 -7 5 -4
10 3 6 11 10 16 10 6 0 7 -4 4 -10z m-1795 -35 c0 -8 -7 -15 -15 -15 -13 0
-14 3 -3 15 16 18 18 18 18 0z m2767 -7 c-3 -8 -6 -5 -6 6 -1 11 2 17 5 13 3
-3 4 -12 1 -19z m-2919 -13 c-3 -3 -9 2 -12 12 -6 14 -5 15 5 6 7 -7 10 -15 7
-18z m2105 -5 c-3 -12 -8 -19 -11 -16 -5 6 5 36 12 36 2 0 2 -9 -1 -20z m457
4 c0 -8 -5 -12 -10 -9 -6 4 -8 11 -5 16 9 14 15 11 15 -7z m1295 -64 c-29 -57
-45 -63 -21 -9 7 19 20 48 27 64 9 22 13 25 16 13 2 -9 -8 -40 -22 -68z
m-1263 48 c-7 -7 -12 -8 -12 -2 0 14 12 26 19 19 2 -3 -1 -11 -7 -17z m-2352
-4 c0 -8 -4 -12 -10 -9 -5 3 -10 10 -10 16 0 5 5 9 10 9 6 0 10 -7 10 -16z
m230 6 c0 -5 -4 -10 -10 -10 -5 0 -10 5 -10 10 0 6 5 10 10 10 6 0 10 -4 10
-10z m1296 -30 c-40 -20 -59 -19 -50 3 2 7 23 13 47 14 l42 2 -39 -19z m314
-6 c0 -8 -5 -12 -10 -9 -6 4 -8 11 -5 16 9 14 15 11 15 -7z m477 -2 c0 -10 -7
-19 -14 -19 -16 0 -16 4 0 22 16 18 16 18 14 -3z m338 8 c3 -5 1 -10 -4 -10
-6 0 -11 5 -11 10 0 6 2 10 4 10 3 0 8 -4 11 -10z m-2845 -30 c0 -5 -4 -10
-10 -10 -5 0 -10 5 -10 10 0 6 5 10 10 10 6 0 10 -4 10 -10z m110 0 c0 -5 -4
-10 -9 -10 -6 0 -13 5 -16 10 -3 6 1 10 9 10 9 0 16 -4 16 -10z m256 -17 c-10
-10 -19 5 -10 18 6 11 8 11 12 0 2 -7 1 -15 -2 -18z m1524 12 c0 -8 -6 -15
-12 -15 -10 0 -10 -2 0 -9 11 -7 11 -16 2 -48 -13 -42 -50 -77 -50 -47 0 8 -4
13 -10 9 -5 -3 -7 -12 -4 -19 6 -16 -23 -49 -36 -41 -5 3 -7 20 -5 37 2 18 0
38 -6 44 -7 9 -5 12 8 10 10 -2 17 -11 17 -20 -1 -9 3 -15 10 -13 7 3 10 25 8
61 -1 33 2 56 8 56 5 0 10 -11 10 -24 0 -40 12 -86 23 -86 6 0 8 20 5 50 -5
45 4 70 24 70 4 0 8 -7 8 -15z m-1390 -5 c0 -5 -4 -10 -10 -10 -5 0 -10 5 -10
10 0 6 5 10 10 10 6 0 10 -4 10 -10z m-920 -10 c0 -5 -5 -10 -11 -10 -5 0 -7
5 -4 10 3 6 8 10 11 10 2 0 4 -4 4 -10z m834 -40 c-10 -22 -23 -40 -27 -40 -5
0 -6 3 -4 8 2 4 12 24 21 45 10 21 20 36 23 33 4 -3 -2 -24 -13 -46z m-115
-81 c7 -51 10 -93 8 -95 -8 -8 -35 102 -41 161 -8 98 19 43 33 -66z m1489 93
c2 -12 -1 -22 -7 -22 -6 0 -11 7 -11 15 0 9 -6 12 -15 9 -15 -6 -21 7 -8 20
14 13 38 1 41 -22z m862 14 c0 -3 -4 -8 -10 -11 -5 -3 -10 -1 -10 4 0 6 5 11
10 11 6 0 10 -2 10 -4z m-928 -38 c8 -13 18 -36 22 -53 10 -40 8 -177 -3 -188
-5 -5 -8 27 -8 76 0 58 -4 93 -14 109 -30 48 -40 78 -25 78 8 0 20 -10 28 -22z
m594 -13 c-8 -9 -20 -24 -25 -33 -5 -9 -12 -14 -16 -10 -4 3 6 20 21 37 15 17
29 29 32 26 2 -2 -3 -11 -12 -20z m-2326 -34 c-1 -12 -5 -10 -20 8 -26 30 -26
49 0 26 11 -10 20 -25 20 -34z m1984 24 c3 -8 1 -15 -4 -15 -6 0 -10 7 -10 15
0 8 2 15 4 15 2 0 6 -7 10 -15z m-1410 -39 c55 -30 68 -38 99 -62 38 -31 34
-40 -5 -12 -63 44 -82 55 -145 78 -37 14 -46 35 -10 24 12 -3 39 -16 61 -28z
m-371 -3 c3 -16 3 -32 -1 -37 -6 -11 -20 20 -21 47 -1 28 16 20 22 -10z m1757
12 c0 -8 -4 -15 -10 -15 -5 0 -7 7 -4 15 4 8 8 15 10 15 2 0 4 -7 4 -15z
m-1915 -45 c20 -21 26 -33 18 -41 -7 -7 -18 -1 -37 21 -45 54 -29 70 19 20z
m2467 -2 c-8 -8 -9 -4 -5 13 4 13 8 18 11 10 2 -7 -1 -18 -6 -23z m-2022 7
c-7 -8 -17 -15 -22 -15 -6 0 -5 7 2 15 7 8 17 15 22 15 6 0 5 -7 -2 -15z
m1720 12 c0 -9 -80 -87 -90 -87 -5 0 -10 -4 -10 -8 0 -5 -16 -17 -35 -28 -19
-10 -35 -22 -35 -27 0 -4 -4 -5 -10 -2 -19 11 -10 23 33 43 23 12 64 41 92 67
48 44 55 49 55 42z m-2630 -158 c-6 -57 -11 -109 -12 -116 -1 -7 -5 -10 -9 -7
-4 2 -4 17 1 32 5 15 11 74 14 132 5 116 7 128 13 89 2 -15 -1 -74 -7 -130z
m2700 135 c0 -8 -4 -12 -10 -9 -5 3 -10 10 -10 16 0 5 5 9 10 9 6 0 10 -7 10
-16z m-488 -36 c-7 -7 -12 -8 -12 -2 0 14 12 26 19 19 2 -3 -1 -11 -7 -17z
m-1284 -15 c37 -14 70 -31 74 -37 4 -6 8 -7 8 -3 0 10 81 -45 99 -67 21 -25
-1 -19 -31 9 -15 14 -30 25 -33 25 -3 0 -22 11 -43 24 -20 13 -63 32 -94 42
-32 10 -58 21 -58 26 0 12 5 11 78 -19z m2988 -39 c-4 -14 -10 -23 -15 -20 -4
3 -3 22 3 41 12 39 22 21 12 -21z m-4089 24 c-3 -8 -6 -5 -6 6 -1 11 2 17 5
13 3 -3 4 -12 1 -19z m717 16 c9 -3 16 -12 16 -20 0 -8 6 -11 15 -8 29 11 15
-15 -16 -30 l-31 -16 4 30 c3 17 1 30 -4 30 -4 0 -8 5 -8 10 0 12 3 12 24 4z
m1546 -14 c0 -11 -42 -31 -49 -24 -2 2 2 10 9 19 14 17 40 20 40 5z m880 6 c0
-3 -4 -8 -10 -11 -5 -3 -10 -1 -10 4 0 6 5 11 10 11 6 0 10 -2 10 -4z m-2460
-16 c0 -5 -5 -10 -11 -10 -5 0 -7 5 -4 10 3 6 8 10 11 10 2 0 4 -4 4 -10z
m365 -8 c-3 -3 -11 0 -18 7 -9 10 -8 11 6 5 10 -3 15 -9 12 -12z m1485 -2 c0
-5 -4 -10 -10 -10 -5 0 -10 5 -10 10 0 6 5 10 10 10 6 0 10 -4 10 -10z m-1426
-19 c4 -5 -3 -7 -14 -4 -23 6 -26 13 -6 13 8 0 17 -4 20 -9z m51 -22 c4 -6 17
-14 29 -19 12 -5 15 -9 6 -9 -8 -1 -28 8 -45 19 -20 14 -25 20 -13 20 9 0 20
-5 23 -11z m1415 1 c0 -6 -11 -23 -25 -38 l-25 -27 10 35 c6 19 10 36 10 37 0
2 7 3 15 3 8 0 15 -5 15 -10z m1491 -77 c-9 -16 -10 -15 -11 7 0 14 4 36 8 50
7 24 7 24 10 -7 2 -18 -1 -41 -7 -50z m-4074 25 c-3 -7 -5 -2 -5 12 0 14 2 19
5 13 2 -7 2 -19 0 -25z m773 -3 c0 -8 -7 -15 -15 -15 -8 0 -15 7 -15 15 0 8 7
15 15 15 8 0 15 -7 15 -15z m1370 5 c0 -5 -5 -10 -11 -10 -5 0 -7 5 -4 10 3 6
8 10 11 10 2 0 4 -4 4 -10z m450 0 c0 -5 -4 -10 -10 -10 -5 0 -10 5 -10 10 0
6 5 10 10 10 6 0 10 -4 10 -10z m-1330 -10 c0 -5 -2 -10 -4 -10 -3 0 -8 5 -11
10 -3 6 -1 10 4 10 6 0 11 -4 11 -10z m80 -5 c7 -8 8 -15 2 -15 -5 0 -15 7
-22 15 -7 8 -8 15 -2 15 5 0 15 -7 22 -15z m760 -5 c-8 -6 -24 -9 -35 -9 -15
0 -13 4 10 14 32 14 49 10 25 -5z m160 0 c0 -6 -13 -10 -29 -10 -16 0 -38 -3
-48 -7 -15 -6 -16 -4 -6 9 14 16 83 23 83 8z m400 0 c0 -5 -4 -10 -10 -10 -5
0 -10 5 -10 10 0 6 5 10 10 10 6 0 10 -4 10 -10z m-620 -20 c0 -5 -8 -10 -17
-10 -15 0 -16 2 -3 10 19 12 20 12 20 0z m-639 -17 c13 -15 12 -15 -8 -4 -24
12 -29 21 -14 21 5 0 15 -7 22 -17z m1089 -6 c0 -2 -10 -15 -22 -28 -16 -18
-19 -19 -15 -6 4 10 7 23 7 28 0 5 7 9 15 9 8 0 15 -2 15 -3z m-366 -32 c-21
-16 -34 -19 -34 -7 0 8 42 30 49 25 3 -2 -4 -10 -15 -18z m1919 -21 c-8 -25
-17 -43 -20 -41 -6 6 21 87 29 87 4 0 0 -20 -9 -46z m-2656 30 c-3 -3 -12 -4
-19 -1 -8 3 -5 6 6 6 11 1 17 -2 13 -5z m43 -9 c-14 -17 -30 -20 -30 -4 0 5 5
7 10 4 6 -3 10 -1 10 4 0 6 5 11 11 11 8 0 8 -5 -1 -15z m1178 -37 c-8 -13
-18 -23 -25 -21 -7 3 -3 13 10 27 27 27 31 26 15 -6z m1112 23 c0 -6 -4 -13
-10 -16 -5 -3 -10 1 -10 9 0 9 5 16 10 16 6 0 10 -4 10 -9z m-1722 -18 c-10
-2 -28 -2 -40 0 -13 2 -5 4 17 4 22 1 32 -1 23 -4z m-1262 -45 c-5 -52 -8 -56
-15 -18 -8 37 -5 50 9 50 4 0 7 -15 6 -32z m2960 -24 c-12 -30 -25 -13 -13 19
8 23 12 27 15 14 2 -10 1 -25 -2 -33z m-1144 4 c-8 -8 -9 -4 -5 13 4 13 8 18
11 10 2 -7 -1 -18 -6 -23z m-1222 -18 c0 -5 -2 -10 -4 -10 -3 0 -8 5 -11 10
-3 6 -1 10 4 10 6 0 11 -4 11 -10z"/>
<path d="M3917 7150 c3 -11 7 -20 9 -20 2 0 4 9 4 20 0 11 -4 20 -9 20 -5 0
-7 -9 -4 -20z"/>
<path d="M4510 7132 c0 -10 5 -23 11 -29 6 -6 13 -33 15 -58 3 -57 14 -73 14
-22 0 21 5 37 10 37 6 0 10 -7 10 -15 0 -21 13 -19 28 6 12 19 10 25 -27 60
-44 43 -61 49 -61 21z"/>
<path d="M4502 6945 c0 -16 2 -22 5 -12 2 9 2 23 0 30 -3 6 -5 -1 -5 -18z"/>
<path d="M4827 6853 c-4 -3 -7 -11 -7 -17 0 -6 5 -5 12 2 6 6 9 14 7 17 -3 3
-9 2 -12 -2z"/>
<path d="M4736 6734 c-5 -14 -4 -15 9 -4 17 14 19 20 6 20 -5 0 -12 -7 -15
-16z"/>
<path d="M4700 6710 c-8 -5 -12 -12 -9 -15 4 -3 12 1 19 10 14 17 11 19 -10 5z"/>
<path d="M4975 6684 l-30 -14 40 3 c22 1 39 6 38 12 -2 15 -15 15 -48 -1z"/>
<path d="M4035 6590 c3 -5 10 -10 16 -10 5 0 9 5 9 10 0 6 -7 10 -16 10 -8 0
-12 -4 -9 -10z"/>
<path d="M3440 6570 c0 -5 5 -10 11 -10 5 0 7 5 4 10 -3 6 -8 10 -11 10 -2 0
-4 -4 -4 -10z"/>
<path d="M4810 6570 c0 -5 5 -10 10 -10 6 0 10 5 10 10 0 6 -4 10 -10 10 -5 0
-10 -4 -10 -10z"/>
<path d="M4235 6560 c-3 -5 -1 -10 4 -10 6 0 11 5 11 10 0 6 -2 10 -4 10 -3 0
-8 -4 -11 -10z"/>
<path d="M4760 6550 c0 -5 6 -10 14 -10 8 0 18 5 21 10 3 6 -3 10 -14 10 -12
0 -21 -4 -21 -10z"/>
<path d="M4640 6504 c1 -20 29 -44 59 -50 28 -6 31 -4 31 17 0 19 -5 24 -27
25 -16 0 -36 4 -45 8 -10 5 -18 4 -18 0z"/>
<path d="M4998 6463 c7 -3 16 -2 19 1 4 3 -2 6 -13 5 -11 0 -14 -3 -6 -6z"/>
<path d="M4765 6361 c-7 -13 34 -41 51 -34 22 8 16 25 -6 18 -14 -5 -20 -2
-20 9 0 17 -15 21 -25 7z"/>
<path d="M4850 6330 c0 -5 7 -10 16 -10 8 0 12 5 9 10 -3 6 -10 10 -16 10 -5
0 -9 -4 -9 -10z"/>
<path d="M4810 6295 c7 -8 22 -15 34 -15 20 1 20 2 -4 15 -33 19 -46 19 -30 0z"/>
<path d="M4850 6245 c0 -7 72 -36 77 -31 2 2 -10 11 -28 20 -33 16 -49 20 -49
11z"/>
<path d="M5010 6225 c0 -2 9 -9 20 -15 16 -9 18 -8 14 5 -5 13 -34 22 -34 10z"/>
<path d="M2270 5890 c0 -5 5 -10 11 -10 5 0 7 5 4 10 -3 6 -8 10 -11 10 -2 0
-4 -4 -4 -10z"/>
<path d="M2280 5849 c0 -5 5 -7 10 -4 6 3 10 8 10 11 0 2 -4 4 -10 4 -5 0 -10
-5 -10 -11z"/>
<path d="M4975 5600 c-3 -5 -1 -10 4 -10 6 0 11 5 11 10 0 6 -2 10 -4 10 -3 0
-8 -4 -11 -10z"/>
<path d="M2225 5570 c-3 -5 -1 -10 4 -10 6 0 11 5 11 10 0 6 -2 10 -4 10 -3 0
-8 -4 -11 -10z"/>
<path d="M4855 5560 c3 -5 8 -10 11 -10 2 0 4 5 4 10 0 6 -5 10 -11 10 -5 0
-7 -4 -4 -10z"/>
<path d="M4835 5430 c-3 -5 -1 -10 4 -10 6 0 11 5 11 10 0 6 -2 10 -4 10 -3 0
-8 -4 -11 -10z"/>
<path d="M2100 5400 c0 -5 5 -10 10 -10 6 0 10 5 10 10 0 6 -4 10 -10 10 -5 0
-10 -4 -10 -10z"/>
<path d="M2050 5199 c0 -5 5 -7 10 -4 6 3 10 8 10 11 0 2 -4 4 -10 4 -5 0 -10
-5 -10 -11z"/>
<path d="M2107 5108 c-6 -19 14 -58 30 -58 16 0 16 -1 2 39 -11 32 -24 40 -32
19z"/>
<path d="M2081 5084 c0 -11 3 -14 6 -6 3 7 2 16 -1 19 -3 4 -6 -2 -5 -13z"/>
<path d="M2121 4984 c0 -11 3 -14 6 -6 3 7 2 16 -1 19 -3 4 -6 -2 -5 -13z"/>
<path d="M4951 4993 c0 -7 -8 -13 -16 -13 -12 0 -14 -7 -9 -27 4 -22 3 -25 -5
-13 -8 11 -11 11 -11 2 0 -7 7 -15 16 -19 10 -3 12 -8 5 -12 -14 -9 1 -63 19
-69 9 -3 11 1 7 11 -3 9 -1 17 5 19 7 3 7 23 0 68 -5 36 -10 59 -11 53z"/>
<path d="M3557 4950 c-3 -11 -1 -20 4 -20 5 0 9 9 9 20 0 11 -2 20 -4 20 -2 0
-6 -9 -9 -20z"/>
<path d="M2928 4942 c-10 -2 -18 -8 -18 -13 0 -11 11 -11 30 1 18 11 11 18
-12 12z"/>
<path d="M2585 4930 c-3 -5 1 -10 10 -10 9 0 13 5 10 10 -3 6 -8 10 -10 10 -2
0 -7 -4 -10 -10z"/>
<path d="M1991 4914 c0 -11 3 -14 6 -6 3 7 2 16 -1 19 -3 4 -6 -2 -5 -13z"/>
<path d="M2653 4910 c-18 -11 -40 -17 -49 -13 -12 4 -15 2 -12 -8 8 -22 91 -1
102 27 7 19 -3 18 -41 -6z"/>
<path d="M2490 4900 c0 -5 5 -10 10 -10 6 0 10 5 10 10 0 6 -4 10 -10 10 -5 0
-10 -4 -10 -10z"/>
<path d="M4479 4898 c-1 -7 0 -21 1 -32 2 -17 -4 -18 -67 -11 -37 4 -72 11
-77 16 -13 12 -39 12 -31 -1 7 -11 -29 -14 -108 -10 -46 2 -49 1 -42 -20 6
-18 3 -21 -12 -18 -10 2 -17 10 -16 16 2 7 -2 12 -7 12 -5 0 -10 -7 -10 -16 0
-14 -1 -14 -16 0 -20 20 -28 20 -20 1 3 -8 1 -15 -4 -15 -6 0 -10 4 -10 9 0 5
-18 9 -39 9 -36 1 -40 -2 -46 -29 -4 -17 -13 -29 -22 -29 -14 0 -13 3 3 21 19
21 19 21 -6 17 -14 -2 -24 -8 -23 -14 1 -5 -7 -10 -18 -10 -10 0 -19 4 -19 9
0 4 -5 5 -10 2 -6 -4 -8 -10 -5 -15 3 -5 1 -19 -5 -31 -9 -17 -7 -30 14 -72
17 -35 27 -71 28 -110 2 -58 7 -64 56 -71 8 -2 20 -10 27 -19 7 -9 14 -14 17
-12 3 3 17 -6 31 -19 15 -14 27 -22 27 -19 0 4 5 2 12 -5 7 -7 20 -12 30 -12
10 0 21 -7 24 -15 4 -8 10 -13 14 -10 5 3 15 0 22 -7 51 -48 57 -51 73 -38 12
10 15 10 15 0 0 -7 8 -10 20 -7 11 3 22 2 25 -3 13 -21 236 -31 243 -11 2 6
14 8 28 5 15 -4 24 -2 24 5 0 6 -5 11 -11 11 -20 0 2 20 24 21 18 1 19 2 4 6
-10 3 -32 -1 -49 -8 -25 -10 -31 -10 -39 2 -6 9 -12 10 -16 4 -12 -15 -123
-20 -123 -5 0 8 -4 9 -12 3 -15 -11 -63 9 -50 21 4 4 3 7 -3 6 -54 -11 -75 17
-40 54 26 28 45 32 75 16 16 -9 18 -8 13 6 -7 18 5 17 51 -2 15 -6 17 -4 11 6
-6 10 -4 12 8 7 9 -3 19 -2 21 2 3 5 17 6 32 3 16 -3 29 1 35 9 5 8 9 9 9 3 0
-7 17 -9 48 -6 44 4 49 2 71 -27 13 -17 28 -31 34 -31 5 0 16 -8 23 -17 12
-15 13 -15 8 -2 -7 21 38 34 65 20 12 -7 30 -7 52 -1 18 6 41 7 51 4 13 -4 16
-1 12 9 -3 8 2 21 11 28 9 8 21 19 28 25 6 6 19 9 29 6 14 -3 18 2 19 24 1 16
1 32 0 37 0 4 6 7 14 7 10 0 14 10 13 35 -1 37 -20 61 -38 50 -6 -4 -11 -1
-10 6 3 21 -11 59 -22 59 -5 0 -6 5 -2 11 3 6 2 14 -4 18 -7 4 -8 12 -2 21 6
9 10 10 10 3 0 -6 9 -9 21 -6 12 4 18 11 15 20 -3 8 -6 18 -6 23 0 4 -9 6 -20
3 -13 -3 -26 1 -33 11 -12 16 -62 12 -52 -4 3 -5 1 -11 -4 -15 -6 -3 -8 -12
-4 -20 7 -19 -8 -19 -33 0 -23 17 -44 19 -44 4 0 -5 5 -7 11 -3 7 4 10 -1 7
-12 -2 -13 -13 -20 -38 -22 -19 -2 -41 -9 -49 -15 -12 -10 -12 -9 -2 10 11 21
10 23 -14 21 -14 -1 -24 -7 -23 -13 3 -12 -4 -15 -32 -15 -14 0 -18 5 -13 18
6 15 5 16 -12 2 -17 -14 -17 -13 -10 8 6 21 5 23 -13 13 -26 -14 -32 -14 -32
-1 0 6 7 10 16 10 8 0 12 5 8 11 -3 6 -15 9 -25 6 -10 -3 -22 -1 -25 4 -3 5
-9 7 -14 4 -5 -3 -11 -1 -15 5 -10 16 -28 11 -21 -6 5 -12 2 -15 -10 -10 -8 3
-19 6 -22 6 -4 0 -1 4 7 9 13 8 27 81 16 81 -3 0 -6 -6 -6 -12z m81 -108 c0
-5 -9 -10 -20 -10 -11 0 -20 5 -20 10 0 6 9 10 20 10 11 0 20 -4 20 -10z m127
-64 c4 -3 4 -8 2 -10 -6 -7 -89 6 -89 13 0 8 79 5 87 -3z m28 -236 c4 -6 -5
-10 -19 -10 -14 0 -26 5 -26 10 0 6 9 10 19 10 11 0 23 -4 26 -10z m35 -24 c0
-2 -7 -7 -16 -10 -8 -3 -12 -2 -9 4 6 10 25 14 25 6z"/>
<path d="M2406 4885 c-3 -8 -1 -15 4 -15 13 0 22 18 11 24 -5 3 -11 -1 -15 -9z"/>
<path d="M4417 4869 c7 -7 15 -10 18 -7 3 3 -2 9 -12 12 -14 6 -15 5 -6 -5z"/>
<path d="M4826 4835 c-3 -9 0 -15 9 -15 8 0 15 7 15 15 0 8 -4 15 -9 15 -5 0
-11 -7 -15 -15z"/>
<path d="M3895 4830 c3 -5 8 -10 11 -10 2 0 4 5 4 10 0 6 -5 10 -11 10 -5 0
-7 -4 -4 -10z"/>
<path d="M1857 4803 c-21 -24 -33 -73 -17 -73 20 0 43 31 45 61 3 33 -5 37
-28 12z"/>
<path d="M4630 4811 c0 -5 5 -13 10 -16 6 -3 10 -2 10 4 0 5 -4 13 -10 16 -5
3 -10 2 -10 -4z"/>
<path d="M1951 4774 c0 -11 3 -14 6 -6 3 7 2 16 -1 19 -3 4 -6 -2 -5 -13z"/>
<path d="M3840 4770 c0 -5 5 -10 10 -10 6 0 10 5 10 10 0 6 -4 10 -10 10 -5 0
-10 -4 -10 -10z"/>
<path d="M2115 4760 c3 -5 10 -10 16 -10 5 0 9 5 9 10 0 6 -7 10 -16 10 -8 0
-12 -4 -9 -10z"/>
<path d="M1940 4741 c0 -5 7 -12 16 -15 22 -9 24 -8 24 9 0 8 -9 15 -20 15
-11 0 -20 -4 -20 -9z"/>
<path d="M2140 4730 c0 -5 7 -10 15 -10 8 0 15 5 15 10 0 6 -7 10 -15 10 -8 0
-15 -4 -15 -10z"/>
<path d="M1930 4710 c0 -13 18 -22 24 -11 3 5 -1 11 -9 15 -8 3 -15 1 -15 -4z"/>
<path d="M1836 4672 c-4 -13 -5 -26 -2 -29 10 -11 18 4 14 29 l-4 23 -8 -23z"/>
<path d="M1980 4606 c0 -2 7 -9 15 -16 12 -10 15 -10 15 4 0 9 -7 16 -15 16
-8 0 -15 -2 -15 -4z"/>
<path d="M6160 4482 c0 -5 28 -12 63 -15 34 -4 76 -9 92 -12 18 -3 13 1 -15
11 -56 19 -140 30 -140 16z"/>
<path d="M5015 4471 c-3 -5 -1 -12 5 -16 5 -3 10 1 10 9 0 18 -6 21 -15 7z"/>
<path d="M3931 4454 c0 -11 3 -14 6 -6 3 7 2 16 -1 19 -3 4 -6 -2 -5 -13z"/>
<path d="M5184 4443 c10 -53 22 -87 34 -91 17 -5 15 20 -8 72 -22 52 -34 60
-26 19z"/>
<path d="M2850 4419 c0 -5 5 -7 10 -4 6 3 10 8 10 11 0 2 -4 4 -10 4 -5 0 -10
-5 -10 -11z"/>
<path d="M4620 4350 c0 -5 5 -10 10 -10 6 0 10 5 10 10 0 6 -4 10 -10 10 -5 0
-10 -4 -10 -10z"/>
<path d="M1920 4284 c0 -8 5 -12 10 -9 6 3 10 10 10 16 0 5 -4 9 -10 9 -5 0
-10 -7 -10 -16z"/>
<path d="M1975 3920 c-3 -5 -1 -10 4 -10 6 0 11 5 11 10 0 6 -2 10 -4 10 -3 0
-8 -4 -11 -10z"/>
<path d="M2010 3861 c-14 -27 -13 -30 10 -24 11 3 20 14 20 24 0 25 -16 24
-30 0z"/>
<path d="M5022 3850 c0 -19 2 -27 5 -17 2 9 2 25 0 35 -3 9 -5 1 -5 -18z"/>
<path d="M4010 3743 c0 -14 -2 -15 -9 -5 -6 10 -11 5 -21 -17 -7 -17 -16 -28
-21 -25 -5 3 -9 0 -9 -6 0 -7 -7 -9 -16 -6 -12 4 -15 2 -10 -9 3 -8 0 -14 -7
-12 -7 1 -11 -4 -9 -12 3 -12 0 -12 -13 -1 -13 11 -19 10 -35 -5 -21 -19 -28
-41 -10 -30 16 10 11 -1 -7 -16 -11 -10 -14 -10 -9 -1 5 8 -2 12 -23 12 -17 0
-31 -4 -31 -10 0 -5 6 -10 13 -10 8 0 8 -3 -2 -9 -16 -10 -42 -3 -53 13 -5 7
-8 7 -8 -1 0 -8 -14 -13 -36 -13 -33 0 -35 2 -23 16 12 15 11 16 -8 10 -12 -4
-24 -2 -28 4 -3 5 -21 10 -38 10 -38 0 -62 13 -53 29 5 7 -2 11 -17 11 -14 0
-27 7 -31 15 -7 19 -26 20 -26 1 0 -9 -9 -13 -25 -11 -14 1 -25 -1 -25 -6 0
-4 -10 -11 -22 -15 -13 -4 -26 -12 -30 -18 -5 -7 -8 -4 -8 8 0 13 -5 16 -17
11 -41 -16 -73 -23 -68 -14 4 5 0 9 -9 9 -8 0 -17 -6 -20 -12 -5 -10 -7 -10
-12 0 -3 6 -12 12 -20 12 -9 0 -13 -4 -10 -9 3 -5 -1 -11 -9 -15 -8 -3 -15 -2
-15 2 0 5 -6 17 -14 28 -13 17 -15 12 -15 -55 0 -103 15 -134 75 -155 26 -9
56 -16 66 -16 27 0 149 -60 155 -76 3 -8 9 -12 13 -9 5 3 20 -8 33 -25 14 -16
27 -30 29 -30 2 0 33 -28 68 -61 92 -89 162 -111 224 -70 26 17 176 198 176
212 0 12 93 52 140 60 66 13 83 39 77 115 -3 33 -2 77 3 97 7 35 -1 50 -15 27
-3 -5 -12 -10 -18 -10 -7 0 -6 4 3 10 13 8 13 10 -2 10 -9 0 -20 -5 -23 -10
-3 -6 -18 -8 -31 -6 -33 6 -54 -2 -55 -23 0 -13 -2 -13 -6 -1 -4 8 -12 21 -20
28 -7 7 -13 33 -13 58 0 24 -4 44 -10 44 -5 0 -10 -8 -10 -17z m25 -113 c3 -5
1 -10 -4 -10 -6 0 -11 5 -11 10 0 6 2 10 4 10 3 0 8 -4 11 -10z"/>
<path d="M1990 3601 c0 -6 4 -13 10 -16 6 -3 7 1 4 9 -7 18 -14 21 -14 7z"/>
<path d="M2112 3597 c-9 -11 -10 -17 -2 -22 15 -9 23 -1 18 21 -3 15 -4 16
-16 1z"/>
<path d="M4397 3579 c7 -7 15 -10 18 -7 3 3 -2 9 -12 12 -14 6 -15 5 -6 -5z"/>
<path d="M4860 3573 c0 -13 5 -23 10 -23 13 0 13 11 0 30 -8 12 -10 11 -10 -7z"/>
<path d="M4820 3570 c0 -5 5 -10 10 -10 6 0 10 5 10 10 0 6 -4 10 -10 10 -5 0
-10 -4 -10 -10z"/>
<path d="M4416 3552 c-3 -5 5 -19 17 -33 90 -97 132 -170 153 -264 6 -29 6
-29 15 -7 5 13 7 41 6 62 -2 21 0 37 5 34 10 -6 6 26 -5 44 -5 6 -4 12 1 12 6
0 8 9 5 20 -3 12 -14 20 -27 20 -11 0 -28 5 -36 11 -13 9 -12 10 2 5 10 -3 20
-1 23 4 4 6 -1 10 -9 10 -9 0 -16 8 -16 18 0 13 -2 14 -9 4 -11 -17 -43 -1
-79 41 -24 28 -37 33 -46 19z"/>
<path d="M2831 3422 c-13 -18 -20 -36 -17 -40 11 -10 48 35 44 54 -3 16 -7 13
-27 -14z"/>
<path d="M2012 3389 c2 -7 10 -15 17 -17 8 -3 12 1 9 9 -2 7 -10 15 -17 17 -8
3 -12 -1 -9 -9z"/>
<path d="M2772 3360 c-7 -12 -18 -18 -25 -14 -7 4 -9 3 -4 -1 4 -5 1 -15 -7
-24 -8 -9 -15 -20 -16 -26 -1 -5 -7 -9 -15 -7 -8 1 -18 -13 -25 -35 -7 -21
-18 -43 -25 -48 -7 -6 -14 -33 -16 -60 -3 -39 -1 -50 12 -53 12 -2 19 15 33
78 10 48 23 83 32 87 8 3 14 11 14 19 0 8 5 14 10 14 6 0 10 5 10 11 0 6 14
24 30 39 33 31 37 40 17 40 -7 0 -18 -9 -25 -20z"/>
<path d="M4820 3360 c0 -11 5 -20 10 -20 6 0 10 9 10 20 0 11 -4 20 -10 20 -5
0 -10 -9 -10 -20z"/>
<path d="M4880 3362 c0 -6 9 -12 20 -15 11 -3 20 -3 20 -1 0 2 -9 8 -20 14
-11 6 -20 7 -20 2z"/>
<path d="M2280 3350 c0 -5 5 -10 11 -10 5 0 7 5 4 10 -3 6 -8 10 -11 10 -2 0
-4 -4 -4 -10z"/>
<path d="M2050 3290 c0 -12 -5 -17 -14 -14 -7 3 -16 -2 -19 -10 -4 -9 -2 -16
3 -16 6 0 10 -6 10 -14 0 -27 20 -28 30 -2 5 15 13 25 17 24 5 -2 8 2 8 7 0 6
-3 9 -7 8 -5 -2 -8 6 -8 17 0 11 -4 20 -10 20 -5 0 -10 -9 -10 -20z"/>
<path d="M4395 3271 c-3 -5 -1 -12 5 -16 5 -3 10 1 10 9 0 18 -6 21 -15 7z"/>
<path d="M4870 3269 c-13 -8 -13 -10 0 -19 27 -18 39 -9 22 17 -5 8 -12 9 -22
2z"/>
<path d="M2070 3230 c0 -5 5 -10 11 -10 5 0 7 5 4 10 -3 6 -8 10 -11 10 -2 0
-4 -4 -4 -10z"/>
<path d="M4369 3205 c-1 -11 -1 -24 0 -28 1 -4 -7 -10 -16 -14 -45 -16 -73
-44 -67 -67 3 -14 -1 -27 -10 -35 -14 -11 -16 -11 -16 4 0 15 -3 15 -15 5 -9
-7 -36 -12 -60 -12 -25 1 -54 -3 -65 -10 -14 -9 -23 -10 -28 -3 -4 6 -44 10
-89 10 -44 0 -76 -3 -70 -7 15 -9 -33 -27 -92 -35 -25 -4 -51 -13 -57 -21 -9
-13 -16 -13 -40 -4 -16 6 -40 12 -54 12 -51 0 -64 1 -80 10 -11 6 -21 5 -27
-1 -6 -6 -19 -9 -29 -6 -16 4 -16 5 2 6 34 2 38 28 4 28 -18 0 -30 -6 -33 -17
-2 -9 -14 -19 -26 -23 -17 -4 -21 -1 -21 16 -1 20 -2 21 -14 5 -11 -15 -29
-18 -102 -18 -49 0 -118 -5 -154 -10 -44 -6 -68 -6 -77 2 -7 6 -13 8 -13 5 0
-3 -20 0 -45 7 -25 8 -45 10 -45 5 0 -5 -4 -9 -10 -9 -5 0 -10 10 -10 23 0 31
-13 48 -37 50 -13 0 -19 6 -16 14 7 17 4 17 -46 -8 -40 -19 -99 -20 -87 -1 2
4 -4 8 -14 8 -14 0 -16 -4 -9 -17 5 -10 9 -21 9 -25 0 -7 -65 0 -93 11 -15 6
-17 3 -12 -31 4 -27 16 -48 38 -67 18 -16 43 -38 56 -50 20 -18 38 -22 108
-25 47 -1 110 -8 141 -15 36 -8 81 -10 122 -6 36 4 100 10 143 13 42 3 119 11
170 17 50 7 137 13 192 14 55 1 134 7 175 13 62 8 119 9 257 3 6 -1 14 -9 16
-18 4 -15 5 -15 6 -2 1 13 12 17 48 17 26 1 61 4 78 7 l30 7 -30 -26 c-16 -14
-37 -25 -46 -26 -16 0 -42 -44 -32 -54 3 -3 22 13 42 34 21 22 42 40 47 40 6
0 37 30 70 66 60 67 169 134 177 111 2 -8 10 -6 21 6 10 9 22 17 27 17 5 0 4
9 -3 21 -9 13 -20 19 -35 16 -18 -3 -23 0 -23 18 0 12 -10 30 -22 41 -19 15
-20 16 -9 2 12 -16 11 -18 -15 -18 -22 0 -25 3 -14 10 12 8 12 10 -3 16 -9 3
-25 3 -34 0 -9 -4 -20 -1 -25 6 -5 9 -8 7 -9 -7z m-49 -105 c0 -5 -4 -10 -10
-10 -5 0 -10 5 -10 10 0 6 5 10 10 10 6 0 10 -4 10 -10z m-1390 -40 c12 -8 11
-10 -7 -10 -13 0 -23 5 -23 10 0 13 11 13 30 0z m-2 -37 c-10 -2 -26 -2 -35 0
-10 3 -2 5 17 5 19 0 27 -2 18 -5z m161 -39 c2 -2 2 -6 0 -9 -8 -7 -49 7 -49
17 0 8 38 2 49 -8z"/>
<path d="M4575 3199 c-4 -6 -5 -12 -2 -15 2 -3 7 2 10 11 7 17 1 20 -8 4z"/>
<path d="M4875 3190 c3 -5 -1 -10 -9 -10 -10 0 -16 -9 -16 -24 0 -14 -4 -27
-9 -30 -5 -4 -8 -14 -6 -24 2 -9 4 -24 5 -32 0 -12 4 -11 15 4 8 11 13 27 10
36 -3 9 2 25 10 36 17 22 20 54 4 54 -5 0 -7 -4 -4 -10z"/>
<path d="M2070 3170 c13 -9 13 -11 1 -19 -11 -7 -4 -12 25 -20 54 -15 76 -12
36 5 -18 8 -35 21 -38 29 -4 8 -14 15 -23 15 -14 0 -14 -2 -1 -10z"/>
<path d="M4560 3130 c0 -5 5 -10 10 -10 6 0 10 5 10 10 0 6 -4 10 -10 10 -5 0
-10 -4 -10 -10z"/>
<path d="M2758 3103 c6 -2 18 -2 25 0 6 3 1 5 -13 5 -14 0 -19 -2 -12 -5z"/>
<path d="M4809 3053 c-1 -10 -1 -31 0 -48 1 -26 -1 -27 -8 -10 -8 16 -10 16
-10 4 -1 -9 5 -21 12 -27 10 -9 15 -3 24 28 6 24 6 37 0 33 -5 -3 -6 3 -2 16
4 12 2 21 -4 21 -6 0 -11 -8 -12 -17z"/>
<path d="M2205 3010 c-3 -5 1 -10 10 -10 9 0 13 5 10 10 -3 6 -8 10 -10 10 -2
0 -7 -4 -10 -10z"/>
<path d="M4395 3000 c-3 -5 -1 -10 4 -10 6 0 11 5 11 10 0 6 -2 10 -4 10 -3 0
-8 -4 -11 -10z"/>
<path d="M4767 2995 c-4 -11 -10 -26 -13 -32 -3 -8 1 -13 10 -13 20 0 24 10
16 40 -6 23 -7 24 -13 5z"/>
<path d="M2680 2974 c0 -10 28 -34 39 -34 18 0 12 19 -8 30 -22 11 -31 13 -31
4z"/>
<path d="M2260 2949 c0 -5 5 -7 10 -4 6 3 10 8 10 11 0 2 -4 4 -10 4 -5 0 -10
-5 -10 -11z"/>
<path d="M2340 2890 c0 -5 5 -10 10 -10 6 0 10 5 10 10 0 6 -4 10 -10 10 -5 0
-10 -4 -10 -10z"/>
<path d="M4076 2872 c-15 -3 -16 -6 -5 -13 9 -6 10 -9 2 -9 -6 0 -15 5 -18 10
-7 12 -26 14 -23 3 4 -11 -24 -49 -42 -56 -8 -4 1 -4 20 -1 19 3 40 12 46 20
6 8 16 14 21 14 14 0 36 27 26 32 -4 3 -17 3 -27 0z"/>
<path d="M4680 2800 c0 -5 5 -10 11 -10 5 0 7 5 4 10 -3 6 -8 10 -11 10 -2 0
-4 -4 -4 -10z"/>
<path d="M3912 2690 c-8 -13 -8 -20 -2 -20 6 0 13 7 17 15 9 24 -1 27 -15 5z"/>
<path d="M4130 2689 c0 -5 5 -7 10 -4 6 3 10 8 10 11 0 2 -4 4 -10 4 -5 0 -10
-5 -10 -11z"/>
<path d="M3870 2654 c0 -3 6 -12 14 -19 12 -12 16 -12 25 -1 6 7 8 16 4 19 -8
8 -43 9 -43 1z"/>
<path d="M3960 2610 c0 -5 5 -10 10 -10 6 0 10 5 10 10 0 6 -4 10 -10 10 -5 0
-10 -4 -10 -10z"/>
<path d="M2595 2560 c-3 -5 -1 -10 4 -10 6 0 11 5 11 10 0 6 -2 10 -4 10 -3 0
-8 -4 -11 -10z"/>
<path d="M3796 2467 c3 -10 9 -15 12 -12 3 3 0 11 -7 18 -10 9 -11 8 -5 -6z"/>
<path d="M3605 2450 c3 -5 11 -10 16 -10 6 0 7 5 4 10 -3 6 -11 10 -16 10 -6
0 -7 -4 -4 -10z"/>
<path d="M2615 2351 c-3 -5 -1 -12 5 -16 5 -3 10 1 10 9 0 18 -6 21 -15 7z"/>
<path d="M2505 2320 c-3 -5 -1 -10 4 -10 6 0 11 5 11 10 0 6 -2 10 -4 10 -3 0
-8 -4 -11 -10z"/>
<path d="M2800 2150 c0 -5 5 -10 11 -10 5 0 7 5 4 10 -3 6 -8 10 -11 10 -2 0
-4 -4 -4 -10z"/>
<path d="M4128 1963 c7 -3 16 -2 19 1 4 3 -2 6 -13 5 -11 0 -14 -3 -6 -6z"/>
<path d="M4005 1943 c-15 -34 -13 -41 8 -35 12 3 16 7 9 10 -22 7 -12 23 11
16 12 -3 20 -5 17 -2 -34 28 -38 28 -45 11z"/>
<path d="M4095 1950 c-3 -5 -1 -10 4 -10 6 0 11 5 11 10 0 6 -2 10 -4 10 -3 0
-8 -4 -11 -10z"/>
<path d="M3215 1910 c-3 -5 -1 -10 4 -10 6 0 11 5 11 10 0 6 -2 10 -4 10 -3 0
-8 -4 -11 -10z"/>
<path d="M4020 1889 c0 -5 5 -7 10 -4 6 3 10 8 10 11 0 2 -4 4 -10 4 -5 0 -10
-5 -10 -11z"/>
<path d="M3775 1850 c-3 -5 -2 -10 4 -10 5 0 13 5 16 10 3 6 2 10 -4 10 -5 0
-13 -4 -16 -10z"/>
<path d="M3520 1840 c0 -5 6 -10 14 -10 8 0 18 5 21 10 3 6 -3 10 -14 10 -12
0 -21 -4 -21 -10z"/>
<path d="M3404 1825 c8 -8 22 -15 30 -15 9 0 16 7 16 15 0 8 -5 15 -11 15 -5
0 -7 -5 -3 -11 5 -8 1 -8 -14 0 -29 15 -36 14 -18 -4z"/>
<path d="M2924 6746 c-10 -8 -16 -18 -11 -22 8 -8 57 15 57 28 0 13 -24 9 -46
-6z"/>
<path d="M2965 6710 c3 -5 13 -10 21 -10 8 0 12 5 9 10 -3 6 -13 10 -21 10 -8
0 -12 -4 -9 -10z"/>
<path d="M2933 6685 c0 -8 4 -15 9 -15 4 0 8 4 8 9 0 6 -4 12 -8 15 -5 3 -9
-1 -9 -9z"/>
<path d="M2780 6630 c0 -5 5 -10 11 -10 5 0 7 5 4 10 -3 6 -8 10 -11 10 -2 0
-4 -4 -4 -10z"/>
<path d="M1997 6223 c-4 -3 -7 -11 -7 -17 0 -6 5 -5 12 2 6 6 9 14 7 17 -3 3
-9 2 -12 -2z"/>
<path d="M2233 6079 c3 -9 0 -22 -6 -28 -8 -8 -8 -11 1 -11 19 0 27 30 12 43
-10 9 -12 9 -7 -4z"/>
<path d="M2225 6020 c-3 -5 -1 -10 4 -10 6 0 11 5 11 10 0 6 -2 10 -4 10 -3 0
-8 -4 -11 -10z"/>
<path d="M1935 5940 c4 -6 11 -8 16 -5 14 9 11 15 -7 15 -8 0 -12 -5 -9 -10z"/>
<path d="M1875 5760 c-3 -5 -1 -10 4 -10 6 0 11 5 11 10 0 6 -2 10 -4 10 -3 0
-8 -4 -11 -10z"/>
<path d="M1950 5680 c-13 -8 -13 -10 2 -10 9 0 20 5 23 10 8 13 -5 13 -25 0z"/>
<path d="M1912 5658 c-7 -7 -12 -16 -12 -20 0 -12 28 -10 36 3 10 17 -10 31
-24 17z"/>
<path d="M2030 5650 c0 -5 5 -10 10 -10 6 0 10 5 10 10 0 6 -4 10 -10 10 -5 0
-10 -4 -10 -10z"/>
<path d="M1928 5603 c6 -2 18 -2 25 0 6 3 1 5 -13 5 -14 0 -19 -2 -12 -5z"/>
<path d="M1040 6128 c1 -13 7 -34 15 -48 8 -14 14 -35 15 -47 0 -48 18 -20 22
35 5 72 2 82 -28 82 -18 0 -24 -5 -24 -22z"/>
<path d="M1836 5563 c-6 -14 -5 -15 5 -6 7 7 10 15 7 18 -3 3 -9 -2 -12 -12z"/>
<path d="M1815 5530 c3 -5 8 -10 11 -10 2 0 4 5 4 10 0 6 -5 10 -11 10 -5 0
-7 -4 -4 -10z"/>
<path d="M2013 5453 c-15 -5 -17 -23 -4 -23 5 0 11 7 15 15 3 8 4 15 3 14 -1
0 -8 -3 -14 -6z"/>
<path d="M2191 4927 c-6 -8 -8 -17 -4 -20 7 -8 33 11 33 24 0 13 -16 11 -29
-4z"/>
<path d="M1570 4670 c0 -5 5 -10 10 -10 6 0 10 5 10 10 0 6 -4 10 -10 10 -5 0
-10 -4 -10 -10z"/>
<path d="M1446 4183 c4 -16 11 -38 15 -51 5 -13 9 -38 9 -56 0 -18 3 -36 7
-39 3 -4 15 -31 25 -59 23 -67 69 -134 120 -175 47 -39 55 -40 53 -12 -1 11
-28 46 -62 77 -54 52 -83 90 -89 117 -2 6 -9 35 -17 65 -8 30 -18 73 -22 95
-7 41 -21 65 -36 65 -5 0 -6 -12 -3 -27z"/>
<path d="M1850 2661 c-13 -25 -13 -57 1 -83 8 -15 8 -22 -1 -28 -7 -4 1 -10
20 -14 47 -9 47 -9 55 27 16 66 12 79 -33 105 -28 16 -29 16 -42 -7z"/>
<path d="M4912 2650 c0 -14 2 -19 5 -12 2 6 2 18 0 25 -3 6 -5 1 -5 -13z"/>
<path d="M4959 2193 c-13 -16 -12 -17 4 -4 9 7 17 15 17 17 0 8 -8 3 -21 -13z"/>
<path d="M4830 1777 c0 -9 -4 -17 -10 -17 -5 0 -10 -4 -10 -10 0 -5 4 -10 9
-10 12 0 25 39 17 47 -3 4 -6 -1 -6 -10z"/>
<path d="M4690 1520 c0 -11 -7 -20 -15 -20 -8 0 -15 -4 -15 -10 0 -21 26 -9
43 20 16 26 16 30 3 30 -9 0 -16 -9 -16 -20z"/>
<path d="M4006 447 c3 -10 9 -15 12 -12 3 3 0 11 -7 18 -10 9 -11 8 -5 -6z"/>
<path d="M2640 1035 c0 -19 -4 -23 -17 -18 -14 5 -12 0 7 -24 27 -32 37 -35
25 -6 -9 21 -9 21 0 51 4 13 2 22 -4 22 -6 0 -11 -11 -11 -25z"/>
<path d="M2650 938 c0 -9 5 -20 10 -23 13 -8 13 5 0 25 -8 13 -10 13 -10 -2z"/>
<path d="M2716 735 c-3 -8 -1 -15 4 -15 13 0 22 18 11 24 -5 3 -11 -1 -15 -9z"/>
<path d="M2718 661 c-5 -36 -3 -38 11 -13 5 10 6 24 2 31 -6 9 -10 3 -13 -18z"/>
<path d="M3460 160 c0 -5 5 -10 10 -10 6 0 10 5 10 10 0 6 -4 10 -10 10 -5 0
-10 -4 -10 -10z"/>
<path d="M3450 130 c0 -5 5 -10 10 -10 6 0 10 5 10 10 0 6 -4 10 -10 10 -5 0
-10 -4 -10 -10z"/>
<path d="M3247 63 c-10 -10 -8 -45 2 -39 11 7 21 46 12 46 -4 0 -11 -3 -14 -7z"/>
<path d="M3310 33 c0 -4 5 -15 10 -23 8 -13 10 -13 10 2 0 9 -4 20 -10 23 -5
3 -10 3 -10 -2z"/>
<path d="M3260 15 c-8 -9 -8 -15 -2 -15 12 0 26 19 19 26 -2 2 -10 -2 -17 -11z"/>
</g>
</svg>
