<?xml version="1.0" encoding="UTF-8"?>
<!-- Generator: Adobe Illustrator 15.0.0, SVG Export Plug-In . SVG Version: 6.00 Build 0)  -->
<!DOCTYPE svg PUBLIC "-//W3C//DTD SVG 1.1//EN" "http://www.w3.org/Graphics/SVG/1.1/DTD/svg11.dtd">
<svg version="1.1" id="svg2" sodipodi:docname="facebook.svg" inkscape:version="0.47 r22583" sodipodi:version="0.32" xmlns:inkscape="http://www.inkscape.org/namespaces/inkscape" xmlns:sodipodi="http://sodipodi.sourceforge.net/DTD/sodipodi-0.dtd" xmlns:svg="http://www.w3.org/2000/svg" xmlns:rdf="http://www.w3.org/1999/02/22-rdf-syntax-ns#" xmlns:cc="http://creativecommons.org/ns#" xmlns:dc="http://purl.org/dc/elements/1.1/" inkscape:output_extension="org.inkscape.output.svg.inkscape" xmlns="http://www.w3.org/2000/svg" xmlns:xlink="http://www.w3.org/1999/xlink" x="0px" y="0px" width="256px" height="256px" viewBox="0 0 256 256" enable-background="new 0 0 256 256" xml:space="preserve">
<title id="title2910">facebook web</title>
<path id="rect1942_1_" inkscape:export-filename="C:\Documents and Settings\Molumen\Desktop\path3511111.png" inkscape:export-xdpi="7.7063322" inkscape:export-ydpi="7.7063322" fill="#0073BA" d="  M209.018,10.505H44.983c-19.599,0-35.487,15.888-35.487,35.487v164.015c0,19.599,15.888,35.486,35.487,35.486h164.033  c19.604,0,35.487-15.888,37.487-34.819V46.66C244.504,26.394,228.615,10.505,209.018,10.505z"/>
<linearGradient id="SVGID_1_" gradientUnits="userSpaceOnUse" x1="76.8599" y1="-1511.1123" x2="76.8599" y2="-1638.7413" gradientTransform="matrix(1 0 0 -1 51.1401 -1499.9453)">
	<stop offset="0" style="stop-color:#FFFFFF;stop-opacity:0.85"/>
	<stop offset="0.66" style="stop-color:#FFFFFF;stop-opacity:0"/>
</linearGradient>
<path fill="url(#SVGID_1_)" d="M209.018,10.505H44.983c-19.599,0-35.487,15.889-35.487,35.487v69.409  c36.33,14.751,76.046,22.896,117.67,22.896c42.263,0,82.558-8.395,119.336-23.576V46.66  C244.504,26.394,228.615,10.505,209.018,10.505z"/>
<path fill="none" stroke="#0073BA" stroke-width="2" stroke-miterlimit="10" d="M246.503,114.721V46.66  c-1.999-20.266-17.888-36.155-37.485-36.155H44.982c-19.599,0-35.486,15.889-35.486,35.487v69.409"/>
<path fill="#FFFFFF" d="M168.184,66.471c-9.545-5.943-18.548-8.284-27.552-14.226c-5.583-3.782-13.326-12.785-19.809-20.529  c-1.261,12.425-5.042,17.467-9.364,21.069c-9.184,7.203-14.946,9.363-22.87,13.686c-6.662,3.421-42.858,25.03-42.858,71.491  c0,46.458,39.077,80.673,82.474,80.673c43.398,0,81.034-31.514,81.034-79.233S173.945,70.072,168.184,66.471z M153.558,178.279  c2.88,0,5.942,0.18,8.103,1.621c2.162,1.439,3.422,4.682,4.142,6.482c0.722,1.801,0,2.882-1.439,3.602  c-1.261,0.719-1.441,0.359-2.702-1.981c-1.26-2.341-2.34-4.682-8.643-4.682s-8.283,2.161-11.346,4.682  c-3.061,2.521-4.141,3.423-5.223,1.981c-1.079-1.44-0.719-2.881,1.262-4.682c1.98-1.802,5.222-4.682,8.283-5.943  C149.056,178.1,150.676,178.279,153.558,178.279L153.558,178.279z M123.665,198.809c3.602,2.88,9.003,5.221,20.529,5.221  s19.629-3.24,23.229-5.941c1.622-1.262,2.341-0.181,2.521,0.54c0.18,0.72,0.541,1.802-0.719,3.061  c-0.9,0.901-9.184,6.663-18.908,7.563s-22.87,1.44-30.793-5.762c-1.26-1.261-0.9-3.061,0-3.783c0.901-0.719,1.621-1.259,2.701-1.259  C123.305,198.448,123.125,198.448,123.665,198.809L123.665,198.809z M81.167,166.034c0.18-14.046,13.326-27.192,29.893-27.372  c21.069-0.18,35.655,20.889,46.279,20.709c9.003-0.181,26.29-17.827,34.755-17.827c9.004,0,11.524,9.364,11.524,14.946  c0,5.583-1.802,15.666-6.122,21.969c-4.322,6.304-7.023,8.645-12.065,8.283c-6.483-0.54-19.448-20.708-27.731-21.068  c-10.445-0.359-33.134,21.789-50.961,21.789c-10.805,0-14.046-1.621-17.647-3.962C83.688,179.72,80.987,173.957,81.167,166.034  L81.167,166.034z"/>
<g>
	
		<linearGradient id="SVGID_2_" gradientUnits="userSpaceOnUse" x1="76.8599" y1="-1637.9463" x2="76.8599" y2="-1745.4579" gradientTransform="matrix(1 0 0 -1 51.1401 -1499.9453)">
		<stop offset="0" style="stop-color:#000000;stop-opacity:0.15"/>
		<stop offset="0.6626" style="stop-color:#000000;stop-opacity:0"/>
	</linearGradient>
	<path fill="url(#SVGID_2_)" d="M9.496,115.401v94.605c0,19.6,15.888,35.486,35.487,35.486h164.033   c19.604,0,35.488-15.889,37.488-34.819v-95.952c-36.779,15.181-77.074,23.576-119.337,23.576   C85.542,138.298,45.825,130.152,9.496,115.401z"/>
</g>
<g>
	<g>
		<g>
			<g>
				<path fill="none" stroke="#00609C" stroke-width="2" stroke-miterlimit="10" d="M9.496,115.401v94.605      c0,19.6,15.888,35.486,35.486,35.486h164.034c19.604,0,35.487-15.889,37.487-34.819v-95.952"/>
			</g>
		</g>
	</g>
</g>
</svg>